<svg width="211" height="211" viewBox="0 0 211 211" fill="none" xmlns="http://www.w3.org/2000/svg">
<g filter="url(#filter0_d_63_7713)">
<circle cx="105.911" cy="101.089" r="93.5891" stroke="#EB4499" stroke-width="15" shape-rendering="crispEdges"/>
</g>
<g filter="url(#filter1_d_63_7713)">
<mask id="path-2-inside-1_63_7713" fill="white">
<path d="M105.089 4.68805C105.089 2.09891 107.189 -0.0113461 109.775 0.108675C124.779 0.804942 139.461 4.83753 152.742 11.9365C167.403 19.7731 179.906 31.1045 189.142 44.927C198.377 58.7495 204.062 74.6365 205.691 91.1806C207.321 107.725 204.845 124.415 198.483 139.774C192.121 155.133 182.07 168.686 169.219 179.232C156.369 189.778 141.115 196.993 124.811 200.236C108.506 203.479 91.6528 202.651 75.7445 197.825C61.3336 193.454 48.1007 185.924 36.999 175.807C35.0853 174.063 35.0925 171.086 36.9233 169.255C38.7541 167.424 41.7146 167.434 43.6365 169.169C53.642 178.2 65.531 184.929 78.4662 188.853C92.8991 193.231 108.189 193.982 122.981 191.04C137.774 188.097 151.612 181.552 163.271 171.984C174.93 162.416 184.049 150.12 189.821 136.186C195.593 122.252 197.839 107.109 196.36 92.0996C194.882 77.09 189.725 62.6765 181.346 50.1361C172.966 37.5956 161.624 27.3152 148.322 20.2054C136.401 13.8335 123.236 10.1845 109.775 9.49588C107.189 9.36359 105.089 7.27718 105.089 4.68805Z"/>
</mask>
<path d="M105.089 4.68805C105.089 2.09891 107.189 -0.0113461 109.775 0.108675C124.779 0.804942 139.461 4.83753 152.742 11.9365C167.403 19.7731 179.906 31.1045 189.142 44.927C198.377 58.7495 204.062 74.6365 205.691 91.1806C207.321 107.725 204.845 124.415 198.483 139.774C192.121 155.133 182.07 168.686 169.219 179.232C156.369 189.778 141.115 196.993 124.811 200.236C108.506 203.479 91.6528 202.651 75.7445 197.825C61.3336 193.454 48.1007 185.924 36.999 175.807C35.0853 174.063 35.0925 171.086 36.9233 169.255C38.7541 167.424 41.7146 167.434 43.6365 169.169C53.642 178.2 65.531 184.929 78.4662 188.853C92.8991 193.231 108.189 193.982 122.981 191.04C137.774 188.097 151.612 181.552 163.271 171.984C174.93 162.416 184.049 150.12 189.821 136.186C195.593 122.252 197.839 107.109 196.36 92.0996C194.882 77.09 189.725 62.6765 181.346 50.1361C172.966 37.5956 161.624 27.3152 148.322 20.2054C136.401 13.8335 123.236 10.1845 109.775 9.49588C107.189 9.36359 105.089 7.27718 105.089 4.68805Z" stroke="#FEB715" stroke-width="30" shape-rendering="crispEdges" mask="url(#path-2-inside-1_63_7713)"/>
</g>
<path d="M61.4119 118.497C58.9735 118.497 56.8191 118.065 54.9489 117.201C53.0904 116.325 51.6404 115.124 50.5987 113.597C49.5571 112.058 49.0421 110.306 49.054 108.341C49.0421 106.802 49.344 105.382 49.9595 104.08C50.575 102.766 51.4155 101.671 52.4808 100.795C53.558 99.907 54.7595 99.3447 56.0852 99.108V98.8949C54.3452 98.4451 52.9602 97.4685 51.9304 95.9652C50.9006 94.45 50.3916 92.7277 50.4034 90.7983C50.3916 88.9517 50.8591 87.3004 51.8061 85.8445C52.7531 84.3885 54.0552 83.2403 55.7124 82.3999C57.3814 81.5594 59.2813 81.1392 61.4119 81.1392C63.5189 81.1392 65.401 81.5594 67.0582 82.3999C68.7154 83.2403 70.0175 84.3885 70.9645 85.8445C71.9233 87.3004 72.4086 88.9517 72.4205 90.7983C72.4086 92.7277 71.8819 94.45 70.8402 95.9652C69.8104 97.4685 68.4432 98.4451 66.7386 98.8949V99.108C68.0526 99.3447 69.2363 99.907 70.2898 100.795C71.3433 101.671 72.1837 102.766 72.8111 104.08C73.4384 105.382 73.758 106.802 73.7699 108.341C73.758 110.306 73.2254 112.058 72.1719 113.597C71.1302 115.124 69.6802 116.325 67.8217 117.201C65.9751 118.065 63.8385 118.497 61.4119 118.497ZM61.4119 114.591C63.0573 114.591 64.4777 114.325 65.6733 113.792C66.8688 113.259 67.7921 112.508 68.4432 111.537C69.0942 110.566 69.4257 109.43 69.4375 108.128C69.4257 106.755 69.0705 105.541 68.3722 104.488C67.6738 103.434 66.7209 102.606 65.5135 102.002C64.3179 101.398 62.9508 101.097 61.4119 101.097C59.8613 101.097 58.4763 101.398 57.2571 102.002C56.0497 102.606 55.0968 103.434 54.3984 104.488C53.7119 105.541 53.3745 106.755 53.3864 108.128C53.3745 109.43 53.6882 110.566 54.3274 111.537C54.9785 112.508 55.9077 113.259 57.1151 113.792C58.3224 114.325 59.7547 114.591 61.4119 114.591ZM61.4119 97.3324C62.714 97.3324 63.8681 97.072 64.8743 96.5511C65.8923 96.0303 66.6913 95.3023 67.2713 94.3672C67.8513 93.4321 68.1473 92.3371 68.1591 91.0824C68.1473 89.8513 67.8572 88.7801 67.2891 87.8686C66.7209 86.9453 65.9337 86.2351 64.9276 85.7379C63.9214 85.2289 62.7495 84.9744 61.4119 84.9744C60.0507 84.9744 58.861 85.2289 57.843 85.7379C56.825 86.2351 56.0379 86.9453 55.4815 87.8686C54.9252 88.7801 54.6529 89.8513 54.6648 91.0824C54.6529 92.3371 54.9311 93.4321 55.4993 94.3672C56.0793 95.3023 56.8783 96.0303 57.8963 96.5511C58.9143 97.072 60.0862 97.3324 61.4119 97.3324ZM92.4355 118.497C89.7604 118.497 87.4817 117.769 85.5996 116.313C83.7175 114.845 82.2793 112.721 81.285 109.939C80.2907 107.145 79.7935 103.772 79.7935 99.8182C79.7935 95.8883 80.2907 92.5324 81.285 89.7507C82.2911 86.9571 83.7353 84.8265 85.6174 83.3587C87.5113 81.879 89.784 81.1392 92.4355 81.1392C95.0871 81.1392 97.3539 81.879 99.236 83.3587C101.13 84.8265 102.574 86.9571 103.568 89.7507C104.575 92.5324 105.078 95.8883 105.078 99.8182C105.078 103.772 104.58 107.145 103.586 109.939C102.592 112.721 101.154 114.845 99.2715 116.313C97.3894 117.769 95.1107 118.497 92.4355 118.497ZM92.4355 114.591C95.0871 114.591 97.1467 113.312 98.6145 110.756C100.082 108.199 100.816 104.553 100.816 99.8182C100.816 96.6695 100.479 93.9884 99.8042 91.7749C99.1413 89.5613 98.1825 87.8745 96.9277 86.7145C95.6848 85.5545 94.1874 84.9744 92.4355 84.9744C89.8077 84.9744 87.754 86.2706 86.2743 88.8629C84.7947 91.4434 84.0549 95.0952 84.0549 99.8182C84.0549 102.967 84.3863 105.642 85.0492 107.844C85.7121 110.045 86.665 111.72 87.9078 112.869C89.1626 114.017 90.6718 114.591 92.4355 114.591ZM130.362 111.182V109.264C130.362 107.938 130.634 106.725 131.178 105.624C131.735 104.512 132.54 103.624 133.593 102.961C134.659 102.286 135.949 101.949 137.464 101.949C139.003 101.949 140.293 102.286 141.335 102.961C142.376 103.624 143.164 104.512 143.696 105.624C144.229 106.725 144.495 107.938 144.495 109.264V111.182C144.495 112.508 144.223 113.727 143.678 114.839C143.146 115.94 142.353 116.828 141.299 117.503C140.258 118.166 138.979 118.497 137.464 118.497C135.925 118.497 134.629 118.166 133.575 117.503C132.522 116.828 131.723 115.94 131.178 114.839C130.634 113.727 130.362 112.508 130.362 111.182ZM133.984 109.264V111.182C133.984 112.283 134.244 113.271 134.765 114.147C135.286 115.011 136.186 115.443 137.464 115.443C138.707 115.443 139.583 115.011 140.092 114.147C140.613 113.271 140.873 112.283 140.873 111.182V109.264C140.873 108.163 140.624 107.181 140.127 106.317C139.63 105.441 138.742 105.003 137.464 105.003C136.221 105.003 135.327 105.441 134.783 106.317C134.25 107.181 133.984 108.163 133.984 109.264ZM112.251 90.3722V88.4545C112.251 87.1288 112.523 85.9155 113.068 84.8146C113.624 83.7019 114.429 82.8142 115.482 82.1513C116.548 81.4766 117.838 81.1392 119.353 81.1392C120.892 81.1392 122.182 81.4766 123.224 82.1513C124.266 82.8142 125.053 83.7019 125.585 84.8146C126.118 85.9155 126.384 87.1288 126.384 88.4545V90.3722C126.384 91.6979 126.112 92.9171 125.568 94.0298C125.035 95.1307 124.242 96.0185 123.188 96.6932C122.147 97.3561 120.868 97.6875 119.353 97.6875C117.814 97.6875 116.518 97.3561 115.465 96.6932C114.411 96.0185 113.612 95.1307 113.068 94.0298C112.523 92.9171 112.251 91.6979 112.251 90.3722ZM115.873 88.4545V90.3722C115.873 91.473 116.133 92.4614 116.654 93.3374C117.175 94.2015 118.075 94.6335 119.353 94.6335C120.596 94.6335 121.472 94.2015 121.981 93.3374C122.502 92.4614 122.762 91.473 122.762 90.3722V88.4545C122.762 87.3537 122.514 86.3712 122.017 85.5071C121.519 84.6312 120.632 84.1932 119.353 84.1932C118.11 84.1932 117.217 84.6312 116.672 85.5071C116.139 86.3712 115.873 87.3537 115.873 88.4545ZM113.6 118L138.6 81.6364H142.649L117.649 118H113.6Z" fill="black"/>
<defs>
<filter id="filter0_d_63_7713" x="0.821777" y="0" width="210.178" height="210.178" filterUnits="userSpaceOnUse" color-interpolation-filters="sRGB">
<feFlood flood-opacity="0" result="BackgroundImageFix"/>
<feColorMatrix in="SourceAlpha" type="matrix" values="0 0 0 0 0 0 0 0 0 0 0 0 0 0 0 0 0 0 127 0" result="hardAlpha"/>
<feOffset dy="4"/>
<feGaussianBlur stdDeviation="2"/>
<feComposite in2="hardAlpha" operator="out"/>
<feColorMatrix type="matrix" values="0 0 0 0 0 0 0 0 0 0 0 0 0 0 0 0 0 0 0.25 0"/>
<feBlend mode="normal" in2="BackgroundImageFix" result="effect1_dropShadow_63_7713"/>
<feBlend mode="normal" in="SourceGraphic" in2="effect1_dropShadow_63_7713" result="shape"/>
</filter>
<filter id="filter1_d_63_7713" x="31.5569" y="0.10376" width="178.621" height="210.074" filterUnits="userSpaceOnUse" color-interpolation-filters="sRGB">
<feFlood flood-opacity="0" result="BackgroundImageFix"/>
<feColorMatrix in="SourceAlpha" type="matrix" values="0 0 0 0 0 0 0 0 0 0 0 0 0 0 0 0 0 0 127 0" result="hardAlpha"/>
<feOffset dy="4"/>
<feGaussianBlur stdDeviation="2"/>
<feComposite in2="hardAlpha" operator="out"/>
<feColorMatrix type="matrix" values="0 0 0 0 0 0 0 0 0 0 0 0 0 0 0 0 0 0 0.25 0"/>
<feBlend mode="normal" in2="BackgroundImageFix" result="effect1_dropShadow_63_7713"/>
<feBlend mode="normal" in="SourceGraphic" in2="effect1_dropShadow_63_7713" result="shape"/>
</filter>
</defs>
</svg>
