<svg width="398" height="297" viewBox="0 0 398 297" fill="none" xmlns="http://www.w3.org/2000/svg">
<path d="M398 260.61H0V260.809H398V260.61Z" fill="#EBEBEB"/>
<path d="M358.12 273.418H331.757V273.617H358.12V273.418Z" fill="#EBEBEB"/>
<path d="M263.651 275.583H256.734V275.782H263.651V275.583Z" fill="#EBEBEB"/>
<path d="M330.961 266.031H315.686V266.23H330.961V266.031Z" fill="#EBEBEB"/>
<path d="M76.1373 267.368H41.7581V267.567H76.1373V267.368Z" fill="#EBEBEB"/>
<path d="M88.2684 267.368H83.2297V267.567H88.2684V267.368Z" fill="#EBEBEB"/>
<path d="M179.219 270.728H104.65V270.927H179.219V270.728Z" fill="#EBEBEB"/>
<path d="M188.652 225.109H34.9525C33.7484 225.107 32.5944 224.627 31.7437 223.775C30.8931 222.923 30.4153 221.768 30.4153 220.564V4.50536C30.4258 3.3082 30.9082 2.16351 31.7577 1.31994C32.6072 0.476373 33.7553 0.0020508 34.9525 0H188.652C189.858 0 191.014 0.478864 191.866 1.33125C192.718 2.18363 193.197 3.33971 193.197 4.54516V220.564C193.197 221.769 192.718 222.925 191.866 223.778C191.014 224.63 189.858 225.109 188.652 225.109ZM34.9525 0.159201C33.8012 0.161309 32.6978 0.620136 31.8844 1.43497C31.0711 2.2498 30.6143 3.35406 30.6143 4.50536V220.564C30.6143 221.715 31.0711 222.819 31.8844 223.634C32.6978 224.449 33.8012 224.908 34.9525 224.91H188.652C189.804 224.908 190.908 224.449 191.723 223.634C192.538 222.82 192.996 221.716 192.998 220.564V4.50536C192.996 3.35333 192.538 2.24909 191.723 1.43448C190.908 0.619877 189.804 0.161305 188.652 0.159201H34.9525Z" fill="#EBEBEB"/>
<path d="M360.835 225.109H207.127C205.922 225.107 204.768 224.627 203.916 223.775C203.064 222.923 202.584 221.768 202.582 220.564V4.50536C202.595 3.30747 203.079 2.16279 203.93 1.31944C204.78 0.476094 205.929 0.00202844 207.127 0H360.835C362.031 0.00414278 363.177 0.47939 364.024 1.32274C364.872 2.16608 365.354 3.30957 365.364 4.50536V220.564C365.364 221.766 364.887 222.92 364.038 223.772C363.189 224.624 362.037 225.105 360.835 225.109ZM207.127 0.159201C205.975 0.161305 204.871 0.619877 204.056 1.43448C203.242 2.24909 202.783 3.35333 202.781 4.50536V220.564C202.783 221.716 203.242 222.82 204.056 223.634C204.871 224.449 205.975 224.908 207.127 224.91H360.835C361.987 224.908 363.091 224.449 363.906 223.634C364.72 222.82 365.179 221.716 365.181 220.564V4.50536C365.179 3.35333 364.72 2.24909 363.906 1.43448C363.091 0.619877 361.987 0.161305 360.835 0.159201H207.127Z" fill="#EBEBEB"/>
<path d="M143.734 57.4315C143.736 56.4236 143.502 55.4291 143.051 54.528C142.599 53.6269 141.942 52.8442 141.133 52.2428C140.325 51.6414 139.386 51.238 138.393 51.065C137.4 50.892 136.38 50.9542 135.416 51.2466C135.734 49.0948 135.534 46.8982 134.832 44.8394C134.13 42.7807 132.946 40.9193 131.379 39.4103C129.813 37.9013 127.908 36.7883 125.825 36.1638C123.741 35.5394 121.539 35.4215 119.4 35.8201C118.061 33.5892 116.029 31.8568 113.615 30.8866C111.201 29.9164 108.535 29.7615 106.025 30.4455C103.514 31.1295 101.296 32.6149 99.707 34.6756C98.1182 36.7364 97.2462 39.2598 97.2236 41.8618H97.0246C95.5768 41.8618 94.1432 42.1469 92.8057 42.701C91.4681 43.255 90.2528 44.0671 89.229 45.0908C88.2053 46.1145 87.3932 47.3299 86.8392 48.6674C86.2852 50.005 86 51.4386 86 52.8864C86 54.3342 86.2852 55.7677 86.8392 57.1053C87.3932 58.4429 88.2053 59.6582 89.229 60.6819C90.2528 61.7057 91.4681 62.5177 92.8057 63.0718C94.1432 63.6258 95.5768 63.911 97.0246 63.911H137.493C139.171 63.8531 140.761 63.1445 141.926 61.9351C143.091 60.7258 143.739 59.1106 143.734 57.4315Z" fill="#F0F0F0"/>
<path d="M306.842 123.515C306.844 122.505 306.608 121.509 306.155 120.606C305.701 119.703 305.043 118.919 304.231 118.317C303.42 117.715 302.479 117.311 301.484 117.139C300.489 116.966 299.467 117.029 298.5 117.322C298.596 116.666 298.644 116.004 298.643 115.34C298.644 113.544 298.292 111.765 297.605 110.105C296.918 108.445 295.911 106.936 294.641 105.665C293.371 104.395 291.863 103.387 290.203 102.699C288.544 102.011 286.765 101.657 284.968 101.657C284.122 101.657 283.277 101.734 282.445 101.888C281.1 99.6678 279.069 97.9461 276.659 96.9837C274.248 96.0213 271.59 95.8706 269.086 96.5543C266.582 97.2381 264.369 98.7191 262.782 100.773C261.196 102.827 260.321 105.342 260.292 107.938H260.093C257.222 108.015 254.494 109.21 252.49 111.268C250.486 113.326 249.365 116.086 249.365 118.958C249.365 121.831 250.486 124.59 252.49 126.648C254.494 128.707 257.222 129.902 260.093 129.979H300.57C302.251 129.931 303.848 129.229 305.019 128.022C306.191 126.814 306.845 125.198 306.842 123.515Z" fill="#F0F0F0"/>
<path d="M104.228 173.735C104.228 172.728 103.993 171.736 103.541 170.836C103.089 169.937 102.434 169.155 101.627 168.553C100.82 167.952 99.8832 167.547 98.8921 167.372C97.9009 167.196 96.8825 167.254 95.9179 167.542C96.0103 166.885 96.0581 166.223 96.0611 165.56C96.0611 161.931 94.6195 158.451 92.0534 155.885C89.4873 153.318 86.0069 151.877 82.3779 151.877C81.5315 151.876 80.6868 151.954 79.8546 152.108C78.5149 149.876 76.4828 148.143 74.0676 147.173C71.6523 146.203 68.9863 146.049 66.4753 146.734C63.9643 147.419 61.7459 148.906 60.1578 150.968C58.5697 153.03 57.6989 155.555 57.678 158.157H57.479C56.0068 158.118 54.5417 158.373 53.17 158.909C51.7983 159.446 50.5479 160.251 49.4927 161.278C48.4374 162.306 47.5987 163.534 47.026 164.891C46.4533 166.247 46.1582 167.705 46.1582 169.178C46.1582 170.651 46.4533 172.108 47.026 173.465C47.5987 174.822 48.4374 176.05 49.4927 177.077C50.5479 178.105 51.7983 178.91 53.17 179.446C54.5417 179.982 56.0068 180.238 57.479 180.198H97.9477C99.6306 180.153 101.229 179.451 102.402 178.244C103.576 177.037 104.231 175.419 104.228 173.735Z" fill="#F0F0F0"/>
<path d="M348.306 178.973C348.306 177.965 348.071 176.972 347.619 176.071C347.167 175.171 346.51 174.389 345.702 173.787C344.894 173.185 343.956 172.781 342.964 172.606C341.972 172.431 340.953 172.491 339.988 172.78C340.084 172.123 340.132 171.461 340.131 170.798C340.133 168.791 339.693 166.808 338.842 164.991C337.992 163.173 336.751 161.565 335.208 160.282C333.665 158.998 331.859 158.07 329.917 157.564C327.975 157.058 325.945 156.986 323.972 157.353C322.634 155.119 320.603 153.382 318.187 152.41C315.771 151.437 313.103 151.281 310.59 151.965C308.077 152.65 305.857 154.137 304.267 156.2C302.678 158.264 301.807 160.79 301.788 163.395H301.589C298.665 163.395 295.861 164.556 293.793 166.624C291.725 168.691 290.564 171.496 290.564 174.419C290.564 177.343 291.725 180.148 293.793 182.215C295.861 184.283 298.665 185.444 301.589 185.444H342.073C343.749 185.386 345.337 184.678 346.5 183.471C347.663 182.263 348.311 180.65 348.306 178.973Z" fill="#F0F0F0"/>
<path d="M214.92 139.825C214.919 139.15 214.76 138.485 214.457 137.881C214.155 137.278 213.716 136.753 213.175 136.349C212.635 135.944 212.008 135.671 211.344 135.55C210.679 135.43 209.996 135.465 209.348 135.654C209.537 134.345 209.443 133.01 209.072 131.741C208.7 130.471 208.061 129.296 207.196 128.295C206.331 127.294 205.261 126.491 204.058 125.94C202.856 125.388 201.549 125.102 200.226 125.099C199.657 125.1 199.089 125.153 198.53 125.259C197.621 123.765 196.25 122.608 194.626 121.962C193.001 121.315 191.21 121.214 189.523 121.674C187.836 122.134 186.344 123.13 185.273 124.511C184.201 125.893 183.607 127.586 183.582 129.334H183.446C181.477 129.334 179.588 130.117 178.195 131.509C176.802 132.902 176.02 134.791 176.02 136.761C176.02 138.73 176.802 140.619 178.195 142.012C179.588 143.405 181.477 144.187 183.446 144.187H210.725C211.854 144.148 212.924 143.671 213.707 142.856C214.49 142.042 214.925 140.955 214.92 139.825Z" fill="#F0F0F0"/>
<path d="M337.44 57.3678C337.443 56.6877 337.286 56.0166 336.981 55.4086C336.676 54.8006 336.233 54.2727 335.687 53.8675C335.141 53.4624 334.507 53.1913 333.837 53.0761C333.167 52.961 332.479 53.005 331.829 53.2047C332.027 51.8935 331.94 50.5549 331.572 49.2808C331.205 48.0067 330.566 46.8272 329.699 45.8236C328.832 44.8199 327.758 44.0159 326.551 43.4666C325.344 42.9174 324.033 42.636 322.706 42.6418C322.138 42.6419 321.57 42.6952 321.011 42.8009C320.103 41.3057 318.734 40.1465 317.109 39.4986C315.484 38.8506 313.693 38.7492 312.005 39.2095C310.317 39.6698 308.826 40.6669 307.755 42.0501C306.684 43.4333 306.093 45.1274 306.07 46.8765H305.935C303.965 46.8765 302.076 47.6589 300.683 49.0517C299.291 50.4445 298.508 52.3335 298.508 54.3032C298.508 56.2728 299.291 58.1618 300.683 59.5546C302.076 60.9474 303.965 61.7298 305.935 61.7298H333.206C334.34 61.6967 335.417 61.2225 336.208 60.408C336.999 59.5935 337.441 58.5029 337.44 57.3678Z" fill="#F0F0F0"/>
<path d="M46.948 249.466V212.046H50.14V194.208H54.8204V132.208H61.5864V124.208L76.0259 117.474V109.402H78.0238V132.208H80.8258V194.208H83.6277V161.604H91.2215V144.808H93.3468V194.208H99.1178V175.407H102.915V170.607H111.719V154.209H116.534V142.611H122.465V125.704H124.574V142.611H130.496V154.209H135.32V170.607H144.124V175.407H147.921V194.208H152.426V170.607H161.23V119.806H164.032V114.202H182.833V119.806H186.829V156.605H202.829V160.211H208.831V163.005H202.829V177.412H219.632V129.406H223.23V119.209H231.031V83.0068H233.236V119.209H238.832V129.406H271.667V126.047H273.665V148.852H276.467V149.25H278.146V172.047H280.948V178.248H286.862V161.453H288.988V201.452H291.352V184.656H293.469V210.852H294.759V192.051H298.564V187.251H307.359V170.853H312.183V159.248H318.105V142.349H320.223V159.248H326.145V170.853H330.961V187.251H339.765V192.051H343.561V210.454H344.246V210.852H346.125V249.466H46.948Z" fill="#F5F5F5"/>
<path d="M253.351 131.65H251.082V133.919H253.351V131.65Z" fill="#FAFAFA"/>
<path d="M253.351 135.447H251.082V137.716H253.351V135.447Z" fill="#FAFAFA"/>
<path d="M253.351 150.651H251.082V152.919H253.351V150.651Z" fill="#FAFAFA"/>
<path d="M253.351 154.448H251.082V156.716H253.351V154.448Z" fill="#FAFAFA"/>
<path d="M253.351 158.253H251.082V160.521H253.351V158.253Z" fill="#FAFAFA"/>
<path d="M253.351 169.651H251.082V171.92H253.351V169.651Z" fill="#FAFAFA"/>
<path d="M253.351 173.448H251.082V175.717H253.351V173.448Z" fill="#FAFAFA"/>
<path d="M249.745 146.854H247.476V149.123H249.745V146.854Z" fill="#FAFAFA"/>
<path d="M249.745 150.651H247.476V152.919H249.745V150.651Z" fill="#FAFAFA"/>
<path d="M249.745 154.448H247.476V156.716H249.745V154.448Z" fill="#FAFAFA"/>
<path d="M249.745 158.253H247.476V160.521H249.745V158.253Z" fill="#FAFAFA"/>
<path d="M249.745 162.05H247.476V164.318H249.745V162.05Z" fill="#FAFAFA"/>
<path d="M249.745 169.651H247.476V171.92H249.745V169.651Z" fill="#FAFAFA"/>
<path d="M249.745 173.448H247.476V175.717H249.745V173.448Z" fill="#FAFAFA"/>
<path d="M246.147 131.65H243.878V133.919H246.147V131.65Z" fill="#FAFAFA"/>
<path d="M246.147 135.447H243.878V137.716H246.147V135.447Z" fill="#FAFAFA"/>
<path d="M246.147 139.252H243.878V141.521H246.147V139.252Z" fill="#FAFAFA"/>
<path d="M246.147 143.049H243.878V145.318H246.147V143.049Z" fill="#FAFAFA"/>
<path d="M246.147 146.854H243.878V149.123H246.147V146.854Z" fill="#FAFAFA"/>
<path d="M246.147 150.651H243.878V152.919H246.147V150.651Z" fill="#FAFAFA"/>
<path d="M246.147 154.448H243.878V156.716H246.147V154.448Z" fill="#FAFAFA"/>
<path d="M246.147 158.253H243.878V160.521H246.147V158.253Z" fill="#FAFAFA"/>
<path d="M246.147 162.05H243.878V164.318H246.147V162.05Z" fill="#FAFAFA"/>
<path d="M246.147 165.854H243.878V168.123H246.147V165.854Z" fill="#FAFAFA"/>
<path d="M246.147 173.448H243.878V175.717H246.147V173.448Z" fill="#FAFAFA"/>
<path d="M242.549 131.65H240.281V133.919H242.549V131.65Z" fill="#FAFAFA"/>
<path d="M242.549 135.447H240.281V137.716H242.549V135.447Z" fill="#FAFAFA"/>
<path d="M242.549 139.252H240.281V141.521H242.549V139.252Z" fill="#FAFAFA"/>
<path d="M242.549 143.049H240.281V145.318H242.549V143.049Z" fill="#FAFAFA"/>
<path d="M242.549 146.854H240.281V149.123H242.549V146.854Z" fill="#FAFAFA"/>
<path d="M242.549 150.651H240.281V152.919H242.549V150.651Z" fill="#FAFAFA"/>
<path d="M242.549 154.448H240.281V156.716H242.549V154.448Z" fill="#FAFAFA"/>
<path d="M242.549 188.652H240.281V190.92H242.549V188.652Z" fill="#FAFAFA"/>
<path d="M238.951 131.65H236.683V133.919H238.951V131.65Z" fill="#FAFAFA"/>
<path d="M238.951 135.447H236.683V137.716H238.951V135.447Z" fill="#FAFAFA"/>
<path d="M238.951 139.252H236.683V141.521H238.951V139.252Z" fill="#FAFAFA"/>
<path d="M238.951 143.049H236.683V145.318H238.951V143.049Z" fill="#FAFAFA"/>
<path d="M238.951 146.854H236.683V149.123H238.951V146.854Z" fill="#FAFAFA"/>
<path d="M238.951 150.651H236.683V152.919H238.951V150.651Z" fill="#FAFAFA"/>
<path d="M238.951 154.448H236.683V156.716H238.951V154.448Z" fill="#FAFAFA"/>
<path d="M238.951 158.253H236.683V160.521H238.951V158.253Z" fill="#FAFAFA"/>
<path d="M238.951 181.05H236.683V183.319H238.951V181.05Z" fill="#FAFAFA"/>
<path d="M238.951 184.855H236.683V187.124H238.951V184.855Z" fill="#FAFAFA"/>
<path d="M238.951 188.652H236.683V190.92H238.951V188.652Z" fill="#FAFAFA"/>
<path d="M238.951 192.449H236.683V194.717H238.951V192.449Z" fill="#FAFAFA"/>
<path d="M238.951 207.652H236.683V209.921H238.951V207.652Z" fill="#FAFAFA"/>
<path d="M235.345 131.65H233.077V133.919H235.345V131.65Z" fill="#FAFAFA"/>
<path d="M235.345 135.447H233.077V137.716H235.345V135.447Z" fill="#FAFAFA"/>
<path d="M235.345 139.252H233.077V141.521H235.345V139.252Z" fill="#FAFAFA"/>
<path d="M235.345 143.049H233.077V145.318H235.345V143.049Z" fill="#FAFAFA"/>
<path d="M235.345 146.854H233.077V149.123H235.345V146.854Z" fill="#FAFAFA"/>
<path d="M235.345 150.651H233.077V152.919H235.345V150.651Z" fill="#FAFAFA"/>
<path d="M235.345 154.448H233.077V156.716H235.345V154.448Z" fill="#FAFAFA"/>
<path d="M235.345 158.253H233.077V160.521H235.345V158.253Z" fill="#FAFAFA"/>
<path d="M235.345 162.05H233.077V164.318H235.345V162.05Z" fill="#FAFAFA"/>
<path d="M235.345 165.854H233.077V168.123H235.345V165.854Z" fill="#FAFAFA"/>
<path d="M235.345 177.253H233.077V179.522H235.345V177.253Z" fill="#FAFAFA"/>
<path d="M235.345 181.05H233.077V183.319H235.345V181.05Z" fill="#FAFAFA"/>
<path d="M235.345 184.855H233.077V187.124H235.345V184.855Z" fill="#FAFAFA"/>
<path d="M235.345 188.652H233.077V190.92H235.345V188.652Z" fill="#FAFAFA"/>
<path d="M235.345 192.449H233.077V194.717H235.345V192.449Z" fill="#FAFAFA"/>
<path d="M235.345 207.652H233.077V209.921H235.345V207.652Z" fill="#FAFAFA"/>
<path d="M231.748 131.65H229.479V133.919H231.748V131.65Z" fill="#FAFAFA"/>
<path d="M231.748 135.447H229.479V137.716H231.748V135.447Z" fill="#FAFAFA"/>
<path d="M231.748 139.252H229.479V141.521H231.748V139.252Z" fill="#FAFAFA"/>
<path d="M231.748 143.049H229.479V145.318H231.748V143.049Z" fill="#FAFAFA"/>
<path d="M231.748 146.854H229.479V149.123H231.748V146.854Z" fill="#FAFAFA"/>
<path d="M231.748 150.651H229.479V152.919H231.748V150.651Z" fill="#FAFAFA"/>
<path d="M231.748 154.448H229.479V156.716H231.748V154.448Z" fill="#FAFAFA"/>
<path d="M231.748 158.253H229.479V160.521H231.748V158.253Z" fill="#FAFAFA"/>
<path d="M231.748 162.05H229.479V164.318H231.748V162.05Z" fill="#FAFAFA"/>
<path d="M231.748 165.854H229.479V168.123H231.748V165.854Z" fill="#FAFAFA"/>
<path d="M231.748 169.651H229.479V171.92H231.748V169.651Z" fill="#FAFAFA"/>
<path d="M231.748 173.448H229.479V175.717H231.748V173.448Z" fill="#FAFAFA"/>
<path d="M231.748 177.253H229.479V179.522H231.748V177.253Z" fill="#FAFAFA"/>
<path d="M231.748 181.05H229.479V183.319H231.748V181.05Z" fill="#FAFAFA"/>
<path d="M231.748 184.855H229.479V187.124H231.748V184.855Z" fill="#FAFAFA"/>
<path d="M231.748 188.652H229.479V190.92H231.748V188.652Z" fill="#FAFAFA"/>
<path d="M231.748 192.449H229.479V194.717H231.748V192.449Z" fill="#FAFAFA"/>
<path d="M231.748 196.254H229.479V198.523H231.748V196.254Z" fill="#FAFAFA"/>
<path d="M228.149 131.65H225.881V133.919H228.149V131.65Z" fill="#FAFAFA"/>
<path d="M228.149 135.447H225.881V137.716H228.149V135.447Z" fill="#FAFAFA"/>
<path d="M228.149 139.252H225.881V141.521H228.149V139.252Z" fill="#FAFAFA"/>
<path d="M228.149 143.049H225.881V145.318H228.149V143.049Z" fill="#FAFAFA"/>
<path d="M228.149 146.854H225.881V149.123H228.149V146.854Z" fill="#FAFAFA"/>
<path d="M228.149 150.651H225.881V152.919H228.149V150.651Z" fill="#FAFAFA"/>
<path d="M228.149 154.448H225.881V156.716H228.149V154.448Z" fill="#FAFAFA"/>
<path d="M228.149 158.253H225.881V160.521H228.149V158.253Z" fill="#FAFAFA"/>
<path d="M228.149 162.05H225.881V164.318H228.149V162.05Z" fill="#FAFAFA"/>
<path d="M228.149 165.854H225.881V168.123H228.149V165.854Z" fill="#FAFAFA"/>
<path d="M228.149 177.253H225.881V179.522H228.149V177.253Z" fill="#FAFAFA"/>
<path d="M228.149 181.05H225.881V183.319H228.149V181.05Z" fill="#FAFAFA"/>
<path d="M228.149 184.855H225.881V187.124H228.149V184.855Z" fill="#FAFAFA"/>
<path d="M228.149 188.652H225.881V190.92H228.149V188.652Z" fill="#FAFAFA"/>
<path d="M224.544 131.65H222.275V133.919H224.544V131.65Z" fill="#FAFAFA"/>
<path d="M224.544 135.447H222.275V137.716H224.544V135.447Z" fill="#FAFAFA"/>
<path d="M224.544 139.252H222.275V141.521H224.544V139.252Z" fill="#FAFAFA"/>
<path d="M224.544 143.049H222.275V145.318H224.544V143.049Z" fill="#FAFAFA"/>
<path d="M224.544 146.854H222.275V149.123H224.544V146.854Z" fill="#FAFAFA"/>
<path d="M224.544 150.651H222.275V152.919H224.544V150.651Z" fill="#FAFAFA"/>
<path d="M224.544 154.448H222.275V156.716H224.544V154.448Z" fill="#FAFAFA"/>
<path d="M224.544 158.253H222.275V160.521H224.544V158.253Z" fill="#FAFAFA"/>
<path d="M224.544 162.05H222.275V164.318H224.544V162.05Z" fill="#FAFAFA"/>
<path d="M224.544 165.854H222.275V168.123H224.544V165.854Z" fill="#FAFAFA"/>
<path d="M224.544 177.253H222.275V179.522H224.544V177.253Z" fill="#FAFAFA"/>
<path d="M224.544 181.05H222.275V183.319H224.544V181.05Z" fill="#FAFAFA"/>
<path d="M224.544 184.855H222.275V187.124H224.544V184.855Z" fill="#FAFAFA"/>
<path d="M184.011 121.78H181.743V124.049H184.011V121.78Z" fill="#FAFAFA"/>
<path d="M184.011 125.585H181.743V127.854H184.011V125.585Z" fill="#FAFAFA"/>
<path d="M184.011 129.382H181.743V131.65H184.011V129.382Z" fill="#FAFAFA"/>
<path d="M184.011 133.179H181.743V135.447H184.011V133.179Z" fill="#FAFAFA"/>
<path d="M184.011 136.984H181.743V139.252H184.011V136.984Z" fill="#FAFAFA"/>
<path d="M184.011 140.781H181.743V143.049H184.011V140.781Z" fill="#FAFAFA"/>
<path d="M184.011 144.585H181.743V146.854H184.011V144.585Z" fill="#FAFAFA"/>
<path d="M184.011 148.382H181.743V150.651H184.011V148.382Z" fill="#FAFAFA"/>
<path d="M184.011 159.781H181.743V162.05H184.011V159.781Z" fill="#FAFAFA"/>
<path d="M184.011 163.586H181.743V165.855H184.011V163.586Z" fill="#FAFAFA"/>
<path d="M180.413 121.78H178.145V124.049H180.413V121.78Z" fill="#FAFAFA"/>
<path d="M180.413 125.585H178.145V127.854H180.413V125.585Z" fill="#FAFAFA"/>
<path d="M180.413 129.382H178.145V131.65H180.413V129.382Z" fill="#FAFAFA"/>
<path d="M180.413 133.179H178.145V135.447H180.413V133.179Z" fill="#FAFAFA"/>
<path d="M180.413 136.984H178.145V139.252H180.413V136.984Z" fill="#FAFAFA"/>
<path d="M180.413 140.781H178.145V143.049H180.413V140.781Z" fill="#FAFAFA"/>
<path d="M180.413 144.585H178.145V146.854H180.413V144.585Z" fill="#FAFAFA"/>
<path d="M180.413 148.382H178.145V150.651H180.413V148.382Z" fill="#FAFAFA"/>
<path d="M180.413 163.586H178.145V165.855H180.413V163.586Z" fill="#FAFAFA"/>
<path d="M176.808 121.78H174.539V124.049H176.808V121.78Z" fill="#FAFAFA"/>
<path d="M176.808 125.585H174.539V127.854H176.808V125.585Z" fill="#FAFAFA"/>
<path d="M176.808 129.382H174.539V131.65H176.808V129.382Z" fill="#FAFAFA"/>
<path d="M176.808 133.179H174.539V135.447H176.808V133.179Z" fill="#FAFAFA"/>
<path d="M176.808 136.984H174.539V139.252H176.808V136.984Z" fill="#FAFAFA"/>
<path d="M176.808 140.781H174.539V143.049H176.808V140.781Z" fill="#FAFAFA"/>
<path d="M176.808 144.585H174.539V146.854H176.808V144.585Z" fill="#FAFAFA"/>
<path d="M176.808 148.382H174.539V150.651H176.808V148.382Z" fill="#FAFAFA"/>
<path d="M173.21 121.78H170.941V124.049H173.21V121.78Z" fill="#FAFAFA"/>
<path d="M173.21 125.585H170.941V127.854H173.21V125.585Z" fill="#FAFAFA"/>
<path d="M173.21 129.382H170.941V131.65H173.21V129.382Z" fill="#FAFAFA"/>
<path d="M173.21 133.179H170.941V135.447H173.21V133.179Z" fill="#FAFAFA"/>
<path d="M173.21 136.984H170.941V139.252H173.21V136.984Z" fill="#FAFAFA"/>
<path d="M173.21 140.781H170.941V143.049H173.21V140.781Z" fill="#FAFAFA"/>
<path d="M173.21 148.382H170.941V150.651H173.21V148.382Z" fill="#FAFAFA"/>
<path d="M173.21 152.187H170.941V154.456H173.21V152.187Z" fill="#FAFAFA"/>
<path d="M173.21 163.586H170.941V165.855H173.21V163.586Z" fill="#FAFAFA"/>
<path d="M173.21 167.383H170.941V169.651H173.21V167.383Z" fill="#FAFAFA"/>
<path d="M173.21 171.188H170.941V173.456H173.21V171.188Z" fill="#FAFAFA"/>
<path d="M173.21 174.985H170.941V177.253H173.21V174.985Z" fill="#FAFAFA"/>
<path d="M173.21 178.782H170.941V181.05H173.21V178.782Z" fill="#FAFAFA"/>
<path d="M173.21 182.586H170.941V184.855H173.21V182.586Z" fill="#FAFAFA"/>
<path d="M173.21 186.383H170.941V188.652H173.21V186.383Z" fill="#FAFAFA"/>
<path d="M169.612 121.78H167.343V124.049H169.612V121.78Z" fill="#FAFAFA"/>
<path d="M169.612 125.585H167.343V127.854H169.612V125.585Z" fill="#FAFAFA"/>
<path d="M169.612 129.382H167.343V131.65H169.612V129.382Z" fill="#FAFAFA"/>
<path d="M169.612 133.179H167.343V135.447H169.612V133.179Z" fill="#FAFAFA"/>
<path d="M169.612 136.984H167.343V139.252H169.612V136.984Z" fill="#FAFAFA"/>
<path d="M169.612 140.781H167.343V143.049H169.612V140.781Z" fill="#FAFAFA"/>
<path d="M169.612 152.187H167.343V154.456H169.612V152.187Z" fill="#FAFAFA"/>
<path d="M169.612 155.984H167.343V158.253H169.612V155.984Z" fill="#FAFAFA"/>
<path d="M169.612 159.781H167.343V162.05H169.612V159.781Z" fill="#FAFAFA"/>
<path d="M169.612 163.586H167.343V165.855H169.612V163.586Z" fill="#FAFAFA"/>
<path d="M169.612 167.383H167.343V169.651H169.612V167.383Z" fill="#FAFAFA"/>
<path d="M169.612 171.188H167.343V173.456H169.612V171.188Z" fill="#FAFAFA"/>
<path d="M169.612 174.985H167.343V177.253H169.612V174.985Z" fill="#FAFAFA"/>
<path d="M169.612 178.782H167.343V181.05H169.612V178.782Z" fill="#FAFAFA"/>
<path d="M169.612 182.586H167.343V184.855H169.612V182.586Z" fill="#FAFAFA"/>
<path d="M169.612 186.383H167.343V188.652H169.612V186.383Z" fill="#FAFAFA"/>
<path d="M169.612 190.188H167.343V192.457H169.612V190.188Z" fill="#FAFAFA"/>
<path d="M169.612 197.79H167.343V200.059H169.612V197.79Z" fill="#FAFAFA"/>
<path d="M166.006 121.78H163.737V124.049H166.006V121.78Z" fill="#FAFAFA"/>
<path d="M166.006 125.585H163.737V127.854H166.006V125.585Z" fill="#FAFAFA"/>
<path d="M166.006 129.382H163.737V131.65H166.006V129.382Z" fill="#FAFAFA"/>
<path d="M166.006 133.179H163.737V135.447H166.006V133.179Z" fill="#FAFAFA"/>
<path d="M166.006 136.984H163.737V139.252H166.006V136.984Z" fill="#FAFAFA"/>
<path d="M166.006 140.781H163.737V143.049H166.006V140.781Z" fill="#FAFAFA"/>
<path d="M166.006 152.187H163.737V154.456H166.006V152.187Z" fill="#FAFAFA"/>
<path d="M166.006 155.984H163.737V158.253H166.006V155.984Z" fill="#FAFAFA"/>
<path d="M166.006 159.781H163.737V162.05H166.006V159.781Z" fill="#FAFAFA"/>
<path d="M166.006 163.586H163.737V165.855H166.006V163.586Z" fill="#FAFAFA"/>
<path d="M166.006 174.985H163.737V177.253H166.006V174.985Z" fill="#FAFAFA"/>
<path d="M166.006 178.782H163.737V181.05H166.006V178.782Z" fill="#FAFAFA"/>
<path d="M166.006 182.586H163.737V184.855H166.006V182.586Z" fill="#FAFAFA"/>
<path d="M166.006 186.383H163.737V188.652H166.006V186.383Z" fill="#FAFAFA"/>
<path d="M166.006 190.188H163.737V192.457H166.006V190.188Z" fill="#FAFAFA"/>
<path d="M166.006 197.79H163.737V200.059H166.006V197.79Z" fill="#FAFAFA"/>
<path d="M166.006 201.587H163.737V203.856H166.006V201.587Z" fill="#FAFAFA"/>
<path d="M133.338 157.115H131.069V159.383H133.338V157.115Z" fill="#FAFAFA"/>
<path d="M133.338 160.919H131.069V163.188H133.338V160.919Z" fill="#FAFAFA"/>
<path d="M133.338 164.716H131.069V166.985H133.338V164.716Z" fill="#FAFAFA"/>
<path d="M133.338 168.521H131.069V170.79H133.338V168.521Z" fill="#FAFAFA"/>
<path d="M133.338 172.318H131.069V174.587H133.338V172.318Z" fill="#FAFAFA"/>
<path d="M133.338 176.115H131.069V178.384H133.338V176.115Z" fill="#FAFAFA"/>
<path d="M133.338 179.92H131.069V182.189H133.338V179.92Z" fill="#FAFAFA"/>
<path d="M133.338 191.319H131.069V193.587H133.338V191.319Z" fill="#FAFAFA"/>
<path d="M133.338 195.124H131.069V197.392H133.338V195.124Z" fill="#FAFAFA"/>
<path d="M133.338 198.92H131.069V201.189H133.338V198.92Z" fill="#FAFAFA"/>
<path d="M129.74 157.115H127.471V159.383H129.74V157.115Z" fill="#FAFAFA"/>
<path d="M129.74 160.919H127.471V163.188H129.74V160.919Z" fill="#FAFAFA"/>
<path d="M129.74 164.716H127.471V166.985H129.74V164.716Z" fill="#FAFAFA"/>
<path d="M129.74 168.521H127.471V170.79H129.74V168.521Z" fill="#FAFAFA"/>
<path d="M129.74 172.318H127.471V174.587H129.74V172.318Z" fill="#FAFAFA"/>
<path d="M129.74 176.115H127.471V178.384H129.74V176.115Z" fill="#FAFAFA"/>
<path d="M129.74 179.92H127.471V182.189H129.74V179.92Z" fill="#FAFAFA"/>
<path d="M126.142 157.115H123.874V159.383H126.142V157.115Z" fill="#FAFAFA"/>
<path d="M126.142 160.919H123.874V163.188H126.142V160.919Z" fill="#FAFAFA"/>
<path d="M126.142 164.716H123.874V166.985H126.142V164.716Z" fill="#FAFAFA"/>
<path d="M126.142 168.521H123.874V170.79H126.142V168.521Z" fill="#FAFAFA"/>
<path d="M126.142 172.318H123.874V174.587H126.142V172.318Z" fill="#FAFAFA"/>
<path d="M126.142 176.115H123.874V178.384H126.142V176.115Z" fill="#FAFAFA"/>
<path d="M126.142 179.92H123.874V182.189H126.142V179.92Z" fill="#FAFAFA"/>
<path d="M122.536 157.115H120.268V159.383H122.536V157.115Z" fill="#FAFAFA"/>
<path d="M122.536 160.919H120.268V163.188H122.536V160.919Z" fill="#FAFAFA"/>
<path d="M122.536 164.716H120.268V166.985H122.536V164.716Z" fill="#FAFAFA"/>
<path d="M122.536 168.521H120.268V170.79H122.536V168.521Z" fill="#FAFAFA"/>
<path d="M122.536 172.318H120.268V174.587H122.536V172.318Z" fill="#FAFAFA"/>
<path d="M122.536 176.115H120.268V178.384H122.536V176.115Z" fill="#FAFAFA"/>
<path d="M122.536 179.92H120.268V182.189H122.536V179.92Z" fill="#FAFAFA"/>
<path d="M122.536 183.717H120.268V185.985H122.536V183.717Z" fill="#FAFAFA"/>
<path d="M122.536 187.522H120.268V189.79H122.536V187.522Z" fill="#FAFAFA"/>
<path d="M122.536 191.319H120.268V193.587H122.536V191.319Z" fill="#FAFAFA"/>
<path d="M122.536 195.124H120.268V197.392H122.536V195.124Z" fill="#FAFAFA"/>
<path d="M118.938 157.115H116.67V159.383H118.938V157.115Z" fill="#FAFAFA"/>
<path d="M118.938 160.919H116.67V163.188H118.938V160.919Z" fill="#FAFAFA"/>
<path d="M118.938 164.716H116.67V166.985H118.938V164.716Z" fill="#FAFAFA"/>
<path d="M118.938 168.521H116.67V170.79H118.938V168.521Z" fill="#FAFAFA"/>
<path d="M118.938 172.318H116.67V174.587H118.938V172.318Z" fill="#FAFAFA"/>
<path d="M118.938 176.115H116.67V178.384H118.938V176.115Z" fill="#FAFAFA"/>
<path d="M118.938 179.92H116.67V182.189H118.938V179.92Z" fill="#FAFAFA"/>
<path d="M118.938 183.717H116.67V185.985H118.938V183.717Z" fill="#FAFAFA"/>
<path d="M118.938 187.522H116.67V189.79H118.938V187.522Z" fill="#FAFAFA"/>
<path d="M118.938 191.319H116.67V193.587H118.938V191.319Z" fill="#FAFAFA"/>
<path d="M118.938 195.124H116.67V197.392H118.938V195.124Z" fill="#FAFAFA"/>
<path d="M118.938 198.92H116.67V201.189H118.938V198.92Z" fill="#FAFAFA"/>
<path d="M118.938 210.319H116.67V212.588H118.938V210.319Z" fill="#FAFAFA"/>
<path d="M118.938 214.124H116.67V216.393H118.938V214.124Z" fill="#FAFAFA"/>
<path d="M115.34 157.115H113.072V159.383H115.34V157.115Z" fill="#FAFAFA"/>
<path d="M115.34 160.919H113.072V163.188H115.34V160.919Z" fill="#FAFAFA"/>
<path d="M115.34 164.716H113.072V166.985H115.34V164.716Z" fill="#FAFAFA"/>
<path d="M115.34 176.115H113.072V178.384H115.34V176.115Z" fill="#FAFAFA"/>
<path d="M115.34 179.92H113.072V182.189H115.34V179.92Z" fill="#FAFAFA"/>
<path d="M115.34 183.717H113.072V185.985H115.34V183.717Z" fill="#FAFAFA"/>
<path d="M115.34 187.522H113.072V189.79H115.34V187.522Z" fill="#FAFAFA"/>
<path d="M115.34 191.319H113.072V193.587H115.34V191.319Z" fill="#FAFAFA"/>
<path d="M115.34 195.124H113.072V197.392H115.34V195.124Z" fill="#FAFAFA"/>
<path d="M115.34 198.92H113.072V201.189H115.34V198.92Z" fill="#FAFAFA"/>
<path d="M115.34 210.319H113.072V212.588H115.34V210.319Z" fill="#FAFAFA"/>
<path d="M115.34 214.124H113.072V216.393H115.34V214.124Z" fill="#FAFAFA"/>
<path d="M115.34 217.921H113.072V220.19H115.34V217.921Z" fill="#FAFAFA"/>
<path d="M77.6021 134.317H75.3335V136.586H77.6021V134.317Z" fill="#FAFAFA"/>
<path d="M77.6021 138.114H75.3335V140.383H77.6021V138.114Z" fill="#FAFAFA"/>
<path d="M77.6021 141.919H75.3335V144.187H77.6021V141.919Z" fill="#FAFAFA"/>
<path d="M77.6021 145.716H75.3335V147.984H77.6021V145.716Z" fill="#FAFAFA"/>
<path d="M77.6021 149.521H75.3335V151.789H77.6021V149.521Z" fill="#FAFAFA"/>
<path d="M77.6021 153.318H75.3335V155.586H77.6021V153.318Z" fill="#FAFAFA"/>
<path d="M77.6021 157.115H75.3335V159.383H77.6021V157.115Z" fill="#FAFAFA"/>
<path d="M77.6021 160.919H75.3335V163.188H77.6021V160.919Z" fill="#FAFAFA"/>
<path d="M77.6021 164.716H75.3335V166.985H77.6021V164.716Z" fill="#FAFAFA"/>
<path d="M77.6021 168.521H75.3335V170.79H77.6021V168.521Z" fill="#FAFAFA"/>
<path d="M77.6021 172.318H75.3335V174.587H77.6021V172.318Z" fill="#FAFAFA"/>
<path d="M77.6021 176.115H75.3335V178.384H77.6021V176.115Z" fill="#FAFAFA"/>
<path d="M77.6021 179.92H75.3335V182.189H77.6021V179.92Z" fill="#FAFAFA"/>
<path d="M77.6021 183.717H75.3335V185.985H77.6021V183.717Z" fill="#FAFAFA"/>
<path d="M77.6021 187.522H75.3335V189.79H77.6021V187.522Z" fill="#FAFAFA"/>
<path d="M77.6021 191.319H75.3335V193.587H77.6021V191.319Z" fill="#FAFAFA"/>
<path d="M77.6021 195.124H75.3335V197.392H77.6021V195.124Z" fill="#FAFAFA"/>
<path d="M77.6021 198.92H75.3335V201.189H77.6021V198.92Z" fill="#FAFAFA"/>
<path d="M77.6021 202.717H75.3335V204.986H77.6021V202.717Z" fill="#FAFAFA"/>
<path d="M77.6021 206.522H75.3335V208.791H77.6021V206.522Z" fill="#FAFAFA"/>
<path d="M77.6021 210.319H75.3335V212.588H77.6021V210.319Z" fill="#FAFAFA"/>
<path d="M77.6021 214.124H75.3335V216.393H77.6021V214.124Z" fill="#FAFAFA"/>
<path d="M77.6021 217.921H75.3335V220.19H77.6021V217.921Z" fill="#FAFAFA"/>
<path d="M74.004 134.317H71.7354V136.586H74.004V134.317Z" fill="#FAFAFA"/>
<path d="M74.004 138.114H71.7354V140.383H74.004V138.114Z" fill="#FAFAFA"/>
<path d="M74.004 141.919H71.7354V144.187H74.004V141.919Z" fill="#FAFAFA"/>
<path d="M74.004 145.716H71.7354V147.984H74.004V145.716Z" fill="#FAFAFA"/>
<path d="M74.004 149.521H71.7354V151.789H74.004V149.521Z" fill="#FAFAFA"/>
<path d="M74.004 153.318H71.7354V155.586H74.004V153.318Z" fill="#FAFAFA"/>
<path d="M74.004 157.115H71.7354V159.383H74.004V157.115Z" fill="#FAFAFA"/>
<path d="M74.004 160.919H71.7354V163.188H74.004V160.919Z" fill="#FAFAFA"/>
<path d="M74.004 164.716H71.7354V166.985H74.004V164.716Z" fill="#FAFAFA"/>
<path d="M74.004 168.521H71.7354V170.79H74.004V168.521Z" fill="#FAFAFA"/>
<path d="M74.004 172.318H71.7354V174.587H74.004V172.318Z" fill="#FAFAFA"/>
<path d="M74.004 176.115H71.7354V178.384H74.004V176.115Z" fill="#FAFAFA"/>
<path d="M74.004 179.92H71.7354V182.189H74.004V179.92Z" fill="#FAFAFA"/>
<path d="M74.004 183.717H71.7354V185.985H74.004V183.717Z" fill="#FAFAFA"/>
<path d="M74.004 187.522H71.7354V189.79H74.004V187.522Z" fill="#FAFAFA"/>
<path d="M74.004 191.319H71.7354V193.587H74.004V191.319Z" fill="#FAFAFA"/>
<path d="M74.004 195.124H71.7354V197.392H74.004V195.124Z" fill="#FAFAFA"/>
<path d="M74.004 198.92H71.7354V201.189H74.004V198.92Z" fill="#FAFAFA"/>
<path d="M74.004 202.717H71.7354V204.986H74.004V202.717Z" fill="#FAFAFA"/>
<path d="M70.406 134.317H68.1375V136.586H70.406V134.317Z" fill="#FAFAFA"/>
<path d="M70.406 138.114H68.1375V140.383H70.406V138.114Z" fill="#FAFAFA"/>
<path d="M70.406 141.919H68.1375V144.187H70.406V141.919Z" fill="#FAFAFA"/>
<path d="M70.406 145.716H68.1375V147.984H70.406V145.716Z" fill="#FAFAFA"/>
<path d="M70.406 149.521H68.1375V151.789H70.406V149.521Z" fill="#FAFAFA"/>
<path d="M70.406 153.318H68.1375V155.586H70.406V153.318Z" fill="#FAFAFA"/>
<path d="M70.406 157.115H68.1375V159.383H70.406V157.115Z" fill="#FAFAFA"/>
<path d="M70.406 160.919H68.1375V163.188H70.406V160.919Z" fill="#FAFAFA"/>
<path d="M70.406 164.716H68.1375V166.985H70.406V164.716Z" fill="#FAFAFA"/>
<path d="M70.406 168.521H68.1375V170.79H70.406V168.521Z" fill="#FAFAFA"/>
<path d="M70.406 172.318H68.1375V174.587H70.406V172.318Z" fill="#FAFAFA"/>
<path d="M70.406 176.115H68.1375V178.384H70.406V176.115Z" fill="#FAFAFA"/>
<path d="M70.406 179.92H68.1375V182.189H70.406V179.92Z" fill="#FAFAFA"/>
<path d="M70.406 183.717H68.1375V185.985H70.406V183.717Z" fill="#FAFAFA"/>
<path d="M70.406 187.522H68.1375V189.79H70.406V187.522Z" fill="#FAFAFA"/>
<path d="M70.406 191.319H68.1375V193.587H70.406V191.319Z" fill="#FAFAFA"/>
<path d="M70.406 195.124H68.1375V197.392H70.406V195.124Z" fill="#FAFAFA"/>
<path d="M70.406 198.92H68.1375V201.189H70.406V198.92Z" fill="#FAFAFA"/>
<path d="M70.406 202.717H68.1375V204.986H70.406V202.717Z" fill="#FAFAFA"/>
<path d="M66.8003 134.317H64.5317V136.586H66.8003V134.317Z" fill="#FAFAFA"/>
<path d="M66.8003 138.114H64.5317V140.383H66.8003V138.114Z" fill="#FAFAFA"/>
<path d="M66.8003 141.919H64.5317V144.187H66.8003V141.919Z" fill="#FAFAFA"/>
<path d="M66.8003 145.716H64.5317V147.984H66.8003V145.716Z" fill="#FAFAFA"/>
<path d="M66.8003 149.521H64.5317V151.789H66.8003V149.521Z" fill="#FAFAFA"/>
<path d="M66.8003 153.318H64.5317V155.586H66.8003V153.318Z" fill="#FAFAFA"/>
<path d="M66.8003 157.115H64.5317V159.383H66.8003V157.115Z" fill="#FAFAFA"/>
<path d="M66.8003 160.919H64.5317V163.188H66.8003V160.919Z" fill="#FAFAFA"/>
<path d="M66.8003 164.716H64.5317V166.985H66.8003V164.716Z" fill="#FAFAFA"/>
<path d="M66.8003 168.521H64.5317V170.79H66.8003V168.521Z" fill="#FAFAFA"/>
<path d="M66.8003 172.318H64.5317V174.587H66.8003V172.318Z" fill="#FAFAFA"/>
<path d="M66.8003 176.115H64.5317V178.384H66.8003V176.115Z" fill="#FAFAFA"/>
<path d="M66.8003 179.92H64.5317V182.189H66.8003V179.92Z" fill="#FAFAFA"/>
<path d="M66.8003 183.717H64.5317V185.985H66.8003V183.717Z" fill="#FAFAFA"/>
<path d="M66.8003 187.522H64.5317V189.79H66.8003V187.522Z" fill="#FAFAFA"/>
<path d="M63.2024 134.317H60.9338V136.586H63.2024V134.317Z" fill="#FAFAFA"/>
<path d="M63.2024 138.114H60.9338V140.383H63.2024V138.114Z" fill="#FAFAFA"/>
<path d="M63.2024 141.919H60.9338V144.187H63.2024V141.919Z" fill="#FAFAFA"/>
<path d="M63.2024 145.716H60.9338V147.984H63.2024V145.716Z" fill="#FAFAFA"/>
<path d="M63.2024 149.521H60.9338V151.789H63.2024V149.521Z" fill="#FAFAFA"/>
<path d="M63.2024 153.318H60.9338V155.586H63.2024V153.318Z" fill="#FAFAFA"/>
<path d="M63.2024 157.115H60.9338V159.383H63.2024V157.115Z" fill="#FAFAFA"/>
<path d="M63.2024 160.919H60.9338V163.188H63.2024V160.919Z" fill="#FAFAFA"/>
<path d="M63.2024 164.716H60.9338V166.985H63.2024V164.716Z" fill="#FAFAFA"/>
<path d="M63.2024 168.521H60.9338V170.79H63.2024V168.521Z" fill="#FAFAFA"/>
<path d="M63.2024 172.318H60.9338V174.587H63.2024V172.318Z" fill="#FAFAFA"/>
<path d="M63.2024 176.115H60.9338V178.384H63.2024V176.115Z" fill="#FAFAFA"/>
<path d="M63.2024 179.92H60.9338V182.189H63.2024V179.92Z" fill="#FAFAFA"/>
<path d="M59.6045 134.317H57.3359V136.586H59.6045V134.317Z" fill="#FAFAFA"/>
<path d="M59.6045 138.114H57.3359V140.383H59.6045V138.114Z" fill="#FAFAFA"/>
<path d="M59.6045 141.919H57.3359V144.187H59.6045V141.919Z" fill="#FAFAFA"/>
<path d="M59.6045 145.716H57.3359V147.984H59.6045V145.716Z" fill="#FAFAFA"/>
<path d="M59.6045 149.521H57.3359V151.789H59.6045V149.521Z" fill="#FAFAFA"/>
<path d="M59.6045 153.318H57.3359V155.586H59.6045V153.318Z" fill="#FAFAFA"/>
<path d="M59.6045 157.115H57.3359V159.383H59.6045V157.115Z" fill="#FAFAFA"/>
<path d="M59.6045 160.919H57.3359V163.188H59.6045V160.919Z" fill="#FAFAFA"/>
<path d="M59.6045 164.716H57.3359V166.985H59.6045V164.716Z" fill="#FAFAFA"/>
<path d="M59.6045 168.521H57.3359V170.79H59.6045V168.521Z" fill="#FAFAFA"/>
<path d="M59.6045 172.318H57.3359V174.587H59.6045V172.318Z" fill="#FAFAFA"/>
<path d="M59.6045 176.115H57.3359V178.384H59.6045V176.115Z" fill="#FAFAFA"/>
<path d="M324.155 162.05H321.886V164.318H324.155V162.05Z" fill="#FAFAFA"/>
<path d="M324.155 165.854H321.886V168.123H324.155V165.854Z" fill="#FAFAFA"/>
<path d="M324.155 169.651H321.886V171.92H324.155V169.651Z" fill="#FAFAFA"/>
<path d="M324.155 173.448H321.886V175.717H324.155V173.448Z" fill="#FAFAFA"/>
<path d="M324.155 177.253H321.886V179.522H324.155V177.253Z" fill="#FAFAFA"/>
<path d="M324.155 181.05H321.886V183.319H324.155V181.05Z" fill="#FAFAFA"/>
<path d="M324.155 184.855H321.886V187.124H324.155V184.855Z" fill="#FAFAFA"/>
<path d="M324.155 188.652H321.886V190.92H324.155V188.652Z" fill="#FAFAFA"/>
<path d="M324.155 192.449H321.886V194.717H324.155V192.449Z" fill="#FAFAFA"/>
<path d="M324.155 196.254H321.886V198.523H324.155V196.254Z" fill="#FAFAFA"/>
<path d="M324.155 200.051H321.886V202.319H324.155V200.051Z" fill="#FAFAFA"/>
<path d="M324.155 203.856H321.886V206.124H324.155V203.856Z" fill="#FAFAFA"/>
<path d="M324.155 207.652H321.886V209.921H324.155V207.652Z" fill="#FAFAFA"/>
<path d="M324.155 211.457H321.886V213.726H324.155V211.457Z" fill="#FAFAFA"/>
<path d="M324.155 215.254H321.886V217.523H324.155V215.254Z" fill="#FAFAFA"/>
<path d="M324.155 219.051H321.886V221.32H324.155V219.051Z" fill="#FAFAFA"/>
<path d="M324.155 222.856H321.886V225.125H324.155V222.856Z" fill="#FAFAFA"/>
<path d="M324.155 226.653H321.886V228.922H324.155V226.653Z" fill="#FAFAFA"/>
<path d="M324.155 230.458H321.886V232.727H324.155V230.458Z" fill="#FAFAFA"/>
<path d="M324.155 234.255H321.886V236.523H324.155V234.255Z" fill="#FAFAFA"/>
<path d="M320.549 162.05H318.281V164.318H320.549V162.05Z" fill="#FAFAFA"/>
<path d="M320.549 165.854H318.281V168.123H320.549V165.854Z" fill="#FAFAFA"/>
<path d="M320.549 169.651H318.281V171.92H320.549V169.651Z" fill="#FAFAFA"/>
<path d="M320.549 173.448H318.281V175.717H320.549V173.448Z" fill="#FAFAFA"/>
<path d="M320.549 177.253H318.281V179.522H320.549V177.253Z" fill="#FAFAFA"/>
<path d="M320.549 181.05H318.281V183.319H320.549V181.05Z" fill="#FAFAFA"/>
<path d="M320.549 184.855H318.281V187.124H320.549V184.855Z" fill="#FAFAFA"/>
<path d="M320.549 188.652H318.281V190.92H320.549V188.652Z" fill="#FAFAFA"/>
<path d="M320.549 192.449H318.281V194.717H320.549V192.449Z" fill="#FAFAFA"/>
<path d="M320.549 196.254H318.281V198.523H320.549V196.254Z" fill="#FAFAFA"/>
<path d="M320.549 200.051H318.281V202.319H320.549V200.051Z" fill="#FAFAFA"/>
<path d="M320.549 203.856H318.281V206.124H320.549V203.856Z" fill="#FAFAFA"/>
<path d="M320.549 207.652H318.281V209.921H320.549V207.652Z" fill="#FAFAFA"/>
<path d="M320.549 211.457H318.281V213.726H320.549V211.457Z" fill="#FAFAFA"/>
<path d="M320.549 215.254H318.281V217.523H320.549V215.254Z" fill="#FAFAFA"/>
<path d="M320.549 219.051H318.281V221.32H320.549V219.051Z" fill="#FAFAFA"/>
<path d="M320.549 222.856H318.281V225.125H320.549V222.856Z" fill="#FAFAFA"/>
<path d="M320.549 226.653H318.281V228.922H320.549V226.653Z" fill="#FAFAFA"/>
<path d="M316.951 162.05H314.683V164.318H316.951V162.05Z" fill="#FAFAFA"/>
<path d="M316.951 165.854H314.683V168.123H316.951V165.854Z" fill="#FAFAFA"/>
<path d="M316.951 169.651H314.683V171.92H316.951V169.651Z" fill="#FAFAFA"/>
<path d="M316.951 173.448H314.683V175.717H316.951V173.448Z" fill="#FAFAFA"/>
<path d="M316.951 177.253H314.683V179.522H316.951V177.253Z" fill="#FAFAFA"/>
<path d="M316.951 181.05H314.683V183.319H316.951V181.05Z" fill="#FAFAFA"/>
<path d="M316.951 184.855H314.683V187.124H316.951V184.855Z" fill="#FAFAFA"/>
<path d="M316.951 188.652H314.683V190.92H316.951V188.652Z" fill="#FAFAFA"/>
<path d="M316.951 192.449H314.683V194.717H316.951V192.449Z" fill="#FAFAFA"/>
<path d="M316.951 196.254H314.683V198.523H316.951V196.254Z" fill="#FAFAFA"/>
<path d="M316.951 200.051H314.683V202.319H316.951V200.051Z" fill="#FAFAFA"/>
<path d="M316.951 203.856H314.683V206.124H316.951V203.856Z" fill="#FAFAFA"/>
<path d="M316.951 207.652H314.683V209.921H316.951V207.652Z" fill="#FAFAFA"/>
<path d="M316.951 211.457H314.683V213.726H316.951V211.457Z" fill="#FAFAFA"/>
<path d="M316.951 215.254H314.683V217.523H316.951V215.254Z" fill="#FAFAFA"/>
<path d="M316.951 219.051H314.683V221.32H316.951V219.051Z" fill="#FAFAFA"/>
<path d="M316.951 222.856H314.683V225.125H316.951V222.856Z" fill="#FAFAFA"/>
<path d="M316.951 226.653H314.683V228.922H316.951V226.653Z" fill="#FAFAFA"/>
<path d="M337.624 189.782H335.355V192.051H337.624V189.782Z" fill="#FAFAFA"/>
<path d="M337.624 193.587H335.355V195.856H337.624V193.587Z" fill="#FAFAFA"/>
<path d="M337.624 197.384H335.355V199.653H337.624V197.384Z" fill="#FAFAFA"/>
<path d="M337.624 201.189H335.355V203.458H337.624V201.189Z" fill="#FAFAFA"/>
<path d="M337.624 204.986H335.355V207.254H337.624V204.986Z" fill="#FAFAFA"/>
<path d="M337.624 208.791H335.355V211.059H337.624V208.791Z" fill="#FAFAFA"/>
<path d="M337.624 212.588H335.355V214.856H337.624V212.588Z" fill="#FAFAFA"/>
<path d="M337.624 216.385H335.355V218.653H337.624V216.385Z" fill="#FAFAFA"/>
<path d="M337.624 220.189H335.355V222.458H337.624V220.189Z" fill="#FAFAFA"/>
<path d="M337.624 223.986H335.355V226.255H337.624V223.986Z" fill="#FAFAFA"/>
<path d="M337.624 227.792H335.355V230.06H337.624V227.792Z" fill="#FAFAFA"/>
<path d="M337.624 231.588H335.355V233.857H337.624V231.588Z" fill="#FAFAFA"/>
<path d="M337.624 235.385H335.355V237.654H337.624V235.385Z" fill="#FAFAFA"/>
<path d="M334.017 189.782H331.749V192.051H334.017V189.782Z" fill="#FAFAFA"/>
<path d="M334.017 193.587H331.749V195.856H334.017V193.587Z" fill="#FAFAFA"/>
<path d="M334.017 197.384H331.749V199.653H334.017V197.384Z" fill="#FAFAFA"/>
<path d="M334.017 201.189H331.749V203.458H334.017V201.189Z" fill="#FAFAFA"/>
<path d="M334.017 204.986H331.749V207.254H334.017V204.986Z" fill="#FAFAFA"/>
<path d="M334.017 208.791H331.749V211.059H334.017V208.791Z" fill="#FAFAFA"/>
<path d="M334.017 212.588H331.749V214.856H334.017V212.588Z" fill="#FAFAFA"/>
<path d="M334.017 216.385H331.749V218.653H334.017V216.385Z" fill="#FAFAFA"/>
<path d="M334.017 220.189H331.749V222.458H334.017V220.189Z" fill="#FAFAFA"/>
<path d="M334.017 223.986H331.749V226.255H334.017V223.986Z" fill="#FAFAFA"/>
<path d="M334.017 227.792H331.749V230.06H334.017V227.792Z" fill="#FAFAFA"/>
<path d="M334.017 231.588H331.749V233.857H334.017V231.588Z" fill="#FAFAFA"/>
<path d="M334.017 235.385H331.749V237.654H334.017V235.385Z" fill="#FAFAFA"/>
<path d="M330.419 189.782H328.151V192.051H330.419V189.782Z" fill="#FAFAFA"/>
<path d="M330.419 193.587H328.151V195.856H330.419V193.587Z" fill="#FAFAFA"/>
<path d="M330.419 197.384H328.151V199.653H330.419V197.384Z" fill="#FAFAFA"/>
<path d="M330.419 201.189H328.151V203.458H330.419V201.189Z" fill="#FAFAFA"/>
<path d="M330.419 204.986H328.151V207.254H330.419V204.986Z" fill="#FAFAFA"/>
<path d="M330.419 208.791H328.151V211.059H330.419V208.791Z" fill="#FAFAFA"/>
<path d="M330.419 212.588H328.151V214.856H330.419V212.588Z" fill="#FAFAFA"/>
<path d="M330.419 216.385H328.151V218.653H330.419V216.385Z" fill="#FAFAFA"/>
<path d="M330.419 220.189H328.151V222.458H330.419V220.189Z" fill="#FAFAFA"/>
<path d="M330.419 223.986H328.151V226.255H330.419V223.986Z" fill="#FAFAFA"/>
<path d="M330.419 227.792H328.151V230.06H330.419V227.792Z" fill="#FAFAFA"/>
<path d="M330.419 231.588H328.151V233.857H330.419V231.588Z" fill="#FAFAFA"/>
<path d="M330.419 235.385H328.151V237.654H330.419V235.385Z" fill="#FAFAFA"/>
<path d="M330.419 239.19H328.151V241.459H330.419V239.19Z" fill="#FAFAFA"/>
<path d="M310.416 190.921H308.147V193.189H310.416V190.921Z" fill="#FAFAFA"/>
<path d="M310.416 194.718H308.147V196.986H310.416V194.718Z" fill="#FAFAFA"/>
<path d="M310.416 198.522H308.147V200.791H310.416V198.522Z" fill="#FAFAFA"/>
<path d="M310.416 202.319H308.147V204.588H310.416V202.319Z" fill="#FAFAFA"/>
<path d="M310.416 206.124H308.147V208.393H310.416V206.124Z" fill="#FAFAFA"/>
<path d="M310.416 209.921H308.147V212.19H310.416V209.921Z" fill="#FAFAFA"/>
<path d="M310.416 213.718H308.147V215.987H310.416V213.718Z" fill="#FAFAFA"/>
<path d="M310.416 217.523H308.147V219.792H310.416V217.523Z" fill="#FAFAFA"/>
<path d="M310.416 221.32H308.147V223.588H310.416V221.32Z" fill="#FAFAFA"/>
<path d="M310.416 225.125H308.147V227.393H310.416V225.125Z" fill="#FAFAFA"/>
<path d="M310.416 236.523H308.147V238.792H310.416V236.523Z" fill="#FAFAFA"/>
<path d="M306.818 190.921H304.55V193.189H306.818V190.921Z" fill="#FAFAFA"/>
<path d="M306.818 194.718H304.55V196.986H306.818V194.718Z" fill="#FAFAFA"/>
<path d="M306.818 198.522H304.55V200.791H306.818V198.522Z" fill="#FAFAFA"/>
<path d="M306.818 202.319H304.55V204.588H306.818V202.319Z" fill="#FAFAFA"/>
<path d="M306.818 206.124H304.55V208.393H306.818V206.124Z" fill="#FAFAFA"/>
<path d="M306.818 209.921H304.55V212.19H306.818V209.921Z" fill="#FAFAFA"/>
<path d="M306.818 213.718H304.55V215.987H306.818V213.718Z" fill="#FAFAFA"/>
<path d="M306.818 217.523H304.55V219.792H306.818V217.523Z" fill="#FAFAFA"/>
<path d="M306.818 221.32H304.55V223.588H306.818V221.32Z" fill="#FAFAFA"/>
<path d="M306.818 232.719H304.55V234.987H306.818V232.719Z" fill="#FAFAFA"/>
<path d="M306.818 236.523H304.55V238.792H306.818V236.523Z" fill="#FAFAFA"/>
<path d="M303.22 190.921H300.952V193.189H303.22V190.921Z" fill="#FAFAFA"/>
<path d="M303.22 194.718H300.952V196.986H303.22V194.718Z" fill="#FAFAFA"/>
<path d="M303.22 198.522H300.952V200.791H303.22V198.522Z" fill="#FAFAFA"/>
<path d="M303.22 202.319H300.952V204.588H303.22V202.319Z" fill="#FAFAFA"/>
<path d="M303.22 206.124H300.952V208.393H303.22V206.124Z" fill="#FAFAFA"/>
<path d="M303.22 209.921H300.952V212.19H303.22V209.921Z" fill="#FAFAFA"/>
<path d="M303.22 213.718H300.952V215.987H303.22V213.718Z" fill="#FAFAFA"/>
<path d="M303.22 217.523H300.952V219.792H303.22V217.523Z" fill="#FAFAFA"/>
<path d="M303.22 228.922H300.952V231.19H303.22V228.922Z" fill="#FAFAFA"/>
<path d="M303.22 232.719H300.952V234.987H303.22V232.719Z" fill="#FAFAFA"/>
<path d="M303.22 236.523H300.952V238.792H303.22V236.523Z" fill="#FAFAFA"/>
<path d="M269.749 133.179H267.48V135.447H269.749V133.179Z" fill="#FAFAFA"/>
<path d="M269.749 136.984H267.48V139.252H269.749V136.984Z" fill="#FAFAFA"/>
<path d="M269.749 140.781H267.48V143.049H269.749V140.781Z" fill="#FAFAFA"/>
<path d="M269.749 144.585H267.48V146.854H269.749V144.585Z" fill="#FAFAFA"/>
<path d="M269.749 148.382H267.48V150.651H269.749V148.382Z" fill="#FAFAFA"/>
<path d="M269.749 152.187H267.48V154.456H269.749V152.187Z" fill="#FAFAFA"/>
<path d="M269.749 155.984H267.48V158.253H269.749V155.984Z" fill="#FAFAFA"/>
<path d="M269.749 159.781H267.48V162.05H269.749V159.781Z" fill="#FAFAFA"/>
<path d="M269.749 163.586H267.48V165.855H269.749V163.586Z" fill="#FAFAFA"/>
<path d="M269.749 167.383H267.48V169.651H269.749V167.383Z" fill="#FAFAFA"/>
<path d="M269.749 171.188H267.48V173.456H269.749V171.188Z" fill="#FAFAFA"/>
<path d="M269.749 174.985H267.48V177.253H269.749V174.985Z" fill="#FAFAFA"/>
<path d="M269.749 178.782H267.48V181.05H269.749V178.782Z" fill="#FAFAFA"/>
<path d="M269.749 182.586H267.48V184.855H269.749V182.586Z" fill="#FAFAFA"/>
<path d="M269.749 186.383H267.48V188.652H269.749V186.383Z" fill="#FAFAFA"/>
<path d="M269.749 190.188H267.48V192.457H269.749V190.188Z" fill="#FAFAFA"/>
<path d="M269.749 193.985H267.48V196.254H269.749V193.985Z" fill="#FAFAFA"/>
<path d="M269.749 201.587H267.48V203.856H269.749V201.587Z" fill="#FAFAFA"/>
<path d="M269.749 205.384H267.48V207.652H269.749V205.384Z" fill="#FAFAFA"/>
<path d="M269.749 209.189H267.48V211.458H269.749V209.189Z" fill="#FAFAFA"/>
<path d="M269.749 212.986H267.48V215.254H269.749V212.986Z" fill="#FAFAFA"/>
<path d="M269.749 216.791H267.48V219.059H269.749V216.791Z" fill="#FAFAFA"/>
<path d="M266.15 133.179H263.882V135.447H266.15V133.179Z" fill="#FAFAFA"/>
<path d="M266.15 136.984H263.882V139.252H266.15V136.984Z" fill="#FAFAFA"/>
<path d="M266.15 140.781H263.882V143.049H266.15V140.781Z" fill="#FAFAFA"/>
<path d="M266.15 144.585H263.882V146.854H266.15V144.585Z" fill="#FAFAFA"/>
<path d="M266.15 148.382H263.882V150.651H266.15V148.382Z" fill="#FAFAFA"/>
<path d="M266.15 152.187H263.882V154.456H266.15V152.187Z" fill="#FAFAFA"/>
<path d="M266.15 155.984H263.882V158.253H266.15V155.984Z" fill="#FAFAFA"/>
<path d="M266.15 159.781H263.882V162.05H266.15V159.781Z" fill="#FAFAFA"/>
<path d="M266.15 163.586H263.882V165.855H266.15V163.586Z" fill="#FAFAFA"/>
<path d="M266.15 167.383H263.882V169.651H266.15V167.383Z" fill="#FAFAFA"/>
<path d="M266.15 171.188H263.882V173.456H266.15V171.188Z" fill="#FAFAFA"/>
<path d="M266.15 174.985H263.882V177.253H266.15V174.985Z" fill="#FAFAFA"/>
<path d="M266.15 178.782H263.882V181.05H266.15V178.782Z" fill="#FAFAFA"/>
<path d="M266.15 182.586H263.882V184.855H266.15V182.586Z" fill="#FAFAFA"/>
<path d="M266.15 186.383H263.882V188.652H266.15V186.383Z" fill="#FAFAFA"/>
<path d="M266.15 190.188H263.882V192.457H266.15V190.188Z" fill="#FAFAFA"/>
<path d="M266.15 212.986H263.882V215.254H266.15V212.986Z" fill="#FAFAFA"/>
<path d="M266.15 216.791H263.882V219.059H266.15V216.791Z" fill="#FAFAFA"/>
<path d="M262.553 133.179H260.284V135.447H262.553V133.179Z" fill="#FAFAFA"/>
<path d="M262.553 136.984H260.284V139.252H262.553V136.984Z" fill="#FAFAFA"/>
<path d="M262.553 140.781H260.284V143.049H262.553V140.781Z" fill="#FAFAFA"/>
<path d="M262.553 144.585H260.284V146.854H262.553V144.585Z" fill="#FAFAFA"/>
<path d="M262.553 148.382H260.284V150.651H262.553V148.382Z" fill="#FAFAFA"/>
<path d="M262.553 152.187H260.284V154.456H262.553V152.187Z" fill="#FAFAFA"/>
<path d="M262.553 155.984H260.284V158.253H262.553V155.984Z" fill="#FAFAFA"/>
<path d="M262.553 159.781H260.284V162.05H262.553V159.781Z" fill="#FAFAFA"/>
<path d="M262.553 163.586H260.284V165.855H262.553V163.586Z" fill="#FAFAFA"/>
<path d="M262.553 167.383H260.284V169.651H262.553V167.383Z" fill="#FAFAFA"/>
<path d="M262.553 171.188H260.284V173.456H262.553V171.188Z" fill="#FAFAFA"/>
<path d="M262.553 174.985H260.284V177.253H262.553V174.985Z" fill="#FAFAFA"/>
<path d="M262.553 178.782H260.284V181.05H262.553V178.782Z" fill="#FAFAFA"/>
<path d="M262.553 182.586H260.284V184.855H262.553V182.586Z" fill="#FAFAFA"/>
<path d="M262.553 186.383H260.284V188.652H262.553V186.383Z" fill="#FAFAFA"/>
<path d="M262.553 190.188H260.284V192.457H262.553V190.188Z" fill="#FAFAFA"/>
<path d="M262.553 197.79H260.284V200.059H262.553V197.79Z" fill="#FAFAFA"/>
<path d="M262.553 201.587H260.284V203.856H262.553V201.587Z" fill="#FAFAFA"/>
<path d="M262.553 205.384H260.284V207.652H262.553V205.384Z" fill="#FAFAFA"/>
<path d="M262.553 209.189H260.284V211.458H262.553V209.189Z" fill="#FAFAFA"/>
<path d="M262.553 216.791H260.284V219.059H262.553V216.791Z" fill="#FAFAFA"/>
<path d="M282.819 181.05H280.55V183.319H282.819V181.05Z" fill="#FAFAFA"/>
<path d="M282.819 184.855H280.55V187.124H282.819V184.855Z" fill="#FAFAFA"/>
<path d="M282.819 188.652H280.55V190.92H282.819V188.652Z" fill="#FAFAFA"/>
<path d="M282.819 192.449H280.55V194.717H282.819V192.449Z" fill="#FAFAFA"/>
<path d="M282.819 196.254H280.55V198.523H282.819V196.254Z" fill="#FAFAFA"/>
<path d="M282.819 200.051H280.55V202.319H282.819V200.051Z" fill="#FAFAFA"/>
<path d="M282.819 203.856H280.55V206.124H282.819V203.856Z" fill="#FAFAFA"/>
<path d="M282.819 211.457H280.55V213.726H282.819V211.457Z" fill="#FAFAFA"/>
<path d="M282.819 215.254H280.55V217.523H282.819V215.254Z" fill="#FAFAFA"/>
<path d="M282.819 219.051H280.55V221.32H282.819V219.051Z" fill="#FAFAFA"/>
<path d="M282.819 222.856H280.55V225.125H282.819V222.856Z" fill="#FAFAFA"/>
<path d="M282.819 226.653H280.55V228.922H282.819V226.653Z" fill="#FAFAFA"/>
<path d="M282.819 230.458H280.55V232.727H282.819V230.458Z" fill="#FAFAFA"/>
<path d="M282.819 234.255H280.55V236.523H282.819V234.255Z" fill="#FAFAFA"/>
<path d="M282.819 238.06H280.55V240.328H282.819V238.06Z" fill="#FAFAFA"/>
<path d="M279.213 181.05H276.944V183.319H279.213V181.05Z" fill="#FAFAFA"/>
<path d="M279.213 184.855H276.944V187.124H279.213V184.855Z" fill="#FAFAFA"/>
<path d="M279.213 188.652H276.944V190.92H279.213V188.652Z" fill="#FAFAFA"/>
<path d="M279.213 192.449H276.944V194.717H279.213V192.449Z" fill="#FAFAFA"/>
<path d="M279.213 196.254H276.944V198.523H279.213V196.254Z" fill="#FAFAFA"/>
<path d="M279.213 200.051H276.944V202.319H279.213V200.051Z" fill="#FAFAFA"/>
<path d="M279.213 211.457H276.944V213.726H279.213V211.457Z" fill="#FAFAFA"/>
<path d="M279.213 215.254H276.944V217.523H279.213V215.254Z" fill="#FAFAFA"/>
<path d="M279.213 219.051H276.944V221.32H279.213V219.051Z" fill="#FAFAFA"/>
<path d="M279.213 222.856H276.944V225.125H279.213V222.856Z" fill="#FAFAFA"/>
<path d="M279.213 226.653H276.944V228.922H279.213V226.653Z" fill="#FAFAFA"/>
<path d="M279.213 230.458H276.944V232.727H279.213V230.458Z" fill="#FAFAFA"/>
<path d="M279.213 234.255H276.944V236.523H279.213V234.255Z" fill="#FAFAFA"/>
<path d="M279.213 238.06H276.944V240.328H279.213V238.06Z" fill="#FAFAFA"/>
<path d="M275.615 181.05H273.346V183.319H275.615V181.05Z" fill="#FAFAFA"/>
<path d="M275.615 184.855H273.346V187.124H275.615V184.855Z" fill="#FAFAFA"/>
<path d="M275.615 188.652H273.346V190.92H275.615V188.652Z" fill="#FAFAFA"/>
<path d="M275.615 192.449H273.346V194.717H275.615V192.449Z" fill="#FAFAFA"/>
<path d="M275.615 196.254H273.346V198.523H275.615V196.254Z" fill="#FAFAFA"/>
<path d="M275.615 200.051H273.346V202.319H275.615V200.051Z" fill="#FAFAFA"/>
<path d="M275.615 207.652H273.346V209.921H275.615V207.652Z" fill="#FAFAFA"/>
<path d="M275.615 211.457H273.346V213.726H275.615V211.457Z" fill="#FAFAFA"/>
<path d="M275.615 215.254H273.346V217.523H275.615V215.254Z" fill="#FAFAFA"/>
<path d="M275.615 219.051H273.346V221.32H275.615V219.051Z" fill="#FAFAFA"/>
<path d="M275.615 222.856H273.346V225.125H275.615V222.856Z" fill="#FAFAFA"/>
<path d="M275.615 226.653H273.346V228.922H275.615V226.653Z" fill="#FAFAFA"/>
<path d="M275.615 230.458H273.346V232.727H275.615V230.458Z" fill="#FAFAFA"/>
<path d="M275.615 234.255H273.346V236.523H275.615V234.255Z" fill="#FAFAFA"/>
<path d="M275.615 238.06H273.346V240.328H275.615V238.06Z" fill="#FAFAFA"/>
<path d="M199.748 159.781H197.48V162.05H199.748V159.781Z" fill="#FAFAFA"/>
<path d="M199.748 163.586H197.48V165.855H199.748V163.586Z" fill="#FAFAFA"/>
<path d="M199.748 167.383H197.48V169.651H199.748V167.383Z" fill="#FAFAFA"/>
<path d="M199.748 171.188H197.48V173.456H199.748V171.188Z" fill="#FAFAFA"/>
<path d="M199.748 174.985H197.48V177.253H199.748V174.985Z" fill="#FAFAFA"/>
<path d="M199.748 178.782H197.48V181.05H199.748V178.782Z" fill="#FAFAFA"/>
<path d="M199.748 182.586H197.48V184.855H199.748V182.586Z" fill="#FAFAFA"/>
<path d="M199.748 186.383H197.48V188.652H199.748V186.383Z" fill="#FAFAFA"/>
<path d="M199.748 190.188H197.48V192.457H199.748V190.188Z" fill="#FAFAFA"/>
<path d="M199.748 193.985H197.48V196.254H199.748V193.985Z" fill="#FAFAFA"/>
<path d="M199.748 197.79H197.48V200.059H199.748V197.79Z" fill="#FAFAFA"/>
<path d="M199.748 201.587H197.48V203.856H199.748V201.587Z" fill="#FAFAFA"/>
<path d="M199.748 205.384H197.48V207.652H199.748V205.384Z" fill="#FAFAFA"/>
<path d="M199.748 212.986H197.48V215.254H199.748V212.986Z" fill="#FAFAFA"/>
<path d="M199.748 216.791H197.48V219.059H199.748V216.791Z" fill="#FAFAFA"/>
<path d="M199.748 220.587H197.48V222.856H199.748V220.587Z" fill="#FAFAFA"/>
<path d="M199.748 224.385H197.48V226.653H199.748V224.385Z" fill="#FAFAFA"/>
<path d="M199.748 231.986H197.48V234.255H199.748V231.986Z" fill="#FAFAFA"/>
<path d="M199.748 235.791H197.48V238.06H199.748V235.791Z" fill="#FAFAFA"/>
<path d="M199.748 239.588H197.48V241.856H199.748V239.588Z" fill="#FAFAFA"/>
<path d="M196.142 159.781H193.874V162.05H196.142V159.781Z" fill="#FAFAFA"/>
<path d="M196.142 163.586H193.874V165.855H196.142V163.586Z" fill="#FAFAFA"/>
<path d="M196.142 167.383H193.874V169.651H196.142V167.383Z" fill="#FAFAFA"/>
<path d="M196.142 171.188H193.874V173.456H196.142V171.188Z" fill="#FAFAFA"/>
<path d="M196.142 174.985H193.874V177.253H196.142V174.985Z" fill="#FAFAFA"/>
<path d="M196.142 178.782H193.874V181.05H196.142V178.782Z" fill="#FAFAFA"/>
<path d="M196.142 182.586H193.874V184.855H196.142V182.586Z" fill="#FAFAFA"/>
<path d="M196.142 186.383H193.874V188.652H196.142V186.383Z" fill="#FAFAFA"/>
<path d="M196.142 190.188H193.874V192.457H196.142V190.188Z" fill="#FAFAFA"/>
<path d="M196.142 193.985H193.874V196.254H196.142V193.985Z" fill="#FAFAFA"/>
<path d="M196.142 197.79H193.874V200.059H196.142V197.79Z" fill="#FAFAFA"/>
<path d="M196.142 201.587H193.874V203.856H196.142V201.587Z" fill="#FAFAFA"/>
<path d="M196.142 205.384H193.874V207.652H196.142V205.384Z" fill="#FAFAFA"/>
<path d="M196.142 216.791H193.874V219.059H196.142V216.791Z" fill="#FAFAFA"/>
<path d="M196.142 220.587H193.874V222.856H196.142V220.587Z" fill="#FAFAFA"/>
<path d="M196.142 228.189H193.874V230.458H196.142V228.189Z" fill="#FAFAFA"/>
<path d="M196.142 231.986H193.874V234.255H196.142V231.986Z" fill="#FAFAFA"/>
<path d="M196.142 235.791H193.874V238.06H196.142V235.791Z" fill="#FAFAFA"/>
<path d="M196.142 239.588H193.874V241.856H196.142V239.588Z" fill="#FAFAFA"/>
<path d="M192.544 159.781H190.276V162.05H192.544V159.781Z" fill="#FAFAFA"/>
<path d="M192.544 163.586H190.276V165.855H192.544V163.586Z" fill="#FAFAFA"/>
<path d="M192.544 167.383H190.276V169.651H192.544V167.383Z" fill="#FAFAFA"/>
<path d="M192.544 171.188H190.276V173.456H192.544V171.188Z" fill="#FAFAFA"/>
<path d="M192.544 174.985H190.276V177.253H192.544V174.985Z" fill="#FAFAFA"/>
<path d="M192.544 178.782H190.276V181.05H192.544V178.782Z" fill="#FAFAFA"/>
<path d="M192.544 182.586H190.276V184.855H192.544V182.586Z" fill="#FAFAFA"/>
<path d="M192.544 186.383H190.276V188.652H192.544V186.383Z" fill="#FAFAFA"/>
<path d="M192.544 190.188H190.276V192.457H192.544V190.188Z" fill="#FAFAFA"/>
<path d="M192.544 193.985H190.276V196.254H192.544V193.985Z" fill="#FAFAFA"/>
<path d="M192.544 197.79H190.276V200.059H192.544V197.79Z" fill="#FAFAFA"/>
<path d="M192.544 201.587H190.276V203.856H192.544V201.587Z" fill="#FAFAFA"/>
<path d="M192.544 205.384H190.276V207.652H192.544V205.384Z" fill="#FAFAFA"/>
<path d="M192.544 209.189H190.276V211.458H192.544V209.189Z" fill="#FAFAFA"/>
<path d="M192.544 216.791H190.276V219.059H192.544V216.791Z" fill="#FAFAFA"/>
<path d="M192.544 224.385H190.276V226.653H192.544V224.385Z" fill="#FAFAFA"/>
<path d="M192.544 228.189H190.276V230.458H192.544V228.189Z" fill="#FAFAFA"/>
<path d="M192.544 231.986H190.276V234.255H192.544V231.986Z" fill="#FAFAFA"/>
<path d="M192.544 235.791H190.276V238.06H192.544V235.791Z" fill="#FAFAFA"/>
<path d="M192.544 239.588H190.276V241.856H192.544V239.588Z" fill="#FAFAFA"/>
<path d="M214.411 181.456H212.142V183.725H214.411V181.456Z" fill="#FAFAFA"/>
<path d="M214.411 185.253H212.142V187.522H214.411V185.253Z" fill="#FAFAFA"/>
<path d="M214.411 189.05H212.142V191.319H214.411V189.05Z" fill="#FAFAFA"/>
<path d="M214.411 192.855H212.142V195.123H214.411V192.855Z" fill="#FAFAFA"/>
<path d="M214.411 196.652H212.142V198.92H214.411V196.652Z" fill="#FAFAFA"/>
<path d="M214.411 200.457H212.142V202.725H214.411V200.457Z" fill="#FAFAFA"/>
<path d="M214.411 211.855H212.142V214.124H214.411V211.855Z" fill="#FAFAFA"/>
<path d="M214.411 215.652H212.142V217.921H214.411V215.652Z" fill="#FAFAFA"/>
<path d="M214.411 219.457H212.142V221.726H214.411V219.457Z" fill="#FAFAFA"/>
<path d="M214.411 223.254H212.142V225.523H214.411V223.254Z" fill="#FAFAFA"/>
<path d="M214.411 227.059H212.142V229.328H214.411V227.059Z" fill="#FAFAFA"/>
<path d="M214.411 230.856H212.142V233.125H214.411V230.856Z" fill="#FAFAFA"/>
<path d="M214.411 234.653H212.142V236.921H214.411V234.653Z" fill="#FAFAFA"/>
<path d="M210.813 181.456H208.544V183.725H210.813V181.456Z" fill="#FAFAFA"/>
<path d="M210.813 185.253H208.544V187.522H210.813V185.253Z" fill="#FAFAFA"/>
<path d="M210.813 189.05H208.544V191.319H210.813V189.05Z" fill="#FAFAFA"/>
<path d="M210.813 192.855H208.544V195.123H210.813V192.855Z" fill="#FAFAFA"/>
<path d="M210.813 196.652H208.544V198.92H210.813V196.652Z" fill="#FAFAFA"/>
<path d="M210.813 200.457H208.544V202.725H210.813V200.457Z" fill="#FAFAFA"/>
<path d="M210.813 211.855H208.544V214.124H210.813V211.855Z" fill="#FAFAFA"/>
<path d="M210.813 215.652H208.544V217.921H210.813V215.652Z" fill="#FAFAFA"/>
<path d="M210.813 219.457H208.544V221.726H210.813V219.457Z" fill="#FAFAFA"/>
<path d="M210.813 223.254H208.544V225.523H210.813V223.254Z" fill="#FAFAFA"/>
<path d="M210.813 227.059H208.544V229.328H210.813V227.059Z" fill="#FAFAFA"/>
<path d="M210.813 230.856H208.544V233.125H210.813V230.856Z" fill="#FAFAFA"/>
<path d="M210.813 238.458H208.544V240.726H210.813V238.458Z" fill="#FAFAFA"/>
<path d="M91.2056 164.716H88.937V166.985H91.2056V164.716Z" fill="#FAFAFA"/>
<path d="M91.2056 168.521H88.937V170.79H91.2056V168.521Z" fill="#FAFAFA"/>
<path d="M91.2056 172.318H88.937V174.587H91.2056V172.318Z" fill="#FAFAFA"/>
<path d="M91.2056 176.115H88.937V178.384H91.2056V176.115Z" fill="#FAFAFA"/>
<path d="M91.2056 179.92H88.937V182.189H91.2056V179.92Z" fill="#FAFAFA"/>
<path d="M91.2056 183.717H88.937V185.985H91.2056V183.717Z" fill="#FAFAFA"/>
<path d="M91.2056 187.522H88.937V189.79H91.2056V187.522Z" fill="#FAFAFA"/>
<path d="M91.2056 191.319H88.937V193.587H91.2056V191.319Z" fill="#FAFAFA"/>
<path d="M91.2056 195.124H88.937V197.392H91.2056V195.124Z" fill="#FAFAFA"/>
<path d="M91.2056 198.92H88.937V201.189H91.2056V198.92Z" fill="#FAFAFA"/>
<path d="M91.2056 202.717H88.937V204.986H91.2056V202.717Z" fill="#FAFAFA"/>
<path d="M91.2056 210.319H88.937V212.588H91.2056V210.319Z" fill="#FAFAFA"/>
<path d="M91.2056 214.124H88.937V216.393H91.2056V214.124Z" fill="#FAFAFA"/>
<path d="M91.2056 217.921H88.937V220.19H91.2056V217.921Z" fill="#FAFAFA"/>
<path d="M91.2056 221.718H88.937V223.987H91.2056V221.718Z" fill="#FAFAFA"/>
<path d="M91.2056 225.523H88.937V227.791H91.2056V225.523Z" fill="#FAFAFA"/>
<path d="M91.2056 229.32H88.937V231.588H91.2056V229.32Z" fill="#FAFAFA"/>
<path d="M91.2056 233.125H88.937V235.393H91.2056V233.125Z" fill="#FAFAFA"/>
<path d="M91.2056 236.921H88.937V239.19H91.2056V236.921Z" fill="#FAFAFA"/>
<path d="M87.6077 164.716H85.3391V166.985H87.6077V164.716Z" fill="#FAFAFA"/>
<path d="M87.6077 168.521H85.3391V170.79H87.6077V168.521Z" fill="#FAFAFA"/>
<path d="M87.6077 172.318H85.3391V174.587H87.6077V172.318Z" fill="#FAFAFA"/>
<path d="M87.6077 176.115H85.3391V178.384H87.6077V176.115Z" fill="#FAFAFA"/>
<path d="M87.6077 179.92H85.3391V182.189H87.6077V179.92Z" fill="#FAFAFA"/>
<path d="M87.6077 183.717H85.3391V185.985H87.6077V183.717Z" fill="#FAFAFA"/>
<path d="M87.6077 187.522H85.3391V189.79H87.6077V187.522Z" fill="#FAFAFA"/>
<path d="M87.6077 191.319H85.3391V193.587H87.6077V191.319Z" fill="#FAFAFA"/>
<path d="M87.6077 195.124H85.3391V197.392H87.6077V195.124Z" fill="#FAFAFA"/>
<path d="M87.6077 198.92H85.3391V201.189H87.6077V198.92Z" fill="#FAFAFA"/>
<path d="M87.6077 202.717H85.3391V204.986H87.6077V202.717Z" fill="#FAFAFA"/>
<path d="M87.6077 206.522H85.3391V208.791H87.6077V206.522Z" fill="#FAFAFA"/>
<path d="M87.6077 210.319H85.3391V212.588H87.6077V210.319Z" fill="#FAFAFA"/>
<path d="M87.6077 214.124H85.3391V216.393H87.6077V214.124Z" fill="#FAFAFA"/>
<path d="M87.6077 217.921H85.3391V220.19H87.6077V217.921Z" fill="#FAFAFA"/>
<path d="M87.6077 221.718H85.3391V223.987H87.6077V221.718Z" fill="#FAFAFA"/>
<path d="M87.6077 225.523H85.3391V227.791H87.6077V225.523Z" fill="#FAFAFA"/>
<path d="M87.6077 229.32H85.3391V231.588H87.6077V229.32Z" fill="#FAFAFA"/>
<path d="M87.6077 233.125H85.3391V235.393H87.6077V233.125Z" fill="#FAFAFA"/>
<path d="M87.6077 236.921H85.3391V239.19H87.6077V236.921Z" fill="#FAFAFA"/>
<path d="M108.94 179.522H106.672V181.79H108.94V179.522Z" fill="#FAFAFA"/>
<path d="M108.94 183.319H106.672V185.587H108.94V183.319Z" fill="#FAFAFA"/>
<path d="M108.94 187.116H106.672V189.384H108.94V187.116Z" fill="#FAFAFA"/>
<path d="M108.94 190.921H106.672V193.189H108.94V190.921Z" fill="#FAFAFA"/>
<path d="M108.94 194.718H106.672V196.986H108.94V194.718Z" fill="#FAFAFA"/>
<path d="M108.94 198.522H106.672V200.791H108.94V198.522Z" fill="#FAFAFA"/>
<path d="M108.94 202.319H106.672V204.588H108.94V202.319Z" fill="#FAFAFA"/>
<path d="M108.94 206.124H106.672V208.393H108.94V206.124Z" fill="#FAFAFA"/>
<path d="M108.94 209.921H106.672V212.19H108.94V209.921Z" fill="#FAFAFA"/>
<path d="M108.94 213.718H106.672V215.987H108.94V213.718Z" fill="#FAFAFA"/>
<path d="M105.343 179.522H103.074V181.79H105.343V179.522Z" fill="#FAFAFA"/>
<path d="M105.343 183.319H103.074V185.587H105.343V183.319Z" fill="#FAFAFA"/>
<path d="M105.343 187.116H103.074V189.384H105.343V187.116Z" fill="#FAFAFA"/>
<path d="M105.343 190.921H103.074V193.189H105.343V190.921Z" fill="#FAFAFA"/>
<path d="M105.343 194.718H103.074V196.986H105.343V194.718Z" fill="#FAFAFA"/>
<path d="M105.343 198.522H103.074V200.791H105.343V198.522Z" fill="#FAFAFA"/>
<path d="M105.343 202.319H103.074V204.588H105.343V202.319Z" fill="#FAFAFA"/>
<path d="M105.343 206.124H103.074V208.393H105.343V206.124Z" fill="#FAFAFA"/>
<path d="M105.343 209.921H103.074V212.19H105.343V209.921Z" fill="#FAFAFA"/>
<path d="M199 296.558C284.238 296.558 353.336 292.524 353.336 287.547C353.336 282.571 284.238 278.536 199 278.536C113.762 278.536 44.6636 282.571 44.6636 287.547C44.6636 292.524 113.762 296.558 199 296.558Z" fill="#F5F5F5"/>
<path d="M243.791 19.0005C243.791 19.0005 244.078 33.4877 250.454 34.7454C256.83 36.003 265.578 19.0005 265.578 19.0005C265.578 19.0005 260.236 35.8757 261.988 38.4627C263.739 41.0497 286.409 30.9644 286.409 30.9644C286.409 30.9644 272.694 47.1232 274.198 49.9092C275.703 52.6952 286.409 51.4375 286.409 51.4375C286.409 51.4375 275.265 53.0295 274.859 58.3627C274.453 63.6959 298.381 70.9554 298.381 70.9554C298.381 70.9554 275.846 69.6977 274.198 73.4787C272.551 77.2597 279.484 85.8725 279.484 85.8725C279.484 85.8725 273.283 78.589 267.281 79.7751C261.279 80.9611 268.873 108.105 268.873 108.105C268.873 108.105 254.68 90.2425 251.361 90.2027C248.042 90.1629 246.967 104.706 246.967 104.706C246.967 104.706 245.622 90.3778 242.884 90.4494C240.145 90.5211 236.213 108.105 236.213 108.105C236.213 108.105 238.896 89.3271 236.213 88.2047C233.531 87.0824 215.326 110.119 215.326 110.119C215.326 110.119 225.435 84.8058 224.289 82.776C223.143 80.7462 205.838 88.157 205.838 88.157C205.838 88.157 219.696 77.2518 218.423 72.8499C217.149 68.448 189.767 68.1216 189.767 68.1216C189.767 68.1216 212.851 64.0302 215.326 61.5069C217.802 58.9836 201.691 44.1939 201.691 44.1939C201.691 44.1939 218.996 48.9142 221.073 47.6565C223.151 46.3988 215.04 28.1306 212.007 23.7208C212.007 23.7208 225.348 39.3462 229.439 38.4627C233.531 37.5791 232.95 22.4631 232.95 22.4631C232.95 22.4631 237.63 31.5932 240.774 31.5932C243.918 31.5932 243.791 19.0005 243.791 19.0005Z" fill="#861F83"/>
<path opacity="0.8" d="M243.791 19.0005C243.791 19.0005 244.078 33.4877 250.454 34.7454C256.83 36.003 265.578 19.0005 265.578 19.0005C265.578 19.0005 260.236 35.8757 261.988 38.4627C263.739 41.0497 286.409 30.9644 286.409 30.9644C286.409 30.9644 272.694 47.1232 274.198 49.9092C275.703 52.6952 286.409 51.4375 286.409 51.4375C286.409 51.4375 275.265 53.0295 274.859 58.3627C274.453 63.6959 298.381 70.9554 298.381 70.9554C298.381 70.9554 275.846 69.6977 274.198 73.4787C272.551 77.2597 279.484 85.8725 279.484 85.8725C279.484 85.8725 273.283 78.589 267.281 79.7751C261.279 80.9611 268.873 108.105 268.873 108.105C268.873 108.105 254.68 90.2425 251.361 90.2027C248.042 90.1629 246.967 104.706 246.967 104.706C246.967 104.706 245.622 90.3778 242.884 90.4494C240.145 90.5211 236.213 108.105 236.213 108.105C236.213 108.105 238.896 89.3271 236.213 88.2047C233.531 87.0824 215.326 110.119 215.326 110.119C215.326 110.119 225.435 84.8058 224.289 82.776C223.143 80.7462 205.838 88.157 205.838 88.157C205.838 88.157 219.696 77.2518 218.423 72.8499C217.149 68.448 189.767 68.1216 189.767 68.1216C189.767 68.1216 212.851 64.0302 215.326 61.5069C217.802 58.9836 201.691 44.1939 201.691 44.1939C201.691 44.1939 218.996 48.9142 221.073 47.6565C223.151 46.3988 215.04 28.1306 212.007 23.7208C212.007 23.7208 225.348 39.3462 229.439 38.4627C233.531 37.5791 232.95 22.4631 232.95 22.4631C232.95 22.4631 237.63 31.5932 240.774 31.5932C243.918 31.5932 243.791 19.0005 243.791 19.0005Z" fill="white"/>
<path opacity="0.4" d="M270.564 67.1821C273.641 54.1451 265.567 41.0821 252.53 38.0051C239.493 34.9281 226.43 43.0023 223.353 56.0392C220.276 69.0762 228.35 82.1392 241.387 85.2162C254.424 88.2932 267.487 80.219 270.564 67.1821Z" fill="white"/>
<path d="M353.337 235.966H39.6011V276.952H353.337V235.966Z" fill="#263238"/>
<path opacity="0.6" d="M353.337 235.966H39.6011V276.952H353.337V235.966Z" fill="white"/>
<path opacity="0.2" d="M73.2957 241.284H44.6636V250.135H73.2957V241.284Z" fill="white"/>
<path opacity="0.2" d="M103.281 241.284H74.6489V250.135H103.281V241.284Z" fill="white"/>
<path opacity="0.2" d="M173.878 254.776H145.246V263.627H173.878V254.776Z" fill="white"/>
<path opacity="0.2" d="M227.115 240.209H198.483V249.061H227.115V240.209Z" fill="white"/>
<path opacity="0.2" d="M242.852 250.947H214.219V259.799H242.852V250.947Z" fill="white"/>
<path opacity="0.2" d="M347.398 265.418H318.766V274.27H347.398V265.418Z" fill="white"/>
<path opacity="0.2" d="M316.697 265.562H288.064V274.413H316.697V265.562Z" fill="white"/>
<path opacity="0.2" d="M331.009 254.776H302.376V263.627H331.009V254.776Z" fill="white"/>
<path opacity="0.2" d="M87.6077 250.947H58.9756V259.799H87.6077V250.947Z" fill="white"/>
<path opacity="0.2" d="M161.604 265.418H132.972V274.27H161.604V265.418Z" fill="white"/>
<path d="M354.936 230.132H38.1443V238.617H354.936V230.132Z" fill="#263238"/>
<path opacity="0.7" d="M354.936 230.132H38.1443V238.617H354.936V230.132Z" fill="white"/>
<path d="M113.032 273.919H110.748V285.063H113.032V273.919Z" fill="#861F83"/>
<path d="M175.701 273.919H173.417V285.063H175.701V273.919Z" fill="#861F83"/>
<path d="M202.486 197.464H191.852V285.111H202.486V197.464Z" fill="#861F83"/>
<path opacity="0.6" d="M113.032 273.919H110.748V285.063H113.032V273.919Z" fill="white"/>
<path opacity="0.6" d="M175.701 273.919H173.417V285.063H175.701V273.919Z" fill="white"/>
<path opacity="0.6" d="M202.486 197.464H191.852V285.111H202.486V197.464Z" fill="white"/>
<path d="M216.974 287.006H97.9001L101.275 283.129H213.591L216.974 287.006Z" fill="#861F83"/>
<path opacity="0.2" d="M216.974 287.006H182.404L185.787 283.129H213.591L216.974 287.006Z" fill="white"/>
<path d="M145.151 191.128L108.057 276.451C107.935 276.736 107.885 277.047 107.912 277.356C107.94 277.665 108.043 277.963 108.213 278.222C108.384 278.482 108.615 278.695 108.888 278.843C109.161 278.991 109.466 279.069 109.776 279.07H173.361C173.826 279.07 174.28 278.934 174.669 278.68C175.058 278.425 175.364 278.063 175.55 277.637L212.643 192.314C212.768 192.029 212.819 191.717 212.793 191.407C212.767 191.097 212.663 190.799 212.493 190.539C212.322 190.279 212.089 190.065 211.815 189.918C211.541 189.771 211.235 189.694 210.924 189.695H147.34C146.875 189.695 146.42 189.83 146.031 190.085C145.643 190.339 145.337 190.702 145.151 191.128Z" fill="#861F83"/>
<path opacity="0.7" d="M145.151 191.128L108.057 276.451C107.935 276.736 107.885 277.047 107.912 277.356C107.94 277.665 108.043 277.963 108.213 278.222C108.384 278.482 108.615 278.695 108.888 278.843C109.161 278.991 109.466 279.069 109.776 279.07H173.361C173.826 279.07 174.28 278.934 174.669 278.68C175.058 278.425 175.364 278.063 175.55 277.637L212.643 192.314C212.768 192.029 212.819 191.717 212.793 191.407C212.767 191.097 212.663 190.799 212.493 190.539C212.322 190.279 212.089 190.065 211.815 189.918C211.541 189.771 211.235 189.694 210.924 189.695H147.34C146.875 189.695 146.42 189.83 146.031 190.085C145.643 190.339 145.337 190.702 145.151 191.128Z" fill="white"/>
<path opacity="0.2" d="M166.953 244.635L178.177 218.812H153.572L142.341 244.635H166.953Z" fill="black"/>
<path opacity="0.2" d="M112.021 275.034C111.832 275.034 111.648 275.09 111.49 275.195C111.333 275.3 111.211 275.449 111.139 275.624C111.066 275.798 111.047 275.99 111.084 276.175C111.121 276.361 111.212 276.531 111.346 276.665C111.479 276.798 111.649 276.889 111.835 276.926C112.02 276.963 112.212 276.944 112.387 276.872C112.561 276.799 112.71 276.677 112.815 276.52C112.92 276.363 112.976 276.178 112.976 275.989C112.976 275.736 112.876 275.493 112.697 275.314C112.517 275.135 112.274 275.034 112.021 275.034Z" fill="black"/>
<path opacity="0.2" d="M171.299 275.034C171.111 275.036 170.927 275.093 170.771 275.199C170.615 275.305 170.494 275.454 170.422 275.629C170.351 275.804 170.334 275.996 170.371 276.18C170.409 276.365 170.501 276.535 170.635 276.667C170.769 276.8 170.939 276.89 171.124 276.927C171.309 276.963 171.501 276.943 171.675 276.871C171.849 276.798 171.997 276.676 172.102 276.519C172.207 276.362 172.262 276.178 172.262 275.989C172.262 275.863 172.237 275.738 172.189 275.622C172.14 275.505 172.069 275.4 171.98 275.311C171.89 275.222 171.784 275.152 171.667 275.104C171.55 275.057 171.425 275.033 171.299 275.034Z" fill="black"/>
<path opacity="0.2" d="M148.311 192.091C148.122 192.091 147.937 192.147 147.78 192.252C147.623 192.357 147.5 192.506 147.428 192.68C147.356 192.855 147.337 193.047 147.374 193.232C147.411 193.418 147.502 193.588 147.635 193.721C147.769 193.855 147.939 193.946 148.124 193.983C148.31 194.02 148.502 194.001 148.676 193.929C148.851 193.856 149 193.734 149.105 193.577C149.21 193.42 149.266 193.235 149.266 193.046C149.264 192.793 149.162 192.552 148.984 192.373C148.805 192.194 148.563 192.093 148.311 192.091Z" fill="black"/>
<path opacity="0.2" d="M207.589 192.091C207.4 192.091 207.215 192.147 207.058 192.252C206.901 192.357 206.779 192.506 206.706 192.68C206.634 192.855 206.615 193.047 206.652 193.232C206.689 193.418 206.78 193.588 206.913 193.721C207.047 193.855 207.217 193.946 207.402 193.983C207.588 194.02 207.78 194.001 207.954 193.929C208.129 193.856 208.278 193.734 208.383 193.577C208.488 193.42 208.544 193.235 208.544 193.046C208.544 192.793 208.443 192.55 208.264 192.371C208.085 192.191 207.842 192.091 207.589 192.091Z" fill="black"/>
<path d="M217.587 273.919H215.302V285.063H217.587V273.919Z" fill="#861F83"/>
<path d="M280.248 273.919H277.963V285.063H280.248V273.919Z" fill="#861F83"/>
<path d="M307.041 197.464H296.406V285.111H307.041V197.464Z" fill="#861F83"/>
<path opacity="0.6" d="M217.587 273.919H215.302V285.063H217.587V273.919Z" fill="white"/>
<path opacity="0.6" d="M280.248 273.919H277.963V285.063H280.248V273.919Z" fill="white"/>
<path opacity="0.6" d="M307.041 197.464H296.406V285.111H307.041V197.464Z" fill="white"/>
<path d="M331.12 158.722L278.473 279.818H200.584L253.232 158.722H331.12Z" fill="#263238"/>
<path opacity="0.6" d="M331.12 158.722L278.473 279.818H200.584L253.232 158.722H331.12Z" fill="white"/>
<path d="M298.787 228.786H281.235L274.365 244.595H291.917L298.787 228.786Z" fill="#263238"/>
<path d="M266.795 262.011H284.347L291.217 246.203H273.665L266.795 262.011Z" fill="#263238"/>
<path d="M279.659 228.786H262.107L255.238 244.595H272.789L279.659 228.786Z" fill="#263238"/>
<path d="M321.505 176.529H303.953L297.083 192.338H314.635L321.505 176.529Z" fill="#263238"/>
<path d="M247.66 262.011H265.211L272.089 246.203H254.537L247.66 262.011Z" fill="#263238"/>
<path d="M306.365 211.37H288.805L281.935 227.178H299.487L306.365 211.37Z" fill="#263238"/>
<path d="M313.935 193.953H296.383L289.505 209.754H307.057L313.935 193.953Z" fill="#263238"/>
<path d="M242.104 227.178L248.973 211.37H231.923L225.053 227.178H242.104Z" fill="#263238"/>
<path d="M234.525 244.595L241.403 228.786H224.353L217.475 244.595H234.525Z" fill="#263238"/>
<path d="M264.121 176.529H247.063L240.193 192.338H257.251L264.121 176.529Z" fill="#263238"/>
<path d="M226.956 262.011L233.833 246.203H216.775L209.905 262.011H226.956Z" fill="#263238"/>
<path d="M249.673 209.754L256.551 193.953H239.493L232.623 209.754H249.673Z" fill="#263238"/>
<path d="M328.549 160.338H310.997L304.653 174.921H322.205L328.549 160.338Z" fill="#263238"/>
<path d="M283.647 263.619H266.095L259.751 278.21H277.303L283.647 263.619Z" fill="#263238"/>
<path d="M226.255 263.619H209.205L202.861 278.21H219.911L226.255 263.619Z" fill="#263238"/>
<path d="M264.821 174.921L271.157 160.338H254.107L247.763 174.921H264.821Z" fill="#263238"/>
<path d="M268.101 211.37H250.549L243.68 227.178H261.231L268.101 211.37Z" fill="#263238"/>
<path d="M260.531 228.786H242.979L236.11 244.595H253.661L260.531 228.786Z" fill="#263238"/>
<path d="M309.421 160.338H291.87L285.525 174.921H303.077L309.421 160.338Z" fill="#263238"/>
<path d="M264.519 263.619H246.959L240.623 278.21H258.175L264.519 263.619Z" fill="#263238"/>
<path d="M302.377 176.529H284.825L277.955 192.338H295.507L302.377 176.529Z" fill="#263238"/>
<path d="M294.807 193.953H277.255L270.377 209.754H287.929L294.807 193.953Z" fill="#263238"/>
<path d="M228.532 262.011H246.084L252.961 246.203H235.409L228.532 262.011Z" fill="#263238"/>
<path d="M239.047 278.21L245.383 263.619H227.831L221.495 278.21H239.047Z" fill="#263238"/>
<path d="M290.293 160.338H272.742L266.397 174.921H283.949L290.293 160.338Z" fill="#263238"/>
<path d="M287.229 211.37H269.677L262.807 227.178H280.359L287.229 211.37Z" fill="#263238"/>
<path d="M283.248 176.529H265.697L258.827 192.338H276.379L283.248 176.529Z" fill="#263238"/>
<path d="M275.679 193.953H258.127L251.25 209.754H268.801L275.679 193.953Z" fill="#263238"/>
<g opacity="0.1">
<path d="M303.483 158.722L233.745 203.561L253.231 158.722H303.483Z" fill="white"/>
<path d="M325.803 158.722L225.085 223.477L229.829 212.564L313.576 158.722H325.803Z" fill="white"/>
<path d="M326.599 169.126L324.219 174.587L216.122 244.078L218.502 238.609L326.599 169.126Z" fill="white"/>
</g>
<g opacity="0.1">
<path d="M282.5 270.561L278.473 279.818H268.093L282.5 270.561Z" fill="white"/>
<path d="M289.338 254.824L285.589 263.452L260.133 279.818H250.461L289.338 254.824Z" fill="white"/>
<path d="M296.399 238.585L294.528 242.884L237.073 279.818H232.249L296.399 238.585Z" fill="white"/>
</g>
<path d="M324.752 287.006H205.671L209.054 283.129H321.369L324.752 287.006Z" fill="#861F83"/>
<path opacity="0.2" d="M324.752 287.006H290.182L293.565 283.129H321.369L324.752 287.006Z" fill="white"/>
<path d="M176.808 266.588H158.961V267.902H161.11L165.52 273.386H166.316L161.898 267.902H176.808V266.588Z" fill="#263238"/>
<path opacity="0.2" d="M176.808 266.588H158.961V267.902H161.11L165.52 273.386H166.316L161.898 267.902H176.808V266.588Z" fill="white"/>
<path d="M200.727 261.781C199.793 259.03 197.831 256.748 195.251 255.413H168.426L165.035 257.005L170.256 272.503H197.074L200.473 270.911C201.644 267.995 201.734 264.757 200.727 261.781Z" fill="#263238"/>
<path d="M197.169 272.495H154.002V289.999H197.169V272.495Z" fill="#263238"/>
<path opacity="0.2" d="M197.169 272.495H170.344V289.999H197.169V272.495Z" fill="white"/>
<path opacity="0.2" d="M200.473 270.887H173.655C174.82 267.978 174.911 264.75 173.91 261.781C172.974 259.029 171.008 256.746 168.426 255.413H195.251C197.831 256.748 199.793 259.03 200.727 261.781C201.728 264.75 201.638 267.978 200.473 270.887Z" fill="white"/>
<path opacity="0.1" d="M200.473 270.887L197.074 272.495H170.256L173.655 270.887H200.473Z" fill="white"/>
<path opacity="0.2" d="M181.528 262.012C184.149 263.258 186.982 264 189.878 264.201C194.184 264.36 195.45 262.012 195.45 262.012L194.853 260.173C194.853 260.173 193.818 261.86 190.722 262.195C187.625 262.529 181.018 260.109 181.018 260.109L181.528 262.012Z" fill="black"/>
<path d="M181.01 260.109C181.01 260.109 185.261 258.007 189.09 258.374C191.129 258.481 193.108 259.099 194.845 260.173L195.442 262.011C195.442 262.011 189.679 258.445 181.528 262.011L181.01 260.109Z" fill="#263238"/>
<path d="M97.0303 88.1285L95.52 206.659L173.402 207.652L174.913 89.1208L97.0303 88.1285Z" fill="#263238"/>
<path opacity="0.6" d="M97.0303 88.1285L95.52 206.659L173.402 207.652L174.913 89.1208L97.0303 88.1285Z" fill="white"/>
<path d="M154.621 157.444L154.424 172.917L171.974 173.14L172.171 157.667L154.621 157.444Z" fill="#263238"/>
<path d="M154.401 174.496L154.204 189.969L171.755 190.193L171.952 174.72L154.401 174.496Z" fill="#263238"/>
<path d="M135.488 157.2L135.291 172.673L152.841 172.896L153.038 157.423L135.488 157.2Z" fill="#263238"/>
<path d="M155.27 106.294L155.073 121.767L172.623 121.99L172.82 106.517L155.27 106.294Z" fill="#263238"/>
<path d="M135.277 174.245L135.08 189.718L152.63 189.941L152.827 174.468L135.277 174.245Z" fill="#263238"/>
<path d="M154.832 140.399L154.635 155.872L172.185 156.095L172.382 140.622L154.832 140.399Z" fill="#263238"/>
<path d="M155.051 123.346L154.854 138.819L172.404 139.043L172.601 123.57L155.051 123.346Z" fill="#263238"/>
<path d="M97.9542 139.664L97.7571 155.137L114.806 155.354L115.003 139.881L97.9542 139.664Z" fill="#263238"/>
<path d="M97.735 156.716L97.5378 172.189L114.587 172.407L114.784 156.934L97.735 156.716Z" fill="#263238"/>
<path d="M98.3922 105.575L98.1951 121.048L115.244 121.265L115.441 105.792L98.3922 105.575Z" fill="#263238"/>
<path d="M97.516 173.769L97.3188 189.242L114.368 189.459L114.565 173.986L97.516 173.769Z" fill="#263238"/>
<path d="M98.1732 122.619L97.9761 138.092L115.025 138.309L115.222 122.836L98.1732 122.619Z" fill="#263238"/>
<path d="M155.473 90.4426L155.292 104.722L172.842 104.945L173.024 90.6662L155.473 90.4426Z" fill="#263238"/>
<path d="M154.183 191.541L154.001 205.82L171.552 206.044L171.734 191.765L154.183 191.541Z" fill="#263238"/>
<path d="M97.2974 190.814L97.1155 205.093L114.164 205.31L114.346 191.031L97.2974 190.814Z" fill="#263238"/>
<path d="M98.5958 89.7156L98.4138 103.995L115.463 104.212L115.645 89.9328L98.5958 89.7156Z" fill="#263238"/>
<path d="M116.582 139.912L116.385 155.385L133.935 155.608L134.133 140.135L116.582 139.912Z" fill="#263238"/>
<path d="M116.371 156.956L116.174 172.429L133.724 172.653L133.922 157.18L116.371 156.956Z" fill="#263238"/>
<path d="M136.341 90.1992L136.159 104.478L153.709 104.702L153.891 90.4228L136.341 90.1992Z" fill="#263238"/>
<path d="M135.058 191.298L134.876 205.577L152.427 205.8L152.609 191.521L135.058 191.298Z" fill="#263238"/>
<path d="M136.145 106.05L135.948 121.523L153.498 121.747L153.696 106.274L136.145 106.05Z" fill="#263238"/>
<path d="M135.926 123.103L135.729 138.576L153.279 138.799L153.477 123.326L135.926 123.103Z" fill="#263238"/>
<path d="M116.144 174.001L115.947 189.474L133.497 189.698L133.695 174.225L116.144 174.001Z" fill="#263238"/>
<path d="M115.933 191.054L115.751 205.333L133.302 205.557L133.484 191.278L115.933 191.054Z" fill="#263238"/>
<path d="M117.224 89.9558L117.042 104.235L134.592 104.458L134.774 90.1794L117.224 89.9558Z" fill="#263238"/>
<path d="M135.715 140.155L135.518 155.628L153.068 155.852L153.265 140.379L135.715 140.155Z" fill="#263238"/>
<path d="M117.012 105.807L116.815 121.28L134.366 121.503L134.563 106.03L117.012 105.807Z" fill="#263238"/>
<path d="M116.801 122.851L116.604 138.324L134.155 138.548L134.352 123.075L116.801 122.851Z" fill="#263238"/>
<g opacity="0.1">
<path d="M147.284 88.7618L96.4753 132.008L97.0405 88.125L147.284 88.7618Z" fill="white"/>
<path d="M169.604 89.0486L96.2285 151.503L96.3638 140.82L157.377 88.8894L169.604 89.0486Z" fill="white"/>
<path d="M174.786 99.293L174.714 104.65L95.9658 171.665L96.0375 166.316L174.786 99.293Z" fill="white"/>
</g>
<g opacity="0.1">
<path d="M173.52 198.578L173.401 207.644L163.029 207.509L173.52 198.578Z" fill="white"/>
<path d="M173.719 183.183L173.608 191.621L155.069 207.414L145.397 207.286L173.719 183.183Z" fill="white"/>
<path d="M173.918 167.279L173.863 171.49L132.009 207.119L127.185 207.055L173.918 167.279Z" fill="white"/>
</g>
<path d="M92.2088 125.259C92.2088 125.259 82.601 129.517 79.4728 125.704C76.3445 121.891 93.363 101.769 93.363 101.769C93.363 101.769 93.6416 95.8543 94.4853 94.8115C95.2882 93.9946 96.215 93.3096 97.2315 92.7817L97.8604 104.411L96.0932 104.578C96.0932 104.578 86.987 116.837 87.1542 117.896C87.3213 118.954 92.2008 116.733 92.2008 116.733L92.2088 125.259Z" fill="#E4897B"/>
<path d="M114.489 155.809C114.489 155.809 122.449 138.83 121.86 134.819C121.271 130.807 107.882 148.215 107.882 148.215L106.807 154.177L114.489 155.809Z" fill="#861F83"/>
<path opacity="0.4" d="M114.489 155.809C114.489 155.809 122.449 138.83 121.86 134.819C121.271 130.807 107.882 148.215 107.882 148.215L106.807 154.177L114.489 155.809Z" fill="white"/>
<path opacity="0.2" d="M113.947 155.363C113.947 155.363 121.907 138.385 121.31 134.365C120.713 130.345 107.333 147.761 107.333 147.761L106.258 153.723L113.947 155.363Z" fill="black"/>
<path d="M127.44 284.45L133.696 285.103L134.007 281.481L134.866 271.627L128.61 270.958L127.663 281.855L127.44 284.45Z" fill="#E4897B"/>
<path d="M73.1206 283.655H79.1782L79.4727 282.293L79.5125 282.118L81.399 273.37L81.4388 273.195L82.1632 269.844H76.0976L73.1206 283.655Z" fill="#E4897B"/>
<path opacity="0.2" d="M128.61 270.958L127.663 281.855L134.007 281.481L134.866 271.627L128.61 270.958Z" fill="black"/>
<path opacity="0.2" d="M73.2957 282.89H73.3036L79.5045 282.118H79.5124L81.3512 273.681H81.3432L75.1822 274.166L73.3514 282.628L73.2957 282.89Z" fill="black"/>
<path d="M80.014 283.288H72.651C72.5306 283.29 72.4143 283.332 72.3215 283.409C72.2288 283.486 72.1652 283.592 72.1415 283.71L70.9396 289.099C70.8922 289.332 70.9382 289.575 71.0677 289.774C71.1973 289.974 71.3999 290.114 71.6321 290.166H71.8311C74.2191 290.126 75.9464 289.983 78.9394 289.983C80.7781 289.983 86.3342 290.174 88.8814 290.174C91.4286 290.174 91.755 287.658 90.7122 287.428C86.0397 286.409 82.5293 285 81.0329 283.662C80.7533 283.413 80.3888 283.279 80.014 283.288Z" fill="#263238"/>
<path d="M134.357 283.097H126.994C126.874 283.098 126.757 283.139 126.663 283.214C126.569 283.289 126.503 283.394 126.476 283.511L125.282 288.908C125.258 289.023 125.257 289.142 125.278 289.258C125.3 289.373 125.344 289.483 125.408 289.582C125.473 289.68 125.556 289.765 125.653 289.831C125.75 289.897 125.86 289.943 125.975 289.967C126.041 289.975 126.108 289.975 126.174 289.967C128.562 289.927 130.289 289.784 133.274 289.784C135.121 289.784 140.677 289.975 143.216 289.975C145.756 289.975 146.098 287.459 145.055 287.229C140.383 286.21 136.872 284.801 135.376 283.464C135.095 283.217 134.731 283.086 134.357 283.097Z" fill="#263238"/>
<path d="M135.439 279.03L126.492 279.316C129.748 219.537 131.268 216.488 102.246 188.254C101.57 196.795 100.806 205.654 100.057 213.041C99.5877 217.61 99.4523 221.598 98.6882 224.528C93.5221 244.324 81.0966 279.372 81.0966 279.372L72.3406 279.762C72.3406 279.762 83.2617 231.731 84.3841 216.082C85.8567 195.545 73.0888 171.888 85.5064 149.656L114.473 155.291L114.266 162.455C141.943 202.868 147.005 211.608 135.439 279.03Z" fill="#861F83"/>
<path opacity="0.4" d="M135.439 279.03L126.492 279.316C129.748 219.537 131.268 216.488 102.246 188.254C101.57 196.795 100.806 205.654 100.057 213.041C99.5877 217.61 99.4523 221.598 98.6882 224.528C93.5221 244.324 81.0966 279.372 81.0966 279.372L72.3406 279.762C72.3406 279.762 83.2617 231.731 84.3841 216.082C85.8567 195.545 73.0888 171.888 85.5064 149.656L114.473 155.291L114.266 162.455C141.943 202.868 147.005 211.608 135.439 279.03Z" fill="white"/>
<path d="M129.748 133.847C129.748 133.847 146.225 136.824 149.369 136.315C152.514 135.805 169.15 122.663 169.15 122.663C169.15 122.663 174.642 122.361 174.929 120.498C175.216 118.636 175.964 115.3 174.388 115.412C172.812 115.523 168.211 117.569 168.211 117.569L167.614 119.097C167.614 119.097 149.306 130.17 148.581 130.409C147.857 130.647 132.088 126.333 132.088 126.333L129.748 133.847Z" fill="#E4897B"/>
<path d="M99.9219 112.236C94.5091 112.236 89.8525 115.73 84.9014 118.214L88.4674 127.097L99.8343 126.381L99.9219 112.236Z" fill="#861F83"/>
<path d="M127.193 110.93C127.02 111.136 126.837 111.333 126.644 111.519C125.553 112.585 124.166 113.295 122.664 113.557C122.282 113.622 121.896 113.659 121.51 113.669C120.015 113.723 118.545 113.285 117.324 112.422C116.103 111.559 115.199 110.319 114.751 108.893C113.51 105.215 114.974 102.389 117.076 97.4063C117.545 96.234 118.308 95.2016 119.29 94.4078C120.272 93.614 121.441 93.0853 122.686 92.8721C123.931 92.6589 125.209 92.7684 126.4 93.1902C127.59 93.6119 128.653 94.3317 129.485 95.281C133.258 99.5555 130.377 107.086 127.193 110.93Z" fill="#E4897B"/>
<path opacity="0.2" d="M122.64 113.557C122.258 113.622 121.873 113.659 121.486 113.669C120.461 113.7 119.443 113.502 118.505 113.089C117.567 112.676 116.733 112.058 116.065 111.281C116.568 110.805 117.13 110.396 117.737 110.063C119.674 110.731 121.376 111.945 122.64 113.557Z" fill="black"/>
<path d="M132.216 97.8602C131.929 97.8602 129.716 99.7467 129.573 100.447C128.872 102.754 127.298 104.696 125.187 105.86C123.308 106.712 120.411 110.755 120.411 110.755C120.411 110.755 117.291 108.137 114.043 108.081C112.913 105.691 112.322 103.081 112.312 100.438C112.302 97.7936 112.874 95.1799 113.987 92.7817L132.216 97.8602Z" fill="#263238"/>
<path opacity="0.2" d="M132.216 97.8602C131.929 97.8602 129.716 99.7467 129.573 100.447C128.872 102.754 127.298 104.696 125.187 105.86C123.308 106.712 120.411 110.755 120.411 110.755C120.411 110.755 117.291 108.137 114.043 108.081C112.913 105.691 112.322 103.081 112.312 100.438C112.302 97.7936 112.874 95.1799 113.987 92.7817L132.216 97.8602Z" fill="white"/>
<path d="M123.794 104.228C123.665 104.729 123.648 105.251 123.744 105.759C123.841 106.267 124.048 106.747 124.351 107.165C125.147 108.065 126.469 106.998 127.034 105.47C127.535 104.117 127.758 101.968 126.58 101.697C125.402 101.426 124.089 102.756 123.794 104.228Z" fill="#E4897B"/>
<path d="M128.26 99.5476C128.26 99.5476 128.841 112.411 118.947 112.522V113.032C118.947 113.032 127.83 113.828 129.9 100.527L128.26 99.5476Z" fill="#263238"/>
<path d="M112.785 96.3159C113.032 96.8143 113.377 97.2582 113.798 97.6218C114.219 97.9854 114.708 98.2613 115.237 98.4333C117.147 99.1417 126.246 96.7776 126.246 96.7776L127.877 97.9955C127.877 97.9955 118.723 101.012 115.237 100.511C111.75 100.009 112.308 97.4224 112.308 97.4224L112.785 96.3159Z" fill="white"/>
<path d="M107.882 113.669C109.203 117.012 118.946 117.896 118.946 117.896C118.835 117.042 118.835 116.178 118.946 115.324C119.101 114.413 119.437 113.541 119.933 112.761C120.195 112.32 120.479 111.892 120.785 111.48L114.417 108.105C112.952 110.755 111.44 112.236 107.882 113.669Z" fill="#E4897B"/>
<path d="M134.174 101.657C134.307 101.952 134.348 102.281 134.289 102.599C134.231 102.918 134.077 103.211 133.848 103.44C133.052 104.156 131.269 103.44 131.269 103.44C131.269 103.44 125.187 93.7846 113.04 94.103C113.04 94.103 112.149 92.8532 112.332 92.0095C112.515 91.1657 114.266 90.5846 114.266 90.5846C116.856 88.1008 120.156 86.4869 123.707 85.9678C129.43 85.2355 135.368 91.3249 135.647 92.8214C135.925 94.3179 134.516 96.1726 134.516 96.1726C134.78 98.0048 134.664 99.8718 134.174 101.657Z" fill="#861F83"/>
<path opacity="0.2" d="M134.174 101.657C128.371 91.7708 114.274 90.5848 114.274 90.5848C115.232 89.6602 116.302 88.8581 117.458 88.1968C117.569 89.4226 118.978 89.9241 120.117 90.0355C121.709 90.1947 128.188 88.4037 131.308 90.6087C132.218 91.2474 132.978 92.0767 133.535 93.039C134.092 94.0013 134.432 95.0734 134.532 96.1807C134.79 98.0114 134.668 99.8756 134.174 101.657Z" fill="black"/>
<path opacity="0.2" d="M102.246 188.214C101.57 196.755 100.806 205.639 100.057 213.018C98.9668 202.359 97.6216 194.757 97.6216 194.757C97.6216 194.757 96.3719 193.73 92.9172 188.214C89.4626 182.698 92.9172 172.414 92.9172 172.414C92.8058 181.974 102.246 188.214 102.246 188.214Z" fill="black"/>
<path d="M136.434 278.067L136.005 280.574H125.497V278.258L136.434 278.067Z" fill="#861F83"/>
<path d="M82.1314 279.03L81.1205 281.346H71.5605L71.7357 279.03H82.1314Z" fill="#861F83"/>
<path d="M128.697 121.605C133.808 124.67 137.851 127.599 137.851 127.599L134.166 135.455L119.448 132.884C120.519 130.349 121.806 127.91 123.292 125.593C125.856 121.573 128.697 121.605 128.697 121.605Z" fill="#861F83"/>
<path opacity="0.4" d="M136.434 278.067L136.005 280.574H125.497V278.258L136.434 278.067Z" fill="white"/>
<path opacity="0.4" d="M82.1314 279.03L81.1205 281.346H71.5605L71.7357 279.03H82.1314Z" fill="white"/>
<path d="M84.5113 150.476L94.5091 152.37L93.8962 154.862L83.4128 152.776L84.5113 150.476Z" fill="#263238"/>
<path d="M96.1648 152.681L108.463 155.021L108.24 157.711L95.6235 155.204L96.1648 152.681Z" fill="#263238"/>
<path d="M115.07 156.271L115.038 159.072L109.991 158.062L110.143 155.331L115.07 156.271Z" fill="#263238"/>
<path d="M85.5383 149.648C85.5383 149.648 91.978 119.169 98.5529 112.57C98.5529 112.57 115.269 109.538 128.697 121.597C128.697 121.597 117.315 141.123 114.505 155.284L85.5383 149.648Z" fill="#861F83"/>
<path d="M96.1649 153.397H96.0296L94.4376 153.039C94.3381 153.014 94.2465 152.965 94.1713 152.895C94.0961 152.826 94.0398 152.738 94.0077 152.641C93.9751 152.543 93.969 152.439 93.99 152.338C94.011 152.238 94.0583 152.144 94.1271 152.068L95.2734 150.746C95.344 150.665 95.4353 150.605 95.5376 150.571C95.6399 150.537 95.7494 150.532 95.8545 150.555C95.9597 150.578 96.0565 150.629 96.1339 150.704C96.2113 150.778 96.2662 150.873 96.2923 150.977L96.7539 152.665C96.7754 152.753 96.7769 152.844 96.7583 152.933C96.7397 153.021 96.7015 153.104 96.6465 153.176C96.5915 153.248 96.5212 153.306 96.4406 153.347C96.36 153.388 96.2712 153.411 96.1808 153.413L96.1649 153.397ZM95.7032 150.922C95.649 150.923 95.5975 150.946 95.5599 150.985L94.4057 152.315C94.3882 152.343 94.3789 152.376 94.3789 152.41C94.3789 152.444 94.3882 152.477 94.4057 152.506C94.4141 152.537 94.4312 152.566 94.4551 152.589C94.479 152.611 94.5088 152.627 94.5411 152.633L96.1331 152.991C96.1655 153.003 96.2009 153.004 96.2339 152.994C96.2669 152.984 96.2958 152.963 96.3161 152.935C96.3408 152.913 96.3584 152.883 96.3669 152.851C96.3753 152.818 96.3743 152.784 96.3639 152.752L95.9102 151.065C95.9017 151.031 95.8837 151 95.8583 150.976C95.8329 150.952 95.8012 150.936 95.7669 150.93L95.7032 150.922Z" fill="white"/>
<path d="M106.29 124.423C106.208 124.423 106.127 124.407 106.051 124.375L104.539 123.706C104.446 123.664 104.366 123.599 104.306 123.517C104.246 123.434 104.208 123.338 104.196 123.237C104.181 123.135 104.193 123.03 104.232 122.935C104.272 122.839 104.336 122.757 104.419 122.695L105.812 121.621C105.896 121.553 105.997 121.511 106.104 121.498C106.211 121.485 106.32 121.503 106.417 121.549C106.516 121.591 106.601 121.661 106.661 121.75C106.722 121.839 106.756 121.943 106.759 122.051L106.879 123.794C106.887 123.896 106.867 123.999 106.822 124.091C106.778 124.183 106.709 124.262 106.624 124.319C106.527 124.389 106.41 124.425 106.29 124.423ZM106.17 121.891C106.127 121.89 106.085 121.904 106.051 121.931L104.666 123.006C104.639 123.028 104.618 123.056 104.605 123.088C104.591 123.12 104.585 123.154 104.586 123.189C104.592 123.222 104.606 123.253 104.627 123.28C104.647 123.306 104.675 123.327 104.706 123.34L106.21 124.009C106.24 124.024 106.273 124.032 106.306 124.032C106.339 124.032 106.372 124.024 106.401 124.009C106.429 123.989 106.451 123.963 106.465 123.932C106.479 123.901 106.484 123.867 106.481 123.834L106.369 122.09C106.366 122.055 106.353 122.02 106.332 121.991C106.311 121.962 106.283 121.938 106.25 121.923L106.17 121.891Z" fill="white"/>
<path d="M104.769 123.133C104.769 123.133 100.081 131.849 95.114 149.735L97.0244 150.301C97.0244 150.301 102.047 131.674 106.258 123.826L104.769 123.133Z" fill="#263238"/>
<path d="M95.6235 151.495C95.5719 151.485 95.5262 151.455 95.4964 151.412C95.4665 151.369 95.455 151.316 95.4643 151.264L95.7031 150.141C95.7146 150.089 95.7459 150.043 95.7904 150.014C95.835 149.984 95.8893 149.973 95.9419 149.982C95.9676 149.988 95.9919 149.999 96.0134 150.014C96.0349 150.029 96.0532 150.048 96.0673 150.07C96.0814 150.092 96.0909 150.117 96.0953 150.143C96.0998 150.169 96.099 150.195 96.0932 150.221L95.8544 151.343C95.8429 151.394 95.8125 151.437 95.7694 151.466C95.7264 151.494 95.6741 151.504 95.6235 151.495Z" fill="white"/>
<path d="M97.112 150.5L95.0982 149.934C95.0472 149.92 95.0039 149.886 94.9772 149.84C94.9505 149.794 94.9425 149.739 94.9549 149.688C94.9622 149.663 94.9744 149.639 94.9908 149.619C95.0071 149.598 95.0273 149.582 95.0502 149.569C95.0732 149.556 95.0983 149.548 95.1243 149.546C95.1503 149.543 95.1766 149.545 95.2016 149.552L97.2235 150.118C97.2695 150.131 97.3091 150.161 97.335 150.201C97.361 150.241 97.3715 150.289 97.3648 150.337C97.358 150.384 97.3343 150.428 97.2982 150.459C97.262 150.49 97.2157 150.508 97.1678 150.508L97.112 150.5Z" fill="white"/>
<path d="M106.258 122.162C110.471 119.012 115.32 116.818 120.467 115.73L122.64 116.877C122.64 116.877 116.877 117.76 106.385 123.706L106.258 122.162Z" fill="#263238"/>
<path d="M104.77 122.958L105.956 122.162C105.956 122.162 106.083 114.075 106.879 112.212L105.534 112.26C104.887 115.787 104.631 119.375 104.77 122.958Z" fill="#263238"/>
<path d="M166.491 119.201L168.768 123.786L169.397 123.221C169.397 123.221 175.033 122.974 175.391 122.313C175.749 121.653 177.118 115.022 176.187 114.656C175.255 114.29 168.171 116.749 167.9 116.813C167.63 116.877 167.295 118.715 167.295 118.715L166.491 119.201Z" fill="#861F83"/>
<path d="M92.543 101.768L95.8384 105.653L96.3319 104.857L97.9239 104.379L97.2951 92.7498C97.2951 92.7498 94.2464 94.5726 94.1111 94.7796C93.9758 94.9865 93.1877 101.625 93.1877 101.625L92.543 101.768Z" fill="#861F83"/>
</svg>
