<svg xmlns="http://www.w3.org/2000/svg" width="324" height="214" fill="none" viewBox="0 0 324 214">
  <path fill="#E6E6E6" d="M324 188.06H0v.143h324v-.143Zm-35.089 4.968h-12.008v.144h12.008v-.144Zm-16.265 0h-16.952v.144h16.952v-.144Zm-46.241.144h-12.546v.144h12.546v-.144Zm-171.474-1.304H26.944v.144H54.93v-.144Zm-33.761 0h-4.102v.144h4.102v-.144Zm85.718 4.325H66.077v.144h40.811v-.144Zm46.688-33.752H28.454c-.98-.001-1.92-.347-2.613-.962-.692-.615-1.08-1.449-1.08-2.317V3.252c.008-.865.4-1.69 1.092-2.3.691-.608 1.626-.95 2.6-.952h125.123c.981 0 1.922.346 2.616.96.694.616 1.084 1.45 1.084 2.32v155.882c0 .869-.39 1.704-1.084 2.319-.694.615-1.635.96-2.616.96ZM28.454.115c-.938.001-1.836.332-2.498.92-.662.588-1.034 1.385-1.034 2.216v155.911c0 .83.372 1.627 1.034 2.215.662.588 1.56.919 2.498.921h125.122c.938-.002 1.837-.333 2.5-.92.663-.588 1.036-1.385 1.038-2.216V3.252c-.002-.832-.375-1.629-1.038-2.217-.663-.588-1.562-.919-2.5-.92H28.454Zm265.291 162.326H168.616c-.981-.001-1.921-.347-2.614-.962-.694-.615-1.084-1.448-1.086-2.317V3.252c.01-.865.404-1.691 1.097-2.3.693-.608 1.628-.95 2.603-.952h125.129c.973.003 1.906.346 2.596.955.691.608 1.082 1.433 1.091 2.296v155.911c0 .867-.388 1.7-1.079 2.315-.691.614-1.629.961-2.608.964ZM168.616.115c-.938.001-1.837.332-2.5.92-.663.588-1.036 1.385-1.038 2.216v155.911c.002.831.375 1.628 1.038 2.216.663.587 1.562.918 2.5.92h125.129c.938-.002 1.837-.333 2.5-.92.663-.588 1.036-1.385 1.038-2.216V3.252c-.002-.832-.375-1.629-1.038-2.217-.663-.588-1.562-.919-2.5-.92H168.616Z"/>
  <path fill="#E0E0E0" d="M272.821 17.554h-87.934v74.42h87.934v-74.42Z"/>
  <path fill="#B3B3B3" d="M274.771 17.554h-87.933v74.42h87.933v-74.42Z"/>
  <path fill="#fff" d="M271.266 88.481V21.046H190.35v67.435h80.916Z"/>
  <path fill="#E0E0E0" d="M271.266 88.481V21.046h-1.478v67.435h1.478Z"/>
  <path fill="#B3B3B3" d="M273.32 67.521h-85.031v4.687h85.031v-4.687Z"/>
  <path fill="#E6E6E6" d="M164.106 151.786h-17.353V185.9h17.353v-34.114Zm62.396 34.114H150.09v2.16h76.412v-2.16Z"/>
  <path fill="#FAFAFA" d="M164.106 185.9h65.72v-34.114h-65.72V185.9Z"/>
  <path fill="#E6E6E6" d="M170.929 167.175h52.074v-11.19h-52.074v11.19Zm0 14.52h52.074v-11.189h-52.074v11.189Z"/>
  <path fill="#FAFAFA" d="M204.774 160.81h-15.61c-.422 0-.764.303-.764.678v.178c0 .374.342.677.764.677h15.61c.423 0 .765-.303.765-.677v-.178c0-.375-.342-.678-.765-.678Zm0 14.527h-15.61c-.422 0-.764.303-.764.678v.178c0 .374.342.678.764.678h15.61c.423 0 .765-.304.765-.678v-.178c0-.375-.342-.678-.765-.678Z"/>
  <path fill="#E6E6E6" d="M58.12 115.697H40.415v68.049h17.703v-68.049Zm72.996 68.049H43.818v4.314h87.298v-4.314Z"/>
  <path fill="#FAFAFA" d="M58.12 183.746h76.392v-68.05H58.119v68.05Z"/>
  <path fill="#E6E6E6" d="M65.079 146.387h62.473v-22.321H65.079v22.321Zm0 28.984h62.473V153.05H65.079v22.321Z"/>
  <path fill="#FAFAFA" d="M103.33 136.76H89.3a1.852 1.852 0 0 1-1.216-.449 1.453 1.453 0 0 1-.507-1.079c0-.406.182-.795.505-1.083a1.852 1.852 0 0 1 1.219-.451h14.029c.458.002.896.164 1.219.451.323.288.505.677.505 1.083a1.454 1.454 0 0 1-.507 1.079c-.323.286-.76.447-1.217.449Zm0 28.979H89.3a1.852 1.852 0 0 1-1.216-.449 1.453 1.453 0 0 1-.507-1.079c.002-.405.184-.793.507-1.079.323-.286.76-.448 1.217-.449h14.029c.457.001.894.163 1.217.449.323.286.505.674.507 1.079 0 .405-.182.794-.505 1.08a1.84 1.84 0 0 1-1.219.448Zm100.79-19.364s-13.038-19.926 5.048-35.785c0 0 4.724 2.723 4.653 6.393-.072 3.671-5.055 4.595-3.986 7.657 1.07 3.062 5.774 6.06 2.69 8.616-3.085 2.556.492 4.779.285 7.881-.208 3.102-8.69 5.238-8.69 5.238Z"/>
  <path fill="#E6E6E6" d="M185.056 140.683s.447 11.103 17.541 11.103 17.535-11.103 17.535-11.103h-35.076Z"/>
  <path fill="#E6E6E6" d="M205.105 148.196s5.281-22.557-17.496-32.551c0 0-3.506 3.911-2.132 7.369 1.374 3.458 6.428 2.947 6.48 6.152.052 3.205-3.331 7.37.505 8.903 3.837 1.534 1.225 4.682 2.528 7.565 1.302 2.884 10.115 2.562 10.115 2.562Z"/>
  <path fill="#F0F0F0" d="M101.12 52.179s.448 6.674 17.535 6.674c17.088 0 17.542-6.674 17.542-6.674H101.12Z"/>
  <path fill="#F5F5F5" d="M54.775 63.713 51.97 80.307h2.805l17.211-16.594h-17.21Z"/>
  <path fill="#E0E0E0" d="M51.97 63.713v16.594l17.21-16.594H51.97Z"/>
  <path fill="#F5F5F5" d="m122.278 63.713-2.813 16.594h2.813l17.21-16.594h-17.21Z"/>
  <path fill="#E0E0E0" d="M119.465 63.713v16.594l17.218-16.594h-17.218Zm-80.138.316h18.72v-5.176h-18.72v5.176Z"/>
  <path fill="#F5F5F5" d="M151.127 58.853H58.054v5.176h93.073v-5.176Z"/>
  <path fill="#E0E0E0" d="M77.177 37.59c4.84.574 7.834-8.726-2.851-16.618.576 9.133-5.58 15.589 2.85 16.617Z"/>
  <path fill="#E0E0E0" d="M80.734 49.8c7.012-4.359 2.21-19.586-19.498-18.483C70.632 42.505 68.5 57.394 80.734 49.8Z"/>
  <path fill="#E0E0E0" d="M78.259 49.697c-4.666-4.451 1.944-15.652 18.747-11.562-9.474 7.375-10.621 19.305-18.747 11.562Z"/>
  <path fill="#F5F5F5" d="M84.24 43.206c1.614-1.723 3.519-3.699 3.059-5.744-.46-2.044-1.62-3.613-.7-5.818 1.101-2.642.888-5.796-.972-5.532-1.86.265-3.947 2.2-3.888 4.756.058 2.556-1.795 3.274-3.512 4.596-1.718 1.32-2.385 3.24-2.696 5.17-.538 2.998-4.925 2.429-6.091 5.037-1.2 2.516 1.198 5.87 5.035 6.64 3.836.77 6.57 1.252 9.188-1.402 2.657-2.866-1.814-5.21.577-7.703Z"/>
  <path fill="#E6E6E6" d="M71.034 58.854h14.418l1.088-8.496H69.945l1.089 8.496Z"/>
  <path fill="#E6E6E6" d="M68.876 51.874h18.74v-1.872h-18.74v1.872Z"/>
  <path fill="#F5F5F5" d="M117.845 106.541H102.19v9.15h15.655v-9.15Z"/>
  <path fill="#E0E0E0" d="M90.435 115.697h11.755v-9.151H90.435v9.151Z"/>
  <path fill="#F5F5F5" d="M85.847 101.669h-6.713v14.027h6.713v-14.027Z"/>
  <path fill="#E0E0E0" d="M74.092 115.697h5.042V101.67h-5.042v14.027Z"/>
  <path fill="#F5F5F5" d="M162 214c69.389 0 125.641-2.911 125.641-6.502 0-3.591-56.252-6.502-125.641-6.502-69.39 0-125.64 2.911-125.64 6.502C36.36 211.089 92.61 214 162 214Z"/>
  <path fill="#fff" d="M101.853 101.566a9.24 9.24 0 0 0 2.345.574c1.664.18 3.346-.166 4.75-.976 2.223-1.275 3.571-3.51 3.357-5.566a.392.392 0 0 0-.15-.26.491.491 0 0 0-.31-.102 15.044 15.044 0 0 0-5.825 1.124c-1.823.754-3.435 1.857-4.718 3.23a70.583 70.583 0 0 1-1.536-7.232 8.725 8.725 0 0 0 3.687 1.402 5.78 5.78 0 0 0 1.666-.063c2.896-.529 5.184-3.28 7.27-6.18a.404.404 0 0 0 .065-.357.378.378 0 0 0-.095-.156.436.436 0 0 0-.164-.103c-5.282-1.953-10.88 2.27-12.669 3.791a53.084 53.084 0 0 1-.434-6.352c1.13.318 2.291.545 3.467.677 2.845.293 5.236-.143 6.947-1.315 2.028-1.379 2.967-3.67 2.715-6.617a.378.378 0 0 0-.055-.161.415.415 0 0 0-.123-.128.494.494 0 0 0-.36-.079c-6.014.776-10.634 4.188-12.559 5.83 0-.379 0-.758.046-1.148a.375.375 0 0 0-.084-.264 4.467 4.467 0 0 0-.683-2.053 5.12 5.12 0 0 0-1.611-1.595c-1.51-.867-3.623-.982-6.286-.35a.611.611 0 0 0-.214.1.531.531 0 0 0-.149.17.397.397 0 0 0 0 .396c.11.166 2.437 3.647 6.539 4.078.444.035.89.035 1.334 0-.051 1.046-.07 2.097-.051 3.148a13.517 13.517 0 0 0-4.918-2.331 14.518 14.518 0 0 0-5.567-.277.6.6 0 0 0-.37.195.422.422 0 0 0-.088.17.392.392 0 0 0-.002.187c.816 3.555 2.793 5.95 5.288 6.398.11 0 .226.035.35.052 1.296.132 3.149-.207 5.404-2.108.159 2.43.468 4.85.927 7.249-2.178-1.246-7.174-3.527-11.62-1.31a.482.482 0 0 0-.243.247.411.411 0 0 0 .004.328c1.808 3.24 3.778 4.928 6.033 5.17h.058c1.88.178 3.888-.65 6.163-2.505a81.304 81.304 0 0 0 1.769 6.686c-2.1-1.557-4.782-1.625-8.288-.23a.567.567 0 0 0-.198.136.477.477 0 0 0-.113.197.361.361 0 0 0 .002.211.4.4 0 0 0 .12.18c.15.132 2.697 2.298 5.833 2.614a6.767 6.767 0 0 0 3.493-.535 84.822 84.822 0 0 0 4.691 11.213.47.47 0 0 0 .164.171c.07.043.153.069.238.076a.716.716 0 0 0 .337-.052.548.548 0 0 0 .29-.28.462.462 0 0 0-.005-.38 87.778 87.778 0 0 1-5.864-14.935Z"/>
  <path fill="#000" d="M101.853 101.566a9.24 9.24 0 0 0 2.345.574c1.664.18 3.346-.166 4.75-.976 2.223-1.275 3.571-3.51 3.357-5.566a.392.392 0 0 0-.15-.26.491.491 0 0 0-.31-.102 15.044 15.044 0 0 0-5.825 1.124c-1.823.754-3.435 1.857-4.718 3.23a70.583 70.583 0 0 1-1.536-7.232 8.725 8.725 0 0 0 3.687 1.402 5.78 5.78 0 0 0 1.666-.063c2.896-.529 5.184-3.28 7.27-6.18a.404.404 0 0 0 .065-.357.378.378 0 0 0-.095-.156.436.436 0 0 0-.164-.103c-5.282-1.953-10.88 2.27-12.669 3.791a53.084 53.084 0 0 1-.434-6.352c1.13.318 2.291.545 3.467.677 2.845.293 5.236-.143 6.947-1.315 2.028-1.379 2.967-3.67 2.715-6.617a.378.378 0 0 0-.055-.161.415.415 0 0 0-.123-.128.494.494 0 0 0-.36-.079c-6.014.776-10.634 4.188-12.559 5.83 0-.379 0-.758.046-1.148a.375.375 0 0 0-.084-.264 4.467 4.467 0 0 0-.683-2.053 5.12 5.12 0 0 0-1.611-1.595c-1.51-.867-3.623-.982-6.286-.35a.611.611 0 0 0-.214.1.531.531 0 0 0-.149.17.397.397 0 0 0 0 .396c.11.166 2.437 3.647 6.539 4.078.444.035.89.035 1.334 0-.051 1.046-.07 2.097-.051 3.148a13.517 13.517 0 0 0-4.918-2.331 14.518 14.518 0 0 0-5.567-.277.6.6 0 0 0-.37.195.422.422 0 0 0-.088.17.392.392 0 0 0-.002.187c.816 3.555 2.793 5.95 5.288 6.398.11 0 .226.035.35.052 1.296.132 3.149-.207 5.404-2.108.159 2.43.468 4.85.927 7.249-2.178-1.246-7.174-3.527-11.62-1.31a.482.482 0 0 0-.243.247.411.411 0 0 0 .004.328c1.808 3.24 3.778 4.928 6.033 5.17h.058c1.88.178 3.888-.65 6.163-2.505a81.304 81.304 0 0 0 1.769 6.686c-2.1-1.557-4.782-1.625-8.288-.23a.567.567 0 0 0-.198.136.477.477 0 0 0-.113.197.361.361 0 0 0 .002.211.4.4 0 0 0 .12.18c.15.132 2.697 2.298 5.833 2.614a6.767 6.767 0 0 0 3.493-.535 84.822 84.822 0 0 0 4.691 11.213.47.47 0 0 0 .164.171c.07.043.153.069.238.076a.716.716 0 0 0 .337-.052.548.548 0 0 0 .29-.28.462.462 0 0 0-.005-.38 87.778 87.778 0 0 1-5.864-14.935Z" opacity=".6"/>
  <path fill="#fff" d="M270.767 88.073H114.08c-2.573 0-4.659 1.85-4.659 4.13v85.541c0 2.281 2.086 4.13 4.659 4.13h156.687c2.573 0 4.659-1.849 4.659-4.13v-85.54c0-2.281-2.086-4.13-4.659-4.13Z"/>
  <path fill="#000" d="M270.767 88.073H114.08c-2.573 0-4.659 1.85-4.659 4.13v85.541c0 2.281 2.086 4.13 4.659 4.13h156.687c2.573 0 4.659-1.849 4.659-4.13v-85.54c0-2.281-2.086-4.13-4.659-4.13Z" opacity=".6"/>
  <path fill="#fff" d="M213.659 207.498h-38.764c3.797-12.695 1.523-26.371-6.817-39.06h38.764c8.339 12.689 10.614 26.365 6.817 39.06Z"/>
  <path fill="#fff" d="M211.637 207.498h-38.77c3.797-12.695 1.529-26.371-6.817-39.06h38.77c8.372 12.689 10.614 26.365 6.817 39.06Z"/>
  <path fill="#fff" d="M212.959 186.681h-39.191c-1.346-6.431-3.959-12.603-7.718-18.231h39.191c3.754 5.631 6.366 11.801 7.718 18.231Z"/>
  <g opacity=".4">
    <path fill="#000" d="M213.659 207.498h-38.764c3.798-12.695 1.523-26.371-6.817-39.06h38.764c8.339 12.689 10.614 26.365 6.817 39.06Z"/>
    <path fill="#000" d="M211.637 207.498h-38.77c3.797-12.695 1.529-26.371-6.817-39.06h38.77c8.372 12.689 10.614 26.365 6.817 39.06Z"/>
    <path fill="#000" d="M212.959 186.681h-39.191c-1.346-6.431-3.959-12.603-7.718-18.232h39.191c3.754 5.632 6.366 11.802 7.718 18.232Z"/>
  </g>
  <path fill="#fff" d="M211.637 207.498h-38.77c3.797-12.695 1.529-26.371-6.817-39.06h38.77c8.372 12.689 10.614 26.365 6.817 39.06Z"/>
  <path fill="#000" d="M211.637 207.498h-38.77c3.797-12.695 1.529-26.371-6.817-39.06h38.77c8.372 12.689 10.614 26.365 6.817 39.06Z" opacity=".2"/>
  <path fill="#000" d="M212.544 186.681h-38.815c-1.335-6.425-3.922-12.594-7.647-18.231h38.816c3.724 5.637 6.311 11.806 7.646 18.231Z" opacity=".2"/>
  <path fill="#fff" d="M268.564 88.073H111.877c-2.573 0-4.659 1.85-4.659 4.13v85.541c0 2.281 2.086 4.13 4.659 4.13h156.687c2.573 0 4.659-1.849 4.659-4.13v-85.54c0-2.281-2.086-4.13-4.659-4.13Z"/>
  <path fill="#000" d="M268.564 88.073H111.877c-2.573 0-4.659 1.85-4.659 4.13v85.541c0 2.281 2.086 4.13 4.659 4.13h156.687c2.573 0 4.659-1.849 4.659-4.13v-85.54c0-2.281-2.086-4.13-4.659-4.13Z" opacity=".3"/>
  <path fill="#fff" d="M204.444 204.781h-44.258c-.813 0-1.593.286-2.168.796-.574.509-.897 1.2-.897 1.921h50.388c0-.721-.323-1.412-.898-1.921-.574-.51-1.354-.796-2.167-.796Z"/>
  <path fill="#000" d="M204.444 204.781h-44.258c-.813 0-1.593.286-2.168.796-.574.509-.897 1.2-.897 1.921h50.388c0-.721-.323-1.412-.898-1.921-.574-.51-1.354-.796-2.167-.796Z" opacity=".3"/>
  <path fill="#fff" d="M273.223 92.824H107.218v75.609h166.005v-75.61Z"/>
  <path fill="#FAFAFA" d="M273.164 92.824H107.16v75.609h166.004v-75.61Z" opacity=".84"/>
  <path fill="#fff" d="M249.098 98.665H137.259c-1.016 0-1.84.73-1.84 1.632v57.992c0 .901.824 1.631 1.84 1.631h111.839c1.016 0 1.84-.73 1.84-1.631v-57.992c0-.901-.824-1.632-1.84-1.632Z" opacity=".23"/>
  <path fill="#FAFAFA" d="M250.452 102.881v55.407c0 .433-.194.848-.539 1.154a1.965 1.965 0 0 1-1.301.478H136.773a1.974 1.974 0 0 1-1.299-.48 1.548 1.548 0 0 1-.541-1.152v-55.407h115.519Z" opacity=".67"/>
  <path fill="#fff" d="M250.115 105.052H135.27v52.702h114.845v-52.702Z" opacity=".41"/>
  <path fill="#fff" d="M226.664 141.436c-3.018 0-5.969-.794-8.478-2.28-2.51-1.487-4.466-3.599-5.621-6.071-1.155-2.472-1.457-5.192-.868-7.816.589-2.624 2.042-5.034 4.176-6.926 2.134-1.892 4.854-3.18 7.814-3.702a17.083 17.083 0 0 1 8.817.77c2.788 1.024 5.172 2.757 6.849 4.982 1.676 2.225 2.571 4.84 2.571 7.515-.005 3.587-1.614 7.025-4.475 9.56-2.861 2.536-6.739 3.963-10.785 3.968Zm0-26.911c-2.986 0-5.905.785-8.388 2.255-2.483 1.471-4.418 3.561-5.561 6.007-1.143 2.445-1.442 5.136-.859 7.732.582 2.597 2.02 4.981 4.132 6.853 2.111 1.872 4.802 3.146 7.73 3.663a16.91 16.91 0 0 0 8.724-.762c2.759-1.013 5.117-2.728 6.776-4.929 1.659-2.201 2.544-4.789 2.544-7.436-.003-3.548-1.595-6.951-4.426-9.46-2.83-2.509-6.669-3.92-10.672-3.923Z" opacity=".19"/>
  <path fill="#fff" d="M201.01 141.436c-3.019 0-5.969-.794-8.479-2.28-2.509-1.487-4.465-3.599-5.62-6.071-1.155-2.472-1.457-5.192-.869-7.816.589-2.624 2.043-5.034 4.177-6.926 2.134-1.892 4.853-3.18 7.813-3.702a17.086 17.086 0 0 1 8.818.77c2.788 1.024 5.171 2.757 6.848 4.982 1.677 2.225 2.572 4.84 2.572 7.515-.007 3.586-1.617 7.023-4.477 9.559-2.861 2.535-6.738 3.962-10.783 3.969Zm0-26.911c-2.987 0-5.906.785-8.389 2.255-2.483 1.471-4.418 3.561-5.56 6.007-1.143 2.445-1.442 5.136-.86 7.732.583 2.597 2.021 4.981 4.132 6.853 2.112 1.872 4.802 3.146 7.731 3.663a16.91 16.91 0 0 0 8.724-.762c2.758-1.013 5.116-2.728 6.775-4.929 1.66-2.201 2.545-4.789 2.545-7.436-.005-3.548-1.598-6.949-4.428-9.458-2.83-2.509-6.668-3.921-10.67-3.925Zm40.837 34.47h-90.072a.087.087 0 0 1-.058-.022.067.067 0 0 1-.016-.025c-.004-.009-.005-.018-.004-.028v-2.223a.055.055 0 0 1 .004-.028.063.063 0 0 1 .016-.024.078.078 0 0 1 .026-.017.086.086 0 0 1 .032-.005h90.072c.01 0 .021.001.031.005.01.004.019.01.026.017a.063.063 0 0 1 .016.024.055.055 0 0 1 .004.028v2.223c.001.01 0 .019-.004.028a.067.067 0 0 1-.042.041.085.085 0 0 1-.031.006Zm-90.014-.144h89.929v-2.085h-89.929v2.085Z" opacity=".19"/>
  <path fill="#fff" d="M246.888 152.878H138.516a.085.085 0 0 1-.031-.006.078.078 0 0 1-.026-.017.063.063 0 0 1-.016-.024.055.055 0 0 1-.004-.028v-42.805a.055.055 0 0 1 .004-.028.063.063 0 0 1 .016-.024.078.078 0 0 1 .026-.017.112.112 0 0 1 .031-.005h108.372c.011 0 .021.002.031.005.01.004.019.01.026.017a.066.066 0 0 1 .017.024.068.068 0 0 1 .004.028v42.793a.07.07 0 0 1 .001.032.07.07 0 0 1-.016.029.07.07 0 0 1-.028.019.084.084 0 0 1-.035.007Zm-108.268-.144h108.216v-42.667H138.601l.019 42.667Z" opacity=".19"/>
  <path fill="#fff" d="M245.443 100.785a.796.796 0 0 0 .162.483.95.95 0 0 0 .437.322c.179.067.376.085.566.052.191-.033.366-.115.503-.236a.846.846 0 0 0 .27-.444.778.778 0 0 0-.055-.502.9.9 0 0 0-.36-.39 1.071 1.071 0 0 0-.545-.147c-.128 0-.255.021-.373.064a.987.987 0 0 0-.318.187.855.855 0 0 0-.212.28.766.766 0 0 0-.075.331Zm-2.488.867c.54 0 .978-.388.978-.867s-.438-.867-.978-.867c-.541 0-.979.388-.979.867s.438.867.979.867Zm-3.467 0c.54 0 .978-.388.978-.867s-.438-.867-.978-.867c-.541 0-.979.388-.979.867s.438.867.979.867Zm10.964 1.12H134.933v.218h115.519v-.218Z"/>
  <path fill="#FAFAFA" d="m151.587 92.824-15.248 75.609h15.092l15.248-75.61h-15.092Zm18.772 0-15.241 75.609h7.543l15.247-75.61h-7.549Z" opacity=".47"/>
  <path fill="#fff" d="m254.703 92.824-15.248 75.609h3.778l15.241-75.61h-3.771Zm-6.642 0-15.248 75.609h3.778l15.241-75.61h-3.771Z" opacity=".4"/>
  <path fill="#fff" d="M214.987 204.781h-7.925c-.813 0-1.593.286-2.167.796-.575.509-.898 1.2-.898 1.921h14.049c0-.357-.078-.71-.231-1.04a2.726 2.726 0 0 0-.663-.881 3.109 3.109 0 0 0-.993-.589 3.396 3.396 0 0 0-1.172-.207Z"/>
  <path fill="#000" d="M214.987 204.781h-7.925c-.813 0-1.593.286-2.167.796-.575.509-.898 1.2-.898 1.921h14.049c0-.357-.078-.71-.231-1.04a2.726 2.726 0 0 0-.663-.881 3.109 3.109 0 0 0-.993-.589 3.396 3.396 0 0 0-1.172-.207Z" opacity=".4"/>
  <path fill="#fff" d="M193.396 175.325a2.6 2.6 0 0 1-.535 1.564 3.125 3.125 0 0 1-1.425 1.037 3.564 3.564 0 0 1-1.835.16 3.328 3.328 0 0 1-1.626-.77 2.74 2.74 0 0 1-.869-1.442 2.525 2.525 0 0 1 .181-1.626c.24-.514.647-.954 1.169-1.263a3.476 3.476 0 0 1 1.764-.474c.843 0 1.65.296 2.246.824.595.528.93 1.244.93 1.99Z"/>
  <path fill="#000" d="M193.396 175.325a2.6 2.6 0 0 1-.535 1.564 3.125 3.125 0 0 1-1.425 1.037 3.564 3.564 0 0 1-1.835.16 3.328 3.328 0 0 1-1.626-.77 2.74 2.74 0 0 1-.869-1.442 2.525 2.525 0 0 1 .181-1.626c.24-.514.647-.954 1.169-1.263a3.476 3.476 0 0 1 1.764-.474c.843 0 1.65.296 2.246.824.595.528.93 1.244.93 1.99Z" opacity=".5"/>
  <path fill="#fff" d="M163.089 197.79c-.447-13.751-.409-97.608.492-104.495l1.225-1.5s-.564 1.333-.7 24.901-.318 77.596-.168 81.094h-.849Z"/>
  <path fill="#fff" d="M170.366 146.789c5.184-7.651 10.86-13.091 14.968-16.083 4.109-2.993-6.661 16.439-10.873 23.671-4.212 7.232-9.402 15.227-11.074 21.982-.324-13.739 1.788-21.919 6.979-29.57ZM163.49 94.26c1.063-8.697-.375-16.733 4.964-26.917 5.34-10.184 9.403-18.18 14.554-21.896 1.238-.896-2.994 16.807-7.912 26.778-3.467 7.037-4.581 12.063-8.262 16.808-.862 1.102-3.344 5.227-3.344 5.227Zm-.026 46.4c1.076-10.736 2.048-21.075 9.001-36.348 1.691-3.723 17.367-29.732 21.455-32.546 2.003-1.385-5.002 15.9-11.845 30.443-5.126 10.914-7.251 14.039-12.96 26.699-2.236 5.014-5.651 11.752-5.651 11.752Zm-9.123-52.977c-5.832-7.002-11.47-11.735-15.611-14.21-4.14-2.476 7.128 14.739 12.546 22.252 5.417 7.513 10.322 14.032 12.564 20.546-1.075-13.711-3.667-21.58-9.499-28.588Zm9.123 72.001c-1.101-7.467-3.369-16.238-6.609-22.74-3.24-6.503-8.23-16.474-12.195-19.858-.953-.815 4.147 18.582 7.426 23.741 3.278 5.158 5.676 10.023 7.737 12.947.687.947 3.641 5.91 3.641 5.91Z"/>
  <path fill="#fff" d="M163.089 197.79c-.447-13.751-.409-97.608.492-104.495l1.225-1.5s-.564 1.333-.7 24.901-.318 77.596-.168 81.094h-.849Z" opacity=".5"/>
  <path fill="#fff" d="M170.366 146.789c5.184-7.651 10.86-13.091 14.968-16.083 4.109-2.993-6.661 16.439-10.873 23.671-4.212 7.232-9.402 15.227-11.074 21.982-.324-13.739 1.788-21.919 6.979-29.57ZM163.49 94.26c1.063-8.697-.375-16.733 4.964-26.917 5.34-10.184 9.403-18.18 14.554-21.896 1.238-.896-2.994 16.807-7.912 26.778-3.467 7.037-4.581 12.063-8.262 16.808-.862 1.102-3.344 5.227-3.344 5.227Zm-.026 46.4c1.076-10.736 2.048-21.075 9.001-36.348 1.691-3.723 17.367-29.732 21.455-32.546 2.003-1.385-5.002 15.9-11.845 30.443-5.126 10.914-7.251 14.039-12.96 26.699-2.236 5.014-5.651 11.752-5.651 11.752Zm-9.123-52.977c-5.832-7.002-11.47-11.735-15.611-14.21-4.14-2.476 7.128 14.739 12.546 22.252 5.417 7.513 10.322 14.032 12.564 20.546-1.075-13.711-3.667-21.58-9.499-28.588Zm9.123 72.001c-1.101-7.467-3.369-16.238-6.609-22.74-3.24-6.503-8.23-16.474-12.195-19.858-.953-.815 4.147 18.582 7.426 23.741 3.278 5.158 5.676 10.023 7.737 12.947.687.947 3.641 5.91 3.641 5.91Z" opacity=".5"/>
  <path fill="#263238" d="M175.802 207.498h-24.559l-1.853-12.511h28.266l-1.854 12.511Z"/>
  <path fill="#263238" d="M179.483 196.446h-31.927l-.914-4.222h33.755l-.914 4.222Z"/>
  <path fill="#fff" d="M149.008 101.422H75.946c-2.502 0-4.53 1.798-4.53 4.015v98.045c0 2.218 2.028 4.016 4.53 4.016h73.062c2.501 0 4.529-1.798 4.529-4.016v-98.045c0-2.217-2.028-4.015-4.529-4.015Z"/>
  <path fill="#000" d="M149.008 101.422H75.946c-2.502 0-4.53 1.798-4.53 4.015v98.045c0 2.218 2.028 4.016 4.53 4.016h73.062c2.501 0 4.529-1.798 4.529-4.016v-98.045c0-2.217-2.028-4.015-4.529-4.015Z" opacity=".6"/>
  <path fill="#fff" d="M146.837 101.422H73.775c-2.502 0-4.53 1.798-4.53 4.015v98.045c0 2.218 2.028 4.016 4.53 4.016h73.062c2.501 0 4.529-1.798 4.529-4.016v-98.045c0-2.217-2.028-4.015-4.529-4.015Z"/>
  <path fill="#000" d="M146.837 101.422H73.775c-2.502 0-4.53 1.798-4.53 4.015v98.045c0 2.218 2.028 4.016 4.53 4.016h73.062c2.501 0 4.529-1.798 4.529-4.016v-98.045c0-2.217-2.028-4.015-4.529-4.015Z" opacity=".3"/>
  <path fill="#FAFAFA" d="M151.366 106.029h-82.12v92.077h82.12v-92.077Z"/>
  <path fill="#fff" d="M151.366 106.029h-82.12v92.077h82.12v-92.077Z" opacity=".1"/>
  <path fill="#FAFAFA" d="m98.36 106.259-18.792 92.077H93.92l18.792-92.077H98.36Zm18.617-.23-18.792 92.083h7.173l18.792-92.083h-7.173Z" opacity=".48"/>
  <path fill="#fff" d="M110.303 205.481c1.703 0 3.084-1.224 3.084-2.734s-1.381-2.734-3.084-2.734c-1.704 0-3.085 1.224-3.085 2.734s1.381 2.734 3.085 2.734Z"/>
  <path fill="#000" d="M110.303 205.481c1.703 0 3.084-1.224 3.084-2.734s-1.381-2.734-3.084-2.734c-1.704 0-3.085 1.224-3.085 2.734s1.381 2.734 3.085 2.734Z" opacity=".5"/>
  <path fill="#fff" d="M111.015 103.542a.578.578 0 0 1-.12.351.697.697 0 0 1-.32.233.797.797 0 0 1-.411.036.748.748 0 0 1-.365-.173.618.618 0 0 1-.196-.324.57.57 0 0 1 .041-.365.65.65 0 0 1 .263-.283.773.773 0 0 1 .396-.107c.189 0 .37.067.504.185a.6.6 0 0 1 .208.447Z"/>
  <path fill="#000" d="M111.015 103.542a.578.578 0 0 1-.12.351.697.697 0 0 1-.32.233.797.797 0 0 1-.411.036.748.748 0 0 1-.365-.173.618.618 0 0 1-.196-.324.57.57 0 0 1 .041-.365.65.65 0 0 1 .263-.283.773.773 0 0 1 .396-.107c.189 0 .37.067.504.185a.6.6 0 0 1 .208.447Z" opacity=".5"/>
  <path fill="#fff" d="m212.874 85.586 4.945-.822a.586.586 0 0 0 .22-.079.506.506 0 0 0 .161-.154.428.428 0 0 0 .04-.41l-3.888-10.207a.703.703 0 0 0-.33-.35.846.846 0 0 0-.506-.087l-4.938.816a.581.581 0 0 0-.222.08.515.515 0 0 0-.163.156.444.444 0 0 0-.036.413l3.888 10.207a.695.695 0 0 0 .325.352c.152.08.33.11.504.085Z"/>
  <path fill="#000" d="m212.874 85.586 4.945-.822a.586.586 0 0 0 .22-.079.506.506 0 0 0 .161-.154.428.428 0 0 0 .04-.41l-3.888-10.207a.703.703 0 0 0-.33-.35.846.846 0 0 0-.506-.087l-4.938.816a.581.581 0 0 0-.222.08.515.515 0 0 0-.163.156.444.444 0 0 0-.036.413l3.888 10.207a.695.695 0 0 0 .325.352c.152.08.33.11.504.085Z" opacity=".6"/>
  <path fill="#fff" d="m213.484 85.506 4.937-.816a.59.59 0 0 0 .223-.08.511.511 0 0 0 .162-.156.433.433 0 0 0 .037-.413l-3.888-10.207a.708.708 0 0 0-.33-.351.85.85 0 0 0-.506-.086l-4.938.822a.573.573 0 0 0-.222.077.508.508 0 0 0-.163.155.432.432 0 0 0-.036.411l3.888 10.207a.703.703 0 0 0 .33.351c.152.08.331.11.506.086Z"/>
  <path fill="#000" d="m213.484 85.506 4.937-.816a.59.59 0 0 0 .223-.08.511.511 0 0 0 .162-.156.433.433 0 0 0 .037-.413l-3.888-10.207a.708.708 0 0 0-.33-.351.85.85 0 0 0-.506-.086l-4.938.822a.573.573 0 0 0-.222.077.508.508 0 0 0-.163.155.432.432 0 0 0-.036.411l3.888 10.207a.703.703 0 0 0 .33.351c.152.08.331.11.506.086Z" opacity=".3"/>
  <path fill="#FAFAFA" d="m212.382 84.374 6.195-1.028-3.486-9.156-6.202 1.028 3.493 9.156Z"/>
  <path fill="#fff" d="m212.382 84.374 6.195-1.028-3.486-9.156-6.202 1.028 3.493 9.156Z" opacity=".14"/>
  <path fill="#E58A7B" d="m208.889 79.176.486-1 4.666 4.647-4.037.276-1.115-3.923Z"/>
  <path fill="#fff" d="M129.179 43.138c5.522 0 9.998-3.968 9.998-8.863s-4.476-8.863-9.998-8.863c-5.522 0-9.999 3.968-9.999 8.863s4.477 8.863 9.999 8.863Zm0 1.665a13.47 13.47 0 0 1-2.048-.155l.11-.574a13.06 13.06 0 0 0 3.888 0l.11.574c-.68.103-1.37.155-2.06.155Zm-5.916-1.401a11.638 11.638 0 0 1-3.156-2.338l.499-.373a10.938 10.938 0 0 0 2.981 2.217l-.324.494Zm11.845 0-.324-.494a10.969 10.969 0 0 0 2.981-2.218l.492.368a11.553 11.553 0 0 1-3.149 2.31v.034ZM118.04 37.91a9.397 9.397 0 0 1-.713-3.595h.648a8.862 8.862 0 0 0 .648 3.394l-.583.201Zm22.278 0-.609-.195a8.88 8.88 0 0 0 .648-3.395h.648a9.41 9.41 0 0 1-.687 3.544v.046Zm-21.682-6.967-.609-.195a10.277 10.277 0 0 1 2.054-3.165l.492.367a9.773 9.773 0 0 0-1.937 2.947v.046Zm21.06-.058a9.688 9.688 0 0 0-1.944-2.975l.499-.373c.891.935 1.593 2 2.073 3.147l-.628.201Zm-16.148-5.17-.324-.493a12.58 12.58 0 0 1 3.888-1.258l.11.574a12.175 12.175 0 0 0-3.674 1.143v.035Zm11.197 0a11.963 11.963 0 0 0-3.655-1.148l.111-.574c1.367.206 2.683.624 3.888 1.235l-.344.488Zm72.22 53.375h-1.944v.574h1.944v-.574Zm-5.839.574h-3.888v-.574h3.888v.574Zm-7.828-.396a13.754 13.754 0 0 1-3.628-1.454l.356-.476a13.133 13.133 0 0 0 3.441 1.373l-.169.557Zm-6.59-3.803a11.186 11.186 0 0 1-2.034-3.027l.602-.213a10.823 10.823 0 0 0 1.944 2.873l-.512.367Zm-2.942-6.462v-.885c-.001-.885.112-1.768.337-2.63l.648.132a9.83 9.83 0 0 0-.317 2.498v.845l-.668.04Zm2.346-6.49-.557-.294a12.033 12.033 0 0 1 2.527-2.722l.434.43a11.405 11.405 0 0 0-2.404 2.568v.017Zm5.573-4.418-.266-.523a14.14 14.14 0 0 1 3.83-.936l.078.575a13.689 13.689 0 0 0-3.642.867v.017Zm15.707-.965h-.427v-.574h.427c1.128 0 2.251-.136 3.338-.402l.175.574a14.678 14.678 0 0 1-3.513.385v.017Zm-4.322 0h-3.888v-.574h3.888v.574Zm11.457-1.884-.357-.477a12.06 12.06 0 0 0 2.813-2.24l.505.362a12.599 12.599 0 0 1-2.961 2.338v.017Zm4.983-5.388-.603-.212c.467-1.046.753-2.148.849-3.269l.648.046a10.619 10.619 0 0 1-.894 3.418v.017Zm-.052-6.818a10.281 10.281 0 0 0-1.419-3.108l.557-.292a10.772 10.772 0 0 1 1.491 3.268l-.629.132Zm-3.83-5.687a12.804 12.804 0 0 0-3.168-1.82l.259-.523a13.244 13.244 0 0 1 3.337 1.913l-.428.43Zm-6.816-2.705c-.47-.046-.941-.069-1.413-.069h-2.443v-.574h2.436c.498-.005.996.02 1.491.074l-.071.569Zm-7.777-.069h-3.888v-.574h3.888v.574Zm-7.776 0h-3.888v-.574h3.888v.574Zm-7.776 0h-3.888v-.574h3.888v.574Zm-7.776 0h-3.888v-.574h3.888v.574Zm-7.776 0h-3.888v-.574h3.888v.574Zm-7.775 0h-3.888v-.574h3.888v.574Zm-7.776 0h-3.888v-.574h3.888v.574Zm-7.893-.592h-1.944v.575h1.944v-.575Zm-17.036 12.666h-.544v1.442h.544v-1.442ZM61.56 142.038h-.538v-2.872h.538v2.872Zm0-5.744h-.538v-2.872h.538v2.872Zm59.143-1.476a9.764 9.764 0 0 1-1.886-.184l.117-.465a9.567 9.567 0 0 0 3.136.069l.084.471c-.484.062-.974.089-1.464.08l.013.029Zm-33.398 0-.032-.482a9.111 9.111 0 0 0 3.032-.695l.234.43a9.646 9.646 0 0 1-3.247.701l.013.046Zm-3.324-.408a9.084 9.084 0 0 1-2.91-1.453l.35-.368a8.552 8.552 0 0 0 2.728 1.368l-.168.453Zm41.29-.752-.285-.408a7.996 7.996 0 0 0 2.307-1.878l.441.287a8.518 8.518 0 0 1-2.463 1.982v.017Zm-9.532-.213a8.332 8.332 0 0 1-2.345-2.102l.453-.27a7.783 7.783 0 0 0 2.203 1.976l-.311.396Zm-22.537-1.148-.395-.322a7.216 7.216 0 0 0 1.632-2.372l.512.166a7.687 7.687 0 0 1-1.75 2.493v.035Zm-14.217-1.632a7.037 7.037 0 0 1-.96-2.837l.538-.046c.103.93.41 1.833.901 2.659l-.48.224Zm-17.425-.172h-.538v-2.872h.538v2.872Zm67.625-1.522-.525-.121a6.71 6.71 0 0 0 .26-1.827v-.982h.544v.982a7.092 7.092 0 0 1-.292 1.948h.013Zm-17.081-.379a7.04 7.04 0 0 1-.181-1.569v-1.355h.544v1.355c.001.494.057.987.168 1.471l-.531.098Zm-16.615-1.77h-.538v-2.872h.538v2.872Zm-16.97-1.935h-.545v-2.872h.544v2.872Zm-16.959-.167h-.538v-2.872h.538v2.872Zm67.904-1.562h-.544v-2.872h.544v2.872Zm-16.978-.379h-.544v-2.034a5.784 5.784 0 0 0-.052-.821l.538-.058c.039.292.058.586.058.879v2.034Zm-16.977-1.724h-.538v-.304a6.985 6.985 0 0 1 .505-2.614l.512.161a6.516 6.516 0 0 0-.48 2.453v.304Zm-17.704-1.872a6.84 6.84 0 0 0-1.25-2.551l.447-.269a7.203 7.203 0 0 1 1.296 2.716l-.493.104Zm-16.012-.161-.525-.115a7.325 7.325 0 0 1 1.4-2.688l.434.281a7.019 7.019 0 0 0-1.322 2.516l.013.006Zm67.671-1.637h-.544v-2.872h.544v2.872Zm-18.513-.103a7.59 7.59 0 0 0-1.99-2.149l.344-.367a8.047 8.047 0 0 1 2.125 2.297l-.479.219Zm-13.362-1.368-.408-.321a8.707 8.707 0 0 1 2.656-1.798l.24.431a8.05 8.05 0 0 0-2.501 1.683l.013.005Zm-23.263-1.229a8.7 8.7 0 0 0-2.89-1.068l.11-.471c1.1.202 2.146.592 3.078 1.149l-.298.39Zm-8.943-.086-.285-.408a9.255 9.255 0 0 1 3.11-1.08l.098.477a8.774 8.774 0 0 0-2.936 1.005l.013.006Zm40.824-.793a9.112 9.112 0 0 0-2.475-.338h-.648l-.039-.483h.648c.896 0 1.788.12 2.644.356l-.13.465Zm23.257-2.194h-.544v-2.872h.544v2.872Zm0-5.773h-.544v-2.872h.544v2.872Zm0-5.772h-.544v-2.872h.544v2.872Zm0-5.744h-.544V91.45h.544v2.872Zm0-5.773h-.544v-2.872h.544v2.872Zm0-5.779h-.544V79.9h.544v2.872Zm0-5.744h-.544v-2.872h.544v2.872Zm0-5.772h-.544v-2.872h.544v2.872Zm0-5.773h-.544V62.61h.544v2.872Zm0-5.744h-.544v-2.872h.544v2.872Zm0-5.773h-.544v-2.872h.544v2.872Zm-67.911 91.02h-.544v1.442h.544v-1.442Z"/>
  <path fill="#fff" d="M127.954 38.594a1.06 1.06 0 0 1-.687-.253l-3.395-3.01a.818.818 0 0 1-.282-.608c0-.228.101-.447.282-.61a.966.966 0 0 1 .314-.187 1.077 1.077 0 0 1 .745 0 .966.966 0 0 1 .314.188l2.709 2.4 5.152-4.566c.184-.152.428-.235.679-.23.252.003.493.093.671.251.178.158.28.371.284.594a.806.806 0 0 1-.261.603l-5.832 5.17a.978.978 0 0 1-.317.191 1.071 1.071 0 0 1-.376.067Z"/>
  <path fill="#E58A7B" d="M249.804 55.78c-.648 2.872-2.061 8.616.194 10.54 0 0-.881 2.873-6.862 2.873-6.584 0-3.149-2.872-3.149-2.872 3.596-.759 3.499-3.12 2.877-5.337l6.94-5.204Z"/>
  <path fill="#fff" d="M236.701 67.303c0-.431.739-.873 1.815-1.218.577-.19 1.14-.907 2.015-1.04.648-.097 1.484.397 2.313.345.694-.046 1.42-.643 2.223-.649.804-.006 1.452.574 2.242.615.493 0 .985-.529 1.4-.494.415.034.862.66 1.257.723.525.08 1.115-.384 1.471-.281.57.16.648.844.901 1.028.725.523 1.296 1.017.648 1.109-1.601.224-1.666-.575-3.286-.575s-1.62.575-3.24.546c-1.62-.029-1.613-.574-3.24-.574-1.626 0-1.594.396-3.24.545a9.594 9.594 0 0 1-3.279-.08Z"/>
  <path fill="#000" d="M236.701 67.303c0-.431.739-.873 1.815-1.218.577-.19 1.14-.907 2.015-1.04.648-.097 1.484.397 2.313.345.694-.046 1.42-.643 2.223-.649.804-.006 1.452.574 2.242.615.493 0 .985-.529 1.4-.494.415.034.862.66 1.257.723.525.08 1.115-.384 1.471-.281.57.16.648.844.901 1.028.725.523 1.296 1.017.648 1.109-1.601.224-1.666-.575-3.286-.575s-1.62.575-3.24.546c-1.62-.029-1.613-.574-3.24-.574-1.626 0-1.594.396-3.24.545a9.594 9.594 0 0 1-3.279-.08Z" opacity=".6"/>
  <path fill="#E58A7B" d="M261.572 72.507c.842 1.58 1.503 3.09 2.17 4.664.668 1.574 1.206 3.16 1.724 4.762.525 1.619.958 3.26 1.296 4.917.156.833.318 1.666.421 2.522.065.419.123.844.156 1.275l.11 1.32a7.32 7.32 0 0 1-.648 3.195 17.36 17.36 0 0 1-1.328 2.47 36.203 36.203 0 0 1-3.24 4.227 67.66 67.66 0 0 1-7.569 7.278l-2.022-1.654c1.069-1.253 2.165-2.539 3.188-3.837 1.024-1.299 2.048-2.597 2.975-3.924a36.974 36.974 0 0 0 2.514-4.02 13.44 13.44 0 0 0 .868-1.96c.19-.496.278-1.02.259-1.544l-.162-1.086a13.536 13.536 0 0 0-.2-1.149 35.052 35.052 0 0 0-.512-2.246 32.546 32.546 0 0 0-.648-2.24c-.247-.747-.467-1.493-.726-2.234a75.755 75.755 0 0 0-1.711-4.417 98.11 98.11 0 0 0-1.944-4.303l5.029-2.016Z"/>
  <path fill="#fff" d="M259.362 67.418c2.255.436 4.659 7.628 4.659 7.628l-8.878 5.02s-2.786-5.744-1.71-8.248c1.127-2.585 3.266-4.917 5.929-4.4Z"/>
  <path fill="#fff" d="M259.362 67.418c2.255.436 4.659 7.628 4.659 7.628l-8.878 5.02s-2.786-5.744-1.71-8.248c1.127-2.585 3.266-4.917 5.929-4.4Z" opacity=".6"/>
  <path fill="#fff" d="m258.157 69.865-3.033 10.155v.046l3.551-2.01-.518-8.191Z" opacity=".28"/>
  <path fill="#fff" d="M230.811 67.556s-2.592.81 2.592 29.036h22.032c-.369-7.95-.382-12.855 3.888-29.174a73.482 73.482 0 0 0-9.363-1.097 80.786 80.786 0 0 0-10.012 0c-4.257.35-9.137 1.235-9.137 1.235Z"/>
  <path fill="#fff" d="M230.811 67.556s-2.592.81 2.592 29.036h22.032c-.369-7.95-.382-12.855 3.888-29.174a73.482 73.482 0 0 0-9.363-1.097 80.786 80.786 0 0 0-10.012 0c-4.257.35-9.137 1.235-9.137 1.235Z" opacity=".6"/>
  <path fill="#E58A7B" d="m253.692 106.839-5.249-1.401 2.19 4.491s3.467.299 4.718-1.367l-1.659-1.723Zm-9.5.08 2.061 3.671 4.38-.649-2.19-4.492-4.251 1.47Zm23.387 97.988h-5.424l-1.75-11.143h5.431l1.743 11.143Zm-24.663 0h-5.424l-.363-11.143h5.424l.363 11.143Z"/>
  <path fill="#CF6F64" d="m237.129 193.769.188 5.739h5.43l-.188-5.739h-5.43Zm28.707 0h-5.431l.901 5.739h5.43l-.9-5.739Z"/>
  <path fill="#fff" d="M239.229 96.592s3.149 33.028 6.421 51.639c2.638 15.032 14.347 50.168 14.347 50.168h7.4s-6.097-33.936-7.439-48.824c-3.389-37.624 2.553-44.281-4.503-53.006l-16.226.023Z"/>
  <path fill="#000" d="M239.229 96.592s3.149 33.028 6.421 51.639c2.638 15.032 14.347 50.168 14.347 50.168h7.4s-6.097-33.936-7.439-48.824c-3.389-37.624 2.553-44.281-4.503-53.006l-16.226.023Z" opacity=".6"/>
  <path fill="#000" d="M245.955 109.585s-3.033 8.375-2.987 20.454c.524 4.085 1.082 8.14 1.652 11.896 1.737-3.503 4.931-13.716 1.335-32.35Z" opacity=".4"/>
  <path fill="#fff" d="M233.41 96.592s-4.284 37.066-3.927 51.736c.369 15.262 6.681 50.071 6.681 50.071h7.335s-1.16-33.89-.512-48.905c.706-16.341 6.564-52.902 6.564-52.902H233.41Z"/>
  <path fill="#000" d="M233.41 96.592s-4.284 37.066-3.927 51.736c.369 15.262 6.681 50.071 6.681 50.071h7.335s-1.16-33.89-.512-48.905c.706-16.341 6.564-52.902 6.564-52.902H233.41Z" opacity=".6"/>
  <path fill="#fff" d="M259.958 205.188a1.733 1.733 0 0 1-1.037-.247.655.655 0 0 1-.194-.28.604.604 0 0 1-.02-.329.367.367 0 0 1 .082-.191.434.434 0 0 1 .178-.13c.648-.247 2.281.689 2.462.798a.13.13 0 0 1 .049.05c.01.02.013.043.009.065a.102.102 0 0 1-.032.06.133.133 0 0 1-.065.032 7.317 7.317 0 0 1-1.432.172Zm-.726-.993a.372.372 0 0 0-.162.028c-.039 0-.09.046-.103.144a.365.365 0 0 0 .003.217c.023.07.066.134.126.185.272.224.985.253 1.944.086a5.038 5.038 0 0 0-1.808-.66Z"/>
  <path fill="#fff" d="M261.358 205.022a.118.118 0 0 1-.059 0c-.518-.258-1.503-1.298-1.386-1.838a.392.392 0 0 1 .153-.228.486.486 0 0 1 .281-.094.737.737 0 0 1 .292.022.663.663 0 0 1 .252.133c.59.46.596 1.85.596 1.907a.091.091 0 0 1-.017.057.117.117 0 0 1-.047.041.12.12 0 0 1-.065 0Zm-.92-1.953h-.059c-.162 0-.201.081-.214.132-.071.333.545 1.115 1.057 1.476a2.372 2.372 0 0 0-.499-1.51.444.444 0 0 0-.285-.098Zm-25.175 2.119a2.262 2.262 0 0 1-1.296-.293.64.64 0 0 1-.197-.261.568.568 0 0 1-.03-.313.337.337 0 0 1 .061-.177.38.38 0 0 1 .153-.127c.648-.322 2.832.66 3.071.769a.12.12 0 0 1 .058.05.105.105 0 0 1 .014.071.106.106 0 0 1-.035.061.132.132 0 0 1-.069.031c-.569.111-1.148.174-1.73.189Zm-.966-.993a.555.555 0 0 0-.239.04.151.151 0 0 0-.085.126.37.37 0 0 0 .024.197.41.41 0 0 0 .125.165c.331.264 1.225.31 2.424.132a7.62 7.62 0 0 0-2.249-.66Z"/>
  <path fill="#fff" d="M236.948 205.022h-.052c-.648-.258-1.944-1.298-1.828-1.844 0-.126.13-.287.486-.321a1.034 1.034 0 0 1 .713.201c.681.499.804 1.798.81 1.849a.106.106 0 0 1-.011.058.128.128 0 0 1-.041.046.135.135 0 0 1-.077.011Zm-1.296-1.953h-.078c-.233 0-.253.104-.259.132-.059.328.81 1.149 1.471 1.494a2.523 2.523 0 0 0-.694-1.482.727.727 0 0 0-.434-.144h-.006Z"/>
  <path fill="#263238" d="M236.76 50.72a.31.31 0 0 1-.124-.014.28.28 0 0 1-.103-.06 2.03 2.03 0 0 0-.771-.505 2.264 2.264 0 0 0-.946-.133.283.283 0 0 1-.191-.045.227.227 0 0 1-.101-.15.214.214 0 0 1 .05-.167.269.269 0 0 1 .164-.092c.407-.03.817.025 1.195.162.378.137.715.35.982.625a.222.222 0 0 1 .072.16c0 .06-.026.118-.072.162a.31.31 0 0 1-.155.057Z"/>
  <path fill="#DF5753" d="M235.632 53.575a9.645 9.645 0 0 1-1.147 2.647 2.104 2.104 0 0 0 1.588.063l-.441-2.71Z"/>
  <path fill="#263238" d="M235.917 52.845c.059.385-.116.724-.401.758-.286.035-.564-.247-.648-.626-.085-.379.116-.73.401-.764.285-.034.603.27.648.632Z"/>
  <path fill="#263238" d="m235.418 52.27-1.082-.132s.648.62 1.082.133Zm26.374 152.08h6.098a.454.454 0 0 1 .285.091c.079.06.13.145.142.237l.7 4.279a.69.69 0 0 1-.038.321.767.767 0 0 1-.184.28.873.873 0 0 1-.295.189.988.988 0 0 1-.358.066c-2.125-.035-3.149-.144-5.832-.144-1.646 0-4.056.15-6.337.15-2.281 0-2.398-1.999-1.452-2.177 4.258-.81 4.925-1.93 6.364-2.999.254-.189.575-.293.907-.293Zm-24.488 0h6.098a.47.47 0 0 1 .286.092c.08.06.132.144.148.236l.693 4.279a.685.685 0 0 1-.038.32.776.776 0 0 1-.181.279.884.884 0 0 1-.294.189.995.995 0 0 1-.355.068c-2.125-.035-3.149-.144-5.832-.144-1.652 0-5.061.149-7.342.149-2.281 0-2.397-1.998-1.451-2.177 4.25-.809 5.929-1.93 7.361-2.998.255-.188.576-.291.907-.293Z"/>
  <path fill="#fff" d="M230.176 72.117v.114c.065 3.211.564 8.616 2.067 17.704l3.072-10.667-5.139-7.151Z" opacity=".28"/>
  <path fill="#E58A7B" d="M234.537 73.765c-.609 2.728-1.296 5.4-2.112 8.082-.817 2.682-1.646 5.348-2.722 8.042l-.421 1.005-.46 1.01a4.89 4.89 0 0 1-.37.696 4.244 4.244 0 0 1-.648.827 4.436 4.436 0 0 1-2.209 1.149 5.479 5.479 0 0 1-2.165 0 7.888 7.888 0 0 1-1.574-.46 13.27 13.27 0 0 1-2.359-1.27 27.39 27.39 0 0 1-3.642-2.969 29.892 29.892 0 0 1-1.581-1.602 29.676 29.676 0 0 1-1.471-1.695l2.054-1.614a48.47 48.47 0 0 0 7.031 4.676c.54.278 1.108.508 1.698.689.499.166.946.12.771.092a.706.706 0 0 0-.292.103l.091-.247.344-.907.324-.937c.842-2.521 1.561-5.17 2.274-7.766l2.028-7.903 5.411 1Z"/>
  <path fill="#E58A7B" d="m212.972 86.821-2.968-3.722 4.037-.276s2.281 2.332 1.477 4.205l-2.546-.207Z"/>
  <path fill="#E58A7B" d="m212.725 82.14.856-.465.395-1.764.655.724.486 4.141-2.392-2.636Zm37.546-32.443c.44 4.756.738 6.761-1.556 9.53-3.453 4.153-10.147 3.59-12.176-.96-1.833-4.095-2.242-11.189 2.67-13.728a8.06 8.06 0 0 1 3.554-.904 8.12 8.12 0 0 1 3.601.747c1.109.517 2.05 1.276 2.733 2.207.684.93 1.088 2 1.174 3.108Z"/>
  <path fill="#263238" d="M238.276 44.005c-1.097.409-1.997 1.148-2.538 2.088a4.02 4.02 0 0 0-.423 3.047s4.218-1.614 4.387 4.377c.123 4.325-3.24 10.161-3.24 10.161s7.821 1.436 19.077-1.62c4.788-1.298 2.631-26.778-17.263-18.053Z"/>
  <path fill="#263238" d="M237.874 46.653c-.764 1.631-.563 4.86 2.45 4.515 3.013-.345 2.132-3.039 2.132-3.039l-4.582-1.476Z"/>
  <path fill="#E58A7B" d="M241.231 53.098c.031.923-.348 1.82-1.056 2.498-.946.885-2.132.287-2.456-.838-.298-1.006-.162-2.689 1.075-3.16.273-.098.57-.135.862-.106.293.028.573.121.815.27.243.149.439.35.571.582.133.234.198.492.189.754Z"/>
  <path fill="#fff" d="M267.948 198.612h-8.456l-.901-2.614 9.649.201-.292 2.413ZM252.785 97.648h.583c.123 0 .214-.051.201-.12l-.279-2.298c0-.063-.11-.12-.233-.12h-.596c-.117 0-.208.057-.201.12l.279 2.298c.025.08.129.12.246.12Zm-14.489 0h.596c.116 0 .207-.051.201-.12l-.279-2.298c0-.063-.117-.12-.233-.12h-.596c-.124 0-.214.057-.201.12l.278 2.298c.007.08.11.12.234.12Zm5.767 100.964H235.6l-.609-2.235 9.389-.379-.317 2.614Z"/>
  <path fill="#fff" d="m255.785 95.448.991 1.724c.078.138-.103.276-.356.276h-23.14c-.201 0-.363-.087-.376-.196l-.201-1.723c0-.12.162-.224.376-.224h22.324a.457.457 0 0 1 .213.025.404.404 0 0 1 .169.118Z"/>
  <path fill="#000" d="m255.785 95.448.991 1.724c.078.138-.103.276-.356.276h-23.14c-.201 0-.363-.087-.376-.196l-.201-1.723c0-.12.162-.224.376-.224h22.324a.457.457 0 0 1 .213.025.404.404 0 0 1 .169.118Z" opacity=".1"/>
  <path fill="#000" d="M252.785 97.648h.583c.123 0 .214-.051.201-.12l-.279-2.298c0-.063-.11-.12-.233-.12h-.596c-.117 0-.208.057-.201.12l.279 2.298c.025.08.129.12.246.12Zm-14.489 0h.596c.116 0 .207-.051.201-.12l-.279-2.298c0-.063-.117-.12-.233-.12h-.596c-.124 0-.214.057-.201.12l.278 2.298c.007.08.11.12.234.12Z" opacity=".6"/>
  <path fill="#fff" d="M230.811 67.555c-2.235.506-3.797 8.668-3.797 8.668l8.631 5.198s3.467-9.719 1.724-11.918c-1.795-2.252-3.292-2.683-6.558-1.948Z"/>
  <path fill="#fff" d="M230.811 67.555c-2.235.506-3.797 8.668-3.797 8.668l8.631 5.198s3.467-9.719 1.724-11.918c-1.795-2.252-3.292-2.683-6.558-1.948Z" opacity=".6"/>
  <path fill="#fff" d="M108.384 172.798a.137.137 0 0 0 0-.057 49.6 49.6 0 0 0 .467-2.798c1.834 1.81 3.428 2.269 4.568 2.269.121.006.242.006.363 0 2.236-.195 4.122-2.136 5.055-5.169a.4.4 0 0 0-.065-.356.604.604 0 0 0-.344-.224 12.464 12.464 0 0 0-4.86-.199 11.898 11.898 0 0 0-4.49 1.663c.078-.884.123-1.769.136-2.659.362.056.728.085 1.095.086 3.694 0 5.981-2.912 6.091-3.056a.369.369 0 0 0 .074-.185.373.373 0 0 0-.035-.194.51.51 0 0 0-.133-.178.603.603 0 0 0-.204-.115c-2.307-.77-4.179-.839-5.56-.195-.878.423-1.553 1.115-1.898 1.947-.976-1.885-2.455-3.531-4.309-4.797-1.853-1.266-4.026-2.113-6.331-2.469a.465.465 0 0 0-.379.082.387.387 0 0 0-.117.144.343.343 0 0 0-.03.176c.234 2.97.856 6.594 3.616 8.329a6.946 6.946 0 0 0 3.759.982 14.04 14.04 0 0 0 3.376-.477 42.488 42.488 0 0 1-.648 6.319c-1.536-1.545-5.443-4.98-10.776-6.164a.472.472 0 0 0-.357.042.416.416 0 0 0-.13.115.358.358 0 0 0-.064.154c-.395 2.556.291 4.629 1.976 5.996 1.4 1.149 3.409 1.723 5.832 1.723a18.824 18.824 0 0 0 3.201-.298 64.112 64.112 0 0 1-1.296 5.101c-1.678-1.184-6.531-4.176-11.158-2.93a.435.435 0 0 0-.163.088.363.363 0 0 0-.126.321.39.39 0 0 0 .062.171c1.71 2.826 3.422 4.394 5.372 4.94.508.14 1.036.212 1.568.213a8.83 8.83 0 0 0 3.888-1.052 73.481 73.481 0 0 1-2.326 5.997c-1.322-1.094-2.932-1.877-4.683-2.279a12.174 12.174 0 0 0-5.342-.018.438.438 0 0 0-.154.06.392.392 0 0 0-.115.109.331.331 0 0 0-.048.29 5.992 5.992 0 0 0 1.497 2.519 7.032 7.032 0 0 0 2.611 1.657 6.73 6.73 0 0 0 2.314.408 6.78 6.78 0 0 0 2.993-.712 65.55 65.55 0 0 1-3.492 6.554.422.422 0 0 0-.025.338c.04.111.125.206.238.265a.56.56 0 0 0 .502.028.404.404 0 0 0 .16-.137 72.335 72.335 0 0 0 4.179-8.042.595.595 0 0 0 .058-.138c.242-.54.482-1.097.719-1.671 1.562 1.596 3.461 2.481 5.366 2.481h.616a5.462 5.462 0 0 0 2.854-1.093c.801-.617 1.366-1.439 1.617-2.353a.445.445 0 0 0-.055-.302.522.522 0 0 0-.243-.215 11.393 11.393 0 0 0-4.664-1.167 11.529 11.529 0 0 0-4.752.839 69.469 69.469 0 0 0 1.471-4.159.348.348 0 0 0 .065-.195c.123-.408.253-.815.369-1.235 1.873 1.804 3.603 2.688 5.269 2.688 2.021 0 3.888-1.326 5.683-4.02a.426.426 0 0 0 .022-.317.485.485 0 0 0-.21-.258c-3.765-2.297-8.269-.729-10.278.19.285-1.076.536-2.172.752-3.286l.006-.115Z"/>
  <path fill="#000" d="M108.384 172.798a.137.137 0 0 0 0-.057 49.6 49.6 0 0 0 .467-2.798c1.834 1.81 3.428 2.269 4.568 2.269.121.006.242.006.363 0 2.236-.195 4.122-2.136 5.055-5.169a.4.4 0 0 0-.065-.356.604.604 0 0 0-.344-.224 12.464 12.464 0 0 0-4.86-.199 11.898 11.898 0 0 0-4.49 1.663c.078-.884.123-1.769.136-2.659.362.056.728.085 1.095.086 3.694 0 5.981-2.912 6.091-3.056a.369.369 0 0 0 .074-.185.373.373 0 0 0-.035-.194.51.51 0 0 0-.133-.178.603.603 0 0 0-.204-.115c-2.307-.77-4.179-.839-5.56-.195-.878.423-1.553 1.115-1.898 1.947-.976-1.885-2.455-3.531-4.309-4.797-1.853-1.266-4.026-2.113-6.331-2.469a.465.465 0 0 0-.379.082.387.387 0 0 0-.117.144.343.343 0 0 0-.03.176c.234 2.97.856 6.594 3.616 8.329a6.946 6.946 0 0 0 3.759.982 14.04 14.04 0 0 0 3.376-.477 42.488 42.488 0 0 1-.648 6.319c-1.536-1.545-5.443-4.98-10.776-6.164a.472.472 0 0 0-.357.042.416.416 0 0 0-.13.115.358.358 0 0 0-.064.154c-.395 2.556.291 4.629 1.976 5.996 1.4 1.149 3.409 1.723 5.832 1.723a18.824 18.824 0 0 0 3.201-.298 64.112 64.112 0 0 1-1.296 5.101c-1.678-1.184-6.531-4.176-11.158-2.93a.435.435 0 0 0-.163.088.363.363 0 0 0-.126.321.39.39 0 0 0 .062.171c1.71 2.826 3.422 4.394 5.372 4.94.508.14 1.036.212 1.568.213a8.83 8.83 0 0 0 3.888-1.052 73.481 73.481 0 0 1-2.326 5.997c-1.322-1.094-2.932-1.877-4.683-2.279a12.174 12.174 0 0 0-5.342-.018.438.438 0 0 0-.154.06.392.392 0 0 0-.115.109.331.331 0 0 0-.048.29 5.992 5.992 0 0 0 1.497 2.519 7.032 7.032 0 0 0 2.611 1.657 6.73 6.73 0 0 0 2.314.408 6.78 6.78 0 0 0 2.993-.712 65.55 65.55 0 0 1-3.492 6.554.422.422 0 0 0-.025.338c.04.111.125.206.238.265a.56.56 0 0 0 .502.028.404.404 0 0 0 .16-.137 72.335 72.335 0 0 0 4.179-8.042.595.595 0 0 0 .058-.138c.242-.54.482-1.097.719-1.671 1.562 1.596 3.461 2.481 5.366 2.481h.616a5.462 5.462 0 0 0 2.854-1.093c.801-.617 1.366-1.439 1.617-2.353a.445.445 0 0 0-.055-.302.522.522 0 0 0-.243-.215 11.393 11.393 0 0 0-4.664-1.167 11.529 11.529 0 0 0-4.752.839 69.469 69.469 0 0 0 1.471-4.159.348.348 0 0 0 .065-.195c.123-.408.253-.815.369-1.235 1.873 1.804 3.603 2.688 5.269 2.688 2.021 0 3.888-1.326 5.683-4.02a.426.426 0 0 0 .022-.317.485.485 0 0 0-.21-.258c-3.765-2.297-8.269-.729-10.278.19.285-1.076.536-2.172.752-3.286l.006-.115Z" opacity=".3"/>
  <path fill="#fff" d="M84.888 184.441a8.374 8.374 0 0 0 2.158.305 7.256 7.256 0 0 0 2.692-.527 6.534 6.534 0 0 0 2.207-1.465 5.64 5.64 0 0 0 1.329-2.142c.266-.79.338-1.621.213-2.437a.37.37 0 0 0-.164-.222.453.453 0 0 0-.29-.065 13.209 13.209 0 0 0-5.049 1.541c-1.533.84-2.836 1.971-3.815 3.312a63.987 63.987 0 0 1-2.223-6.289 8.066 8.066 0 0 0 3.448.901 5.2 5.2 0 0 0 1.47-.206c2.521-.741 4.251-3.407 5.748-6.181a.338.338 0 0 0 0-.322.346.346 0 0 0-.102-.13.417.417 0 0 0-.157-.077c-4.931-1.246-9.415 3.028-10.828 4.556a47.185 47.185 0 0 1-1.14-5.618c1.044.177 2.105.269 3.168.276 2.592 0 4.64-.609 6.026-1.81 1.647-1.419 2.21-3.544 1.64-6.14a.347.347 0 0 0-.067-.14.433.433 0 0 0-.288-.151.487.487 0 0 0-.17.015c-5.262 1.241-8.975 4.71-10.491 6.353 0-.339-.065-.678-.09-1.017a.374.374 0 0 0-.11-.229 4.092 4.092 0 0 0-.851-1.763 4.76 4.76 0 0 0-1.625-1.265c-1.439-.631-3.338-.54-5.631.27a.511.511 0 0 0-.18.107.43.43 0 0 0-.112.163.353.353 0 0 0 .058.357c.117.137 2.592 3.021 6.299 3.021.4-.001.8-.036 1.192-.104.078.935.188 1.871.33 2.809a12.487 12.487 0 0 0-4.65-1.643 13.02 13.02 0 0 0-4.998.248.5.5 0 0 0-.177.075.438.438 0 0 0-.189.291.37.37 0 0 0 .016.168c1.147 3.09 3.188 5.037 5.47 5.204.103.006.207.006.31 0 1.167 0 2.78-.471 4.536-2.378.43 2.149.992 4.276 1.685 6.37-2.087-.908-6.804-2.47-10.498-.092a.44.44 0 0 0-.132.112.389.389 0 0 0-.074.149.364.364 0 0 0 .064.313c1.99 2.717 3.946 4.021 5.98 4.021h.053c1.691 0 3.395-.936 5.184-2.803a74.32 74.32 0 0 0 2.358 5.79c-2.047-1.189-4.445-.999-7.4.575a.507.507 0 0 0-.16.14.442.442 0 0 0-.08.187.333.333 0 0 0 .03.184c.027.059.07.11.126.149.15.104 2.67 1.786 5.489 1.786a5.924 5.924 0 0 0 3.045-.798 78.281 78.281 0 0 0 5.502 9.547.436.436 0 0 0 .167.137.493.493 0 0 0 .222.046.544.544 0 0 0 .291-.08.462.462 0 0 0 .229-.276.41.41 0 0 0-.054-.339 80.8 80.8 0 0 1-6.94-12.769Z"/>
  <path fill="#fff" d="M84.888 184.441a8.374 8.374 0 0 0 2.158.305 7.256 7.256 0 0 0 2.692-.527 6.534 6.534 0 0 0 2.207-1.465 5.64 5.64 0 0 0 1.329-2.142c.266-.79.338-1.621.213-2.437a.37.37 0 0 0-.164-.222.453.453 0 0 0-.29-.065 13.209 13.209 0 0 0-5.049 1.541c-1.533.84-2.836 1.971-3.815 3.312a63.987 63.987 0 0 1-2.223-6.289 8.066 8.066 0 0 0 3.448.901 5.2 5.2 0 0 0 1.47-.206c2.521-.741 4.251-3.407 5.748-6.181a.338.338 0 0 0 0-.322.346.346 0 0 0-.102-.13.417.417 0 0 0-.157-.077c-4.931-1.246-9.415 3.028-10.828 4.556a47.185 47.185 0 0 1-1.14-5.618c1.044.177 2.105.269 3.168.276 2.592 0 4.64-.609 6.026-1.81 1.647-1.419 2.21-3.544 1.64-6.14a.347.347 0 0 0-.067-.14.433.433 0 0 0-.288-.151.487.487 0 0 0-.17.015c-5.262 1.241-8.975 4.71-10.491 6.353 0-.339-.065-.678-.09-1.017a.374.374 0 0 0-.11-.229 4.092 4.092 0 0 0-.851-1.763 4.76 4.76 0 0 0-1.625-1.265c-1.439-.631-3.338-.54-5.631.27a.511.511 0 0 0-.18.107.43.43 0 0 0-.112.163.353.353 0 0 0 .058.357c.117.137 2.592 3.021 6.299 3.021.4-.001.8-.036 1.192-.104.078.935.188 1.871.33 2.809a12.487 12.487 0 0 0-4.65-1.643 13.02 13.02 0 0 0-4.998.248.5.5 0 0 0-.177.075.438.438 0 0 0-.189.291.37.37 0 0 0 .016.168c1.147 3.09 3.188 5.037 5.47 5.204.103.006.207.006.31 0 1.167 0 2.78-.471 4.536-2.378.43 2.149.992 4.276 1.685 6.37-2.087-.908-6.804-2.47-10.498-.092a.44.44 0 0 0-.132.112.389.389 0 0 0-.074.149.364.364 0 0 0 .064.313c1.99 2.717 3.946 4.021 5.98 4.021h.053c1.691 0 3.395-.936 5.184-2.803a74.32 74.32 0 0 0 2.358 5.79c-2.047-1.189-4.445-.999-7.4.575a.507.507 0 0 0-.16.14.442.442 0 0 0-.08.187.333.333 0 0 0 .03.184c.027.059.07.11.126.149.15.104 2.67 1.786 5.489 1.786a5.924 5.924 0 0 0 3.045-.798 78.281 78.281 0 0 0 5.502 9.547.436.436 0 0 0 .167.137.493.493 0 0 0 .222.046.544.544 0 0 0 .291-.08.462.462 0 0 0 .229-.276.41.41 0 0 0-.054-.339 80.8 80.8 0 0 1-6.94-12.769Z" opacity=".5"/>
  <path fill="#263238" d="M102.708 207.498H87.273l-1.167-14.148h17.768l-1.166 14.148Z"/>
  <path fill="#263238" d="M105.021 192.397H84.953v2.395h20.068v-2.395Z"/>
  <path fill="#fff" d="M95.904 123.824H60.271c-2.502 0-4.53 1.798-4.53 4.015v75.644c0 2.217 2.028 4.015 4.53 4.015h35.633c2.502 0 4.53-1.798 4.53-4.015v-75.644c0-2.217-2.028-4.015-4.53-4.015Z"/>
  <path fill="#000" d="M95.904 123.824H60.271c-2.502 0-4.53 1.798-4.53 4.015v75.644c0 2.217 2.028 4.015 4.53 4.015h35.633c2.502 0 4.53-1.798 4.53-4.015v-75.644c0-2.217-2.028-4.015-4.53-4.015Z" opacity=".6"/>
  <path fill="#fff" d="M93.733 123.824H58.1c-2.502 0-4.53 1.798-4.53 4.015v75.644c0 2.217 2.028 4.015 4.53 4.015h35.633c2.502 0 4.53-1.798 4.53-4.015v-75.644c0-2.217-2.028-4.015-4.53-4.015Z"/>
  <path fill="#000" d="M93.733 123.824H58.1c-2.502 0-4.53 1.798-4.53 4.015v75.644c0 2.217 2.028 4.015 4.53 4.015h35.633c2.502 0 4.53-1.798 4.53-4.015v-75.644c0-2.217-2.028-4.015-4.53-4.015Z" opacity=".3"/>
  <path fill="#FAFAFA" d="M98.263 128.431H53.57v71.904h44.693v-71.904Z"/>
  <path fill="#fff" d="M98.289 128.282H53.596v71.904H98.29v-71.904Z" opacity=".18"/>
  <path fill="#fff" d="m69.79 128.437-14.496 71.904h14.353l14.502-71.904H69.79Zm17.858 0-14.495 71.904h7.18l14.495-71.904h-7.18Z" opacity=".4"/>
  <path fill="#fff" d="M77.935 203.666c0 .354-.118.699-.34.993a1.987 1.987 0 0 1-.904.658 2.26 2.26 0 0 1-1.165.101 2.106 2.106 0 0 1-1.031-.489 1.731 1.731 0 0 1-.552-.914 1.598 1.598 0 0 1 .115-1.032 1.84 1.84 0 0 1 .742-.802 2.207 2.207 0 0 1 1.12-.301c.534 0 1.047.188 1.425.523.378.335.59.79.59 1.263Z"/>
  <path fill="#000" d="M77.935 203.666c0 .354-.118.699-.34.993a1.987 1.987 0 0 1-.904.658 2.26 2.26 0 0 1-1.165.101 2.106 2.106 0 0 1-1.031-.489 1.731 1.731 0 0 1-.552-.914 1.598 1.598 0 0 1 .115-1.032 1.84 1.84 0 0 1 .742-.802 2.207 2.207 0 0 1 1.12-.301c.534 0 1.047.188 1.425.523.378.335.59.79.59 1.263Z" opacity=".5"/>
  <path fill="#fff" d="M81.2 126.576c.394 0 .714-.283.714-.632 0-.349-.32-.632-.713-.632-.394 0-.713.283-.713.632 0 .349.32.632.713.632Zm-2.909 0h-7.659a.764.764 0 0 1-.504-.185.6.6 0 0 1-.209-.447.604.604 0 0 1 .21-.445.772.772 0 0 1 .503-.187h7.653a.772.772 0 0 1 .502.187.603.603 0 0 1 .21.445.6.6 0 0 1-.206.445.765.765 0 0 1-.5.187Z"/>
  <path fill="#000" d="M81.2 126.576c.394 0 .714-.283.714-.632 0-.349-.32-.632-.713-.632-.394 0-.713.283-.713.632 0 .349.32.632.713.632Zm-2.909 0h-7.659a.764.764 0 0 1-.504-.185.6.6 0 0 1-.209-.447.604.604 0 0 1 .21-.445.772.772 0 0 1 .503-.187h7.653a.772.772 0 0 1 .502.187.603.603 0 0 1 .21.445.6.6 0 0 1-.206.445.765.765 0 0 1-.5.187Z" opacity=".5"/>
</svg>
